<?xml version="1.0" encoding="UTF-8" standalone="no"?>
<svg width="14px" height="14px" viewBox="0 0 14 14" version="1.1" xmlns="http://www.w3.org/2000/svg" xmlns:xlink="http://www.w3.org/1999/xlink">
    <!-- Generator: Sketch 41.2 (35397) - http://www.bohemiancoding.com/sketch -->
    <title>ellipsis</title>
    <desc>Created with Sketch.</desc>
    <defs></defs>
    <g id="Assets---SVGs-for-Harry" stroke="none" stroke-width="1" fill="none" fill-rule="evenodd">
        <g id="ellipsis" fill="#48464F">
            <path d="M2,9 C3.1045695,9 4,8.1045695 4,7 C4,5.8954305 3.1045695,5 2,5 C0.8954305,5 0,5.8954305 0,7 C0,8.1045695 0.8954305,9 2,9 Z M7,9 C8.1045695,9 9,8.1045695 9,7 C9,5.8954305 8.1045695,5 7,5 C5.8954305,5 5,5.8954305 5,7 C5,8.1045695 5.8954305,9 7,9 Z M12,9 C13.1045695,9 14,8.1045695 14,7 C14,5.8954305 13.1045695,5 12,5 C10.8954305,5 10,5.8954305 10,7 C10,8.1045695 10.8954305,9 12,9 Z"></path>
        </g>
    </g>
</svg>