<?xml version="1.0" encoding="UTF-8" standalone="no"?>
<svg width="20px" height="20px" viewBox="0 0 20 20" version="1.1" xmlns="http://www.w3.org/2000/svg" xmlns:xlink="http://www.w3.org/1999/xlink">
    <!-- Generator: Sketch 40.3 (33839) - http://www.bohemiancoding.com/sketch -->
    <title>ellipsis</title>
    <desc>Created with Sketch.</desc>
    <defs></defs>
    <g id="Page-1" stroke="none" stroke-width="1" fill="none" fill-rule="evenodd">
        <g id="ellipsis" fill="#000000">
            <path d="M2.85714286,12.8542856 C4.43509929,12.8542856 5.71428571,11.5750992 5.71428571,9.99714272 C5.71428571,8.4191863 4.43509929,7.13999987 2.85714286,7.13999987 C1.27918643,7.13999987 0,8.4191863 0,9.99714272 C0,11.5750992 1.27918643,12.8542856 2.85714286,12.8542856 Z M10,12.8542856 C11.5779564,12.8542856 12.8571429,11.5750992 12.8571429,9.99714272 C12.8571429,8.4191863 11.5779564,7.13999987 10,7.13999987 C8.42204357,7.13999987 7.14285714,8.4191863 7.14285714,9.99714272 C7.14285714,11.5750992 8.42204357,12.8542856 10,12.8542856 Z M17.1428571,12.8542856 C18.7208136,12.8542856 20,11.5750992 20,9.99714272 C20,8.4191863 18.7208136,7.13999987 17.1428571,7.13999987 C15.5649007,7.13999987 14.2857143,8.4191863 14.2857143,9.99714272 C14.2857143,11.5750992 15.5649007,12.8542856 17.1428571,12.8542856 Z"></path>
        </g>
    </g>
</svg>