<?xml version="1.0" encoding="UTF-8"?>
<svg width="16px" height="16px" viewBox="0 0 16 16" version="1.1" xmlns="http://www.w3.org/2000/svg" xmlns:xlink="http://www.w3.org/1999/xlink">
    <!-- Generator: sketchtool 43.2 (39069) - http://www.bohemiancoding.com/sketch -->
    <title>folder</title>
    <desc>Created with sketchtool.</desc>
    <defs></defs>
    <g id="Page-1" stroke="none" stroke-width="1" fill="none" fill-rule="evenodd">
        <g id="folder" fill="#000000">
            <path d="M12.4647,13.00015 L2.9962,13.00015 L2.7807,13.00015 L4.1862,7.37865 C4.2417,7.15615 4.4417,7.00015 4.6712,7.00015 L12.0002,7.00015 L13.3252,7.00015 C13.6507,7.00015 13.8892,7.30565 13.8102,7.62165 L12.4647,13.00015 Z M3.2849,6.86 L1.9999,12 L1.9999,5 L1.9999,3.9995 C1.9999,3.724 2.2264,3.5 2.4984,3.5 L5.5014,3.5 C5.7769,3.5 6.1224,3.684 6.2784,3.918 L6.9999,5 L11.5039,5 C11.7779,5 11.9999,5.2225 11.9999,5.5005 L11.9999,6 L4.3864,6 C3.7294,6 3.4584,6.167 3.2849,6.86 Z" id="Open-Folder"></path>
        </g>
    </g>
</svg>