<?xml version="1.0" encoding="UTF-8" standalone="no"?>
<svg width="16px" height="16px" viewBox="0 0 16 16" version="1.1" xmlns="http://www.w3.org/2000/svg" xmlns:xlink="http://www.w3.org/1999/xlink">
    <!-- Generator: Sketch 42 (36781) - http://www.bohemiancoding.com/sketch -->
    <title>Info Popup Circle</title>
    <desc>Created with Sketch.</desc>
    <defs>
        <path d="M15,8 C15,4.134 11.866,1 8,1 C4.134,1 1,4.134 1,8 C1,11.866 4.134,15 8,15 C11.866,15 15,11.866 15,8 M16,8 C16,12.418 12.418,16 8,16 C3.582,16 0,12.418 0,8 C0,3.582 3.582,0 8,0 C12.418,0 16,3.582 16,8 Z M6.19999981,6.80000019 L6.19999981,7.52000019 L7.09999981,7.52000019 L7.09999981,11.1000002 L6.19999981,11.1000002 L6.19999981,12.0000002 L9.79999981,12.0000002 L9.79999981,11.1000002 L8.89999981,11.1000002 L8.89999981,6.80000019 L6.19999981,6.80000019 Z M8.9000001,5.0250001 C8.9000001,4.54217122 8.50782897,4.1500001 8.0250001,4.1500001 C7.54217122,4.1500001 7.1500001,4.54217122 7.1500001,5.0250001 C7.1500001,5.50782897 7.54217122,5.9000001 8.0250001,5.9000001 C8.50782897,5.9000001 8.9000001,5.50782897 8.9000001,5.0250001 Z" id="path-1"></path>
    </defs>
    <g id="Final---SVGs-for-Harry" stroke="none" stroke-width="1" fill="none" fill-rule="evenodd">
        <g id="Info-Popup-Circle">
            <mask id="mask-2" fill="white">
                <use xlink:href="#path-1"></use>
            </mask>
            <use fill="#48464F" xlink:href="#path-1"></use>
        </g>
    </g>
</svg>