<?xml version="1.0" encoding="UTF-8" standalone="no"?>
<svg width="14px" height="14px" viewBox="0 0 14 14" version="1.1" xmlns="http://www.w3.org/2000/svg" xmlns:xlink="http://www.w3.org/1999/xlink">
    <!-- Generator: Sketch 41.2 (35397) - http://www.bohemiancoding.com/sketch -->
    <title>magnify-glass</title>
    <desc>Created with Sketch.</desc>
    <defs></defs>
    <g id="Assets---SVGs-for-Harry" stroke="none" stroke-width="1" fill="none" fill-rule="evenodd">
        <g id="magnify-glass" fill="#48464F">
            <path d="M3,6 C3,4.343 4.343,3 6,3 C7.657,3 9,4.343 9,6 C9,7.657 7.657,9 6,9 C4.343,9 3,7.657 3,6 L3,6 Z M13,11.586 L10.168,8.754 C10.692,7.964 11,7.019 11,6 C11,3.239 8.761,1 6,1 C3.239,1 1,3.239 1,6 C1,8.761 3.239,11 6,11 C7.019,11 7.964,10.692 8.754,10.168 L11.586,13 L13,11.586 Z"></path>
        </g>
    </g>
</svg>