<?xml version="1.0" encoding="UTF-8" standalone="no"?>
<svg width="16px" height="16px" viewBox="0 0 16 16" version="1.1" xmlns="http://www.w3.org/2000/svg" xmlns:xlink="http://www.w3.org/1999/xlink">
    <!-- Generator: Sketch 42 (36781) - http://www.bohemiancoding.com/sketch -->
    <title>Search</title>
    <desc>Created with Sketch.</desc>
    <defs>
        <path d="M4,7 C4,5.343 5.343,4 7,4 C8.657,4 10,5.343 10,7 C10,8.657 8.657,10 7,10 C5.343,10 4,8.657 4,7 L4,7 Z M14,12.586 L11.168,9.754 C11.692,8.964 12,8.019 12,7 C12,4.239 9.761,2 7,2 C4.239,2 2,4.239 2,7 C2,9.761 4.239,12 7,12 C8.019,12 8.964,11.692 9.754,11.168 L12.586,14 L14,12.586 Z" id="path-1"></path>
    </defs>
    <g id="Final---SVGs-for-Harry" stroke="none" stroke-width="1" fill="none" fill-rule="evenodd">
        <g id="Search">
            <mask id="mask-2" fill="white">
                <use xlink:href="#path-1"></use>
            </mask>
            <use fill="#48464F" xlink:href="#path-1"></use>
        </g>
    </g>
</svg>