<?xml version="1.0" encoding="UTF-8"?>
<svg width="16px" height="16px" viewBox="0 0 16 16" version="1.1" xmlns="http://www.w3.org/2000/svg" xmlns:xlink="http://www.w3.org/1999/xlink">
    <!-- Generator: sketchtool 43.2 (39069) - http://www.bohemiancoding.com/sketch -->
    <title>open</title>
    <desc>Created with sketchtool.</desc>
    <defs></defs>
    <g id="Page-1" stroke="none" stroke-width="1" fill="none" fill-rule="evenodd">
        <g id="open" fill="#000000">
            <path d="M11,8 L12,7 L13,8 L13,11.333 C13,12.254 12.254,13 11.333,13 L4.667,13 C3.746,13 3,12.254 3,11.333 L3,4.667 C3,3.746 3.746,3 4.667,3 L8,3 L9,4 L8,5 L5,5 L5,11 L11,11 L11,8 Z M9,2 L14,2 L14,7 L12,5 L8,9 L7,8 L9,6 L11,4 L9,2 Z" id="Mask"></path>
        </g>
    </g>
</svg>