<?xml version="1.0" encoding="UTF-8" standalone="no"?>
<svg width="14px" height="14px" viewBox="0 0 14 14" version="1.1" xmlns="http://www.w3.org/2000/svg" xmlns:xlink="http://www.w3.org/1999/xlink">
    <!-- Generator: Sketch 41.2 (35397) - http://www.bohemiancoding.com/sketch -->
    <title>question-mark</title>
    <desc>Created with Sketch.</desc>
    <defs></defs>
    <g id="Assets---SVGs-for-Harry" stroke="none" stroke-width="1" fill="none" fill-rule="evenodd">
        <g id="question-mark" fill="#48464F">
            <path d="M7,13.125 C6.38,13.125 5.875,12.62 5.875,12 C5.875,11.379 6.38,10.875 7,10.875 C7.62,10.875 8.125,11.379 8.125,12 C8.125,12.62 7.62,13.125 7,13.125 Z M8,9.5 L6,9.5 L6,9.062 C6,8.442 6.221,7.852 6.616,7.309 C6.897,6.922 7.231,6.608 7.526,6.331 L7.621,6.241 C8.248,5.648 8.603,5.278 8.597,4.559 C8.597,3.674 7.88,3 7,3 C6.12,3 5.403,3.674 5.403,4.555 L5.403,5 L3.445,5 L3.445,4.555 C3.445,2.595 5.04,1 7,1 C8.955,1 10.55,2.594 10.555,4.553 C10.564,6.153 9.525,7.136 8.968,7.664 L8.89,7.737 C8.615,7.996 8.356,8.24 8.195,8.46 C8.038,8.677 8,8.84 8,9.062 L8,9.5 Z"></path>
        </g>
    </g>
</svg>