<?xml version="1.0" encoding="UTF-8" standalone="no"?>
<svg width="16px" height="16px" viewBox="0 0 16 16" version="1.1" xmlns="http://www.w3.org/2000/svg" xmlns:xlink="http://www.w3.org/1999/xlink">
    <!-- Generator: Sketch 42 (36781) - http://www.bohemiancoding.com/sketch -->
    <title>Help</title>
    <desc>Created with Sketch.</desc>
    <defs>
        <path d="M6.625,13 C6.625,12.241 7.24222222,11.625 8,11.625 C8.75777778,11.625 9.375,12.241 9.375,13 C9.375,13.7577778 8.75777778,14.375 8,14.375 C7.24222222,14.375 6.625,13.7577778 6.625,13 Z M9,10.25 L7,10.25 L7,10.062 C7,9.442 7.221,8.852 7.616,8.309 C7.897,7.922 8.231,7.608 8.526,7.331 L8.621,7.241 C9.248,6.648 9.603,6.278 9.597,5.559 C9.597,4.674 8.88,4 8,4 C7.12,4 6.403,4.674 6.403,5.555 L6.403,6 L4.445,6 L4.445,5.555 C4.445,3.595 6.04,2 8,2 C9.955,2 11.55,3.594 11.555,5.553 C11.564,7.153 10.525,8.136 9.968,8.664 L9.89,8.737 C9.615,8.996 9.356,9.24 9.195,9.46 C9.038,9.677 9,9.84 9,10.062 L9,10.25 Z" id="path-1"></path>
    </defs>
    <g id="Final---SVGs-for-Harry" stroke="none" stroke-width="1" fill="none" fill-rule="evenodd">
        <g id="Help">
            <mask id="mask-2" fill="white">
                <use xlink:href="#path-1"></use>
            </mask>
            <use fill="#48464F" xlink:href="#path-1"></use>
        </g>
    </g>
</svg>