<?xml version="1.0" encoding="UTF-8"?>
<svg width="16px" height="16px" viewBox="0 0 16 16" version="1.1" xmlns="http://www.w3.org/2000/svg" xmlns:xlink="http://www.w3.org/1999/xlink">
    <!-- Generator: Sketch 42 (36781) - http://www.bohemiancoding.com/sketch -->
    <title>share</title>
    <desc>Created with Sketch.</desc>
    <defs>
        <path d="M8.04087292,4.40445138 L5.12680917,6.34716055 C4.80598136,6.12808149 4.418017,6 4,6 C2.895,6 2,6.895 2,8 C2,9.105 2.895,10 4,10 C4.41821009,10 4.80633976,9.87180016 5.12725371,9.6525358 L8.04098128,11.5950209 C8.01411253,11.7257984 8,11.8612435 8,12 C8,13.105 8.895,14 10,14 C11.105,14 12,13.105 12,12 C12,10.895 11.105,10 10,10 C9.58178381,10 9.1936489,10.1282036 8.87273224,10.3474738 L5.95910781,8.40454528 C5.98591866,8.27390207 6,8.13860304 6,8 C6,7.86124352 5.98588747,7.72579836 5.95901872,7.59502085 L8.87274629,5.6525358 C9.19366024,5.87180016 9.58178991,6 10,6 C11.105,6 12,5.105 12,4 C12,2.895 11.105,2 10,2 C8.895,2 8,2.895 8,4 C8,4.13856983 8.01407459,4.27383725 8.04087292,4.40445138 Z" id="path-1"></path>
    </defs>
    <g id="Final---SVGs-for-Harry" stroke="none" stroke-width="1" fill="none" fill-rule="evenodd">
        <g id="share">
            <mask id="mask-2" fill="white">
                <use xlink:href="#path-1"></use>
            </mask>
            <use fill="#48464F" xlink:href="#path-1"></use>
        </g>
    </g>
</svg>