<?xml version="1.0" encoding="UTF-8" standalone="no"?>
<svg width="14px" height="14px" viewBox="0 0 14 14" version="1.1" xmlns="http://www.w3.org/2000/svg" xmlns:xlink="http://www.w3.org/1999/xlink">
    <!-- Generator: Sketch 41.2 (35397) - http://www.bohemiancoding.com/sketch -->
    <title>tag</title>
    <desc>Created with Sketch.</desc>
    <defs></defs>
    <g id="Assets---SVGs-for-Harry" stroke="none" stroke-width="1" fill="none" fill-rule="evenodd">
        <g id="tag" fill="#48464F">
            <path d="M5.00082556,4.00117947 C5.00082556,4.27728798 4.88877443,4.52738627 4.7076918,4.70845743 C4.52660918,4.88952859 4.27749551,5.00057223 4.00136951,5.00057223 C3.44811706,5.00057223 3.00091301,4.55339649 3.00091301,4.00017907 C3.00091301,3.72407056 3.11196368,3.47497267 3.29304631,3.29390151 C3.47412893,3.11283035 3.72424306,3.00078631 4.00036905,3.00078631 C4.55262105,3.00078631 5.00082556,3.44896245 5.00082556,4.00117947 M1.99945605,1 C1.72333005,1 1.47321593,1.11204403 1.2921333,1.29311519 C1.11105067,1.47418636 1,1.72328425 1,1.99939276 L1,6.2040452 C1,6.56818831 1,6.96634478 1.37517119,7.34149222 C1.75134283,7.71764004 6.8083155,12.7758944 6.8083155,12.7758944 C7.19949399,13.1660478 7.83278296,13.1660478 8.22396145,12.7758944 L10.5,10.5 L12.7750381,8.22410557 C13.1662166,7.83395224 13.1662166,7.19970298 12.7750381,6.80954965 L7.34189378,1.37514743 C6.96572213,1 6.5685409,1 6.20337428,1 L1.99945605,1 Z"></path>
        </g>
    </g>
</svg>