<?xml version="1.0" encoding="UTF-8" standalone="no"?>
<svg width="20px" height="20px" viewBox="0 0 20 20" version="1.1" xmlns="http://www.w3.org/2000/svg" xmlns:xlink="http://www.w3.org/1999/xlink">
    <!-- Generator: Sketch 40.3 (33839) - http://www.bohemiancoding.com/sketch -->
    <title>twitter</title>
    <desc>Created with Sketch.</desc>
    <defs></defs>
    <g id="Page-1" stroke="none" stroke-width="1" fill="none" fill-rule="evenodd">
        <g id="twitter" fill="#000000">
            <path d="M0,16.41 C0.321428571,16.4471429 0.648571429,16.4671429 0.978571429,16.4671429 C2.90142857,16.4671429 4.67142857,15.81 6.07428571,14.71 C4.27857143,14.6771429 2.76428571,13.4914286 2.24142857,11.86 C2.49285714,11.9085714 2.75,11.9342857 3.01428571,11.9342857 C3.38857143,11.9342857 3.88,11.8842857 4.22428571,11.79 C2.34714286,11.4128571 1.06142857,9.75571429 1.06142857,7.76714286 C1.06142857,8.02285714 2.11857143,8.20714286 2.79142857,8.22857143 C1.69,7.49285714 0.901428571,6.23714286 0.901428571,4.81285714 C0.901428571,4.06142857 1.07142857,3.35571429 1.42428571,2.75 C3.44857143,5.23285714 6.45571429,6.86714286 9.86571429,7.03714286 C9.79571429,6.73714286 9.75142857,6.42428571 9.75142857,6.10285714 C9.75142857,3.83714286 11.5857143,2 13.8514286,2 C15.0314286,2 16.0957143,2.49714286 16.8442857,3.29571429 C17.7785714,3.11142857 18.6557143,2.77 19.4485714,2.29857143 C19.1414286,3.25714286 18.4914286,4.06142857 17.6442857,4.57 C18.4742857,4.47 19.2642857,4.25 20,3.92285714 C19.45,4.74571429 18.7542857,5.46857143 17.9528571,6.04714286 C17.9614286,6.22285714 17.9642857,6.4 17.9642857,6.57857143 C17.9642857,12 13.8371429,18.2528571 6.29,18.2528571 C3.97285714,18.2528571 1.81571429,17.5728571 0,16.41 Z"></path>
        </g>
    </g>
</svg>