<?xml version="1.0" encoding="UTF-8"?>
<svg width="940px" height="266px" viewBox="0 0 940 266" version="1.1" xmlns="http://www.w3.org/2000/svg" xmlns:xlink="http://www.w3.org/1999/xlink">
    <!-- Generator: Sketch 48.2 (47327) - http://www.bohemiancoding.com/sketch -->
    <title>axiom-text</title>
    <desc>Created with Sketch.</desc>
    <defs></defs>
    <g id="Page-1" stroke="none" stroke-width="1" fill="none" fill-rule="evenodd">
        <g id="axiom-text" fill="#000000" fill-rule="nonzero">
            <path d="M400,263 L400,58 L434,58.028 L434,263 L400,263 Z M416.957274,0 C426.355018,0 434,7.77461846 434,17.3283816 L434,17.6695874 C434,27.2253815 426.392776,35 417.042726,35 L416.957274,35 C407.607224,35 400,27.2253815 400,17.6695874 L400,17.3283816 C400,7.77461846 407.607224,0 416.957274,0 Z M615.710868,86.8083799 C631.827431,105.390877 640,129.350778 640,158.024923 L640,164.81079 C640,193.595128 631.827431,217.609123 615.712873,236.187613 C599.129134,255.305046 577.438542,265 551.242611,265 C524.84016,265 503.017234,255.311056 486.383369,236.205645 C470.202645,217.627155 462,193.605145 462,164.81079 L462,158.024923 C462,129.348774 470.170564,105.38687 486.289132,86.8083799 C502.872871,67.6909475 524.615594,58 550.919798,58 C577.326259,58 599.125124,67.6909475 615.710868,86.8083799 Z M496.33642,158.024923 L496.33642,164.81079 C496.33642,183.952264 501.413197,199.581597 511.855479,212.590346 C521.604015,224.739593 534.486438,230.645922 551.242611,230.645922 C567.661936,230.645922 580.38195,224.721561 590.130486,212.530241 C600.582793,199.461387 605.665585,183.852089 605.665585,164.81079 L605.665585,158.024923 C605.665585,139.420387 600.528656,123.939314 589.962062,110.700162 C580.101244,98.3525683 567.331103,92.3500711 550.919798,92.3500711 C534.422276,92.3500711 521.662161,98.3385437 511.909615,110.658088 C501.431243,123.903251 496.33642,139.396345 496.33642,158.024923 Z M863.456225,57.9690081 C919.095724,58.0611208 939.807432,103.917204 939.807432,132.804534 L939.807432,262.689387 L938.84363,262.711413 C938.769337,262.713416 931.364123,262.887629 922.404778,262.887629 C913.590004,262.887629 906.381566,263.091879 906.309281,263.093881 L905.293273,263.121916 L905.293273,132.035594 C905.293273,123.557224 898.151097,91.8824852 863.211258,91.8464411 C828.297523,91.8824852 821.159363,123.557224 821.159363,132.035594 L821.159363,262.683379 L820.19556,262.705406 C820.121267,262.707409 812.714046,262.887629 803.750685,262.887629 C794.937918,262.887629 787.731489,263.091879 787.659204,263.093881 L786.643195,263.121916 L786.625124,132.011564 C786.625124,123.531192 779.484956,91.8564534 744.547125,91.8204093 C709.629374,91.8564534 702.491214,123.531192 702.491214,132.011564 L702.491214,262.65935 L701.527412,262.681377 C701.455126,262.683379 694.047905,262.859595 685.086552,262.859595 C676.275793,262.859595 669.065348,263.065847 668.995071,263.067849 L667.977055,263.095884 L667.977055,132.7765 C667.977055,103.893175 688.688763,58.035089 744.262001,57.9429763 L744.587284,57.9429763 C768.921282,57.9830253 789.879965,67.444597 803.901279,84.6176001 C817.918578,67.4626191 838.827062,58.0110596 862.928141,57.9710106 L863.456225,57.9690081 Z M158,125.348135 L158,189.970883 L158,189.980892 L158,262.632939 L131.37599,262.632939 L130.275426,249.945405 C114.883577,261.261692 95.2338104,266 77.0574756,266 C30.2444428,266 0,241.169427 0,202.742493 C0,181.539217 8.68422655,163.701001 24.4569631,152.506824 C41.953715,140.081529 64.2897381,139.042584 85.6675294,139.042584 L123.850462,139.042584 L123.850462,125.043858 C123.850462,114.149955 120.632968,106.074613 114.013551,100.357416 C106.927045,94.2358508 96.2441636,91.13303 82.2515733,91.13303 C69.125,91.13303 58.6666413,94.1157416 51.1671742,100.005096 C45.4518626,104.483167 42.2925041,109.812011 41.5046691,116.301911 L8.29331608,113.495359 C9.11122107,98.1574158 16.0493808,84.9353958 28.9193565,74.1956324 C42.5731577,62.7872611 60.5049229,57 82.2154892,57 C104.244798,57 122.395072,62.8052775 136.169153,74.2456779 C150.652888,86.2585987 158,103.454231 158,125.348135 Z M123.818387,189.970883 L123.818387,175.417652 L123.816382,175.379618 L123.818387,175.379618 L123.818387,173.343767 L86.172706,173.343767 C68.2028522,173.343767 54.7715692,173.8202 45.5140073,179.967789 C36.1441839,186.169427 34.1816129,196.104459 34.1816129,203.349045 C34.1816129,229.212557 64.1654486,232.003094 77.0574756,232.003094 C98.6277152,232.003094 123.818387,220.995086 123.818387,189.970883 Z M374,263 L331.592,263 L278,189.168 L224.408,263 L182,263 L256.796,159.955 L182.793,58 L225.201,58 L278,130.742 L330.799,58 L373.207,58 L299.204,159.955 L374,263 Z" id="Combined-Shape"></path>
        </g>
    </g>
</svg>
