<?xml version="1.0" encoding="UTF-8"?>
<svg width="16px" height="16px" viewBox="0 0 16 16" version="1.1" xmlns="http://www.w3.org/2000/svg" xmlns:xlink="http://www.w3.org/1999/xlink">
    <!-- Generator: sketchtool 43.2 (39069) - http://www.bohemiancoding.com/sketch -->
    <title>data</title>
    <desc>Created with sketchtool.</desc>
    <defs></defs>
    <g id="Page-1" stroke="none" stroke-width="1" fill="none" fill-rule="evenodd">
        <g id="data" fill="#000000">
            <path d="M8,10 C6.8954305,10 6,9.1045695 6,8 C6,6.8954305 6.8954305,6 8,6 C9.1045695,6 10,6.8954305 10,8 C10,9.1045695 9.1045695,10 8,10 Z M3,10 C1.8954305,10 1,9.1045695 1,8 C1,6.8954305 1.8954305,6 3,6 C4.1045695,6 5,6.8954305 5,8 C5,9.1045695 4.1045695,10 3,10 Z M13,10 C11.8954305,10 11,9.1045695 11,8 C11,6.8954305 11.8954305,6 13,6 C14.1045695,6 15,6.8954305 15,8 C15,9.1045695 14.1045695,10 13,10 Z M8,15 C6.8954305,15 6,14.1045695 6,13 C6,11.8954305 6.8954305,11 8,11 C9.1045695,11 10,11.8954305 10,13 C10,14.1045695 9.1045695,15 8,15 Z M3,15 C1.8954305,15 1,14.1045695 1,13 C1,11.8954305 1.8954305,11 3,11 C4.1045695,11 5,11.8954305 5,13 C5,14.1045695 4.1045695,15 3,15 Z M13,15 C11.8954305,15 11,14.1045695 11,13 C11,11.8954305 11.8954305,11 13,11 C14.1045695,11 15,11.8954305 15,13 C15,14.1045695 14.1045695,15 13,15 Z M8,5 C6.8954305,5 6,4.1045695 6,3 C6,1.8954305 6.8954305,1 8,1 C9.1045695,1 10,1.8954305 10,3 C10,4.1045695 9.1045695,5 8,5 Z M3,5 C1.8954305,5 1,4.1045695 1,3 C1,1.8954305 1.8954305,1 3,1 C4.1045695,1 5,1.8954305 5,3 C5,4.1045695 4.1045695,5 3,5 Z M13,5 C11.8954305,5 11,4.1045695 11,3 C11,1.8954305 11.8954305,1 13,1 C14.1045695,1 15,1.8954305 15,3 C15,4.1045695 14.1045695,5 13,5 Z" id="Mask"></path>
        </g>
    </g>
</svg>