<svg height="16" viewBox="0 0 16 16" width="16" xmlns="http://www.w3.org/2000/svg"><path d="m12.4463 7.25c-.049-.941-.191-1.83-.406-2.648.453-.098.878-.212 1.268-.34.612.865 1.017 1.884 1.145 2.988zm-.406 4.148c.215-.818.357-1.707.406-2.648h2.007c-.128 1.104-.533 2.123-1.145 2.988-.39-.128-.815-.242-1.268-.34zm-.488 1.439c.218.045.425.091.619.141-.319.268-.664.506-1.031.709.149-.264.285-.551.412-.85zm-7.105 0c.127.299.263.586.412.85-.366-.203-.711-.441-1.031-.709.194-.05.402-.096.619-.141zm-.894-4.087c.049.941.192 1.83.407 2.648-.453.098-.879.212-1.269.34-.611-.865-1.017-1.884-1.144-2.988zm.407-4.148c-.215.818-.358 1.707-.407 2.648h-2.006c.127-1.104.533-2.123 1.144-2.988.39.128.816.242 1.269.34zm.487-1.439c-.217-.045-.425-.091-.619-.141.32-.268.665-.506 1.031-.709-.149.264-.285.551-.412.85zm6.693-.85c.367.203.712.441 1.031.709-.194.05-.401.096-.619.141-.127-.299-.263-.586-.412-.85zm-2.39 1.168v-1.817c.491.311.965.908 1.355 1.722-.422.047-.874.078-1.355.095zm0 3.769v-2.256c.657-.023 1.29-.075 1.891-.153.199.723.335 1.535.386 2.409zm0 3.756v-2.256h2.277c-.051.874-.187 1.686-.386 2.409-.601-.078-1.234-.13-1.891-.153zm0 1.513c.481.017.933.048 1.355.095-.39.814-.864 1.411-1.355 1.721zm-1.5 0v1.816c-.491-.31-.966-.907-1.356-1.721.422-.047.874-.078 1.356-.095zm0-3.769v2.256c-.658.023-1.29.075-1.892.153-.198-.723-.334-1.535-.385-2.409zm0-3.756v2.256h-2.277c.051-.874.187-1.686.385-2.409.601.078 1.234.13 1.892.153zm0-1.513c-.482-.017-.934-.048-1.356-.095.39-.814.865-1.411 1.356-1.722zm.75-3.481c-4.419 0-8 3.582-8 8s3.581 8 8 8c4.418 0 8-3.582 8-8s-3.582-8-8-8z" fill-rule="evenodd"/></svg>