<svg height="16" viewBox="0 0 16 16" width="16" xmlns="http://www.w3.org/2000/svg"><path d="m6.0189166 11.3465176h-3.24677559l-.67411865 2.2949269h-2.09802236l3.37747206-10.6414445h2.05674978l3.36371453 10.6414445h-2.09802235zm-2.75150473-1.67368871h2.26311264l-1.10748066-3.74935512h-.04127257zm10.73086843 3.96861561c-.0733738-.1802817-.1364285-.3703056-.1891659-.5700773-.0527375-.1997718-.0905703-.4044129-.1134996-.6139295-.2063639.3849259-.4792187.7040686-.8185727.9574376-.3393539.253369-.7429039.3800516-1.210662.3800516-.779597 0-1.3803361-.2131678-1.80223565-.6395099-.4218995-.426342-.63284608-1.0073766-.63284608-1.7431212 0-.7747244.28087996-1.3752487.84264833-1.80159073.5617683-.42634205 1.3814793-.63950989 2.4591573-.63950989h1.128117v-.62854686c0-.38005349-.0940088-.67483415-.2820293-.88435081-.1880204-.20951667-.4677539-.31427343-.8392089-.31427343-.3255964 0-.5766686.08404903-.7532244.25214961s-.2648323.39832184-.2648323.69067068h-1.93293212l-.01375752-.04385211c-.03210105-.66752985.24190022-1.24369204.82201204-1.72850387.5801118-.48481182 1.3379145-.7272141 2.2734308-.7272141.8942435 0 1.6176527.23874797 2.1702493.71625108.5525967.4775031.8288908 1.16207636.8288908 2.05374032v3.26698191c0 .3703086.0263684.7186857.0791058 1.0451419s.1364282.6504713.2510748.972055zm-1.8366294-1.4251934c.3485257 0 .6603598-.0925758.9355116-.27773.2751519-.1851543.4631695-.3995402.5640585-.6431643v-1.1182287h-1.128117c-.4264853 0-.7486374.1120654-.966466.3361995-.2178285.2241341-.3267412.4994251-.3267412.8258813 0 .2679865.0813979.4811543.2441961.6395099.1627981.1583557.3886486.2375323.677558.2375323z" fill-rule="evenodd"/></svg>