<svg height="16" viewBox="0 0 16 16" width="16" xmlns="http://www.w3.org/2000/svg"><g fill-rule="evenodd"><path d="m8 14.5c3.5898509 0 6.5-2.9101491 6.5-6.5 0-3.58985087-2.9101491-6.5-6.5-6.5-3.58985087 0-6.5 2.91014913-6.5 6.5 0 3.5898509 2.91014913 6.5 6.5 6.5zm0 1.5c-4.418278 0-8-3.581722-8-8s3.581722-8 8-8 8 3.581722 8 8-3.581722 8-8 8z" fill-opacity=".75" fill-rule="nonzero"/><path d="m8.75 7.65938009v-3.91762562c0-.41417545-.33578644-.74175447-.75-.74175447-.41710138 0-.75.33209479-.75.74175447v4.01649106c0 .10226731.02047237.19925497.05754277.28733518-.0022484.21927397.09158014.43838984.27418554.59161397l2.66676559 2.23768202c.3304167.2772526.7975677.2309007 1.063819-.0864053.2681076-.3195182.2216421-.79307571-.0996376-1.06266136z"/></g></svg>