<svg height="40" viewBox="0 0 19 40" width="19" xmlns="http://www.w3.org/2000/svg"><path d="m16.1150162 10.9998 2.523 9.418c.179.667-.217 1.352-.884 1.531s-1.352-.217-1.531-.884l-2.521-9.41-.97.263 3.774 14.082h-3v12.25c0 .967-.784 1.75-1.75 1.75-.967 0-1.75-.783-1.75-1.75v-12.25h-.99999997v12.25c0 .967-.784 1.75-1.75 1.75-.967 0-1.75-.783-1.75-1.75v-12.25h-3l3.773-14.082-.969-.263-2.522 9.41c-.179.667-.864 1.063-1.531.884s-1.063-.864-.884-1.531l2.524-9.418c.625-2.334 2.226-3.898 4.699-4l3.82299997.016c2.47.086 4.07 1.65 4.696 3.984zm-6.60949997-4.9998c-1.657 0-3-1.343-3-3s1.343-3 3-3c1.65699997 0 2.99999997 1.343 2.99999997 3s-1.343 3-2.99999997 3z" fill-rule="evenodd"/></svg>