<svg height="16" viewBox="0 0 16 16" width="16" xmlns="http://www.w3.org/2000/svg"><g fill-rule="evenodd"><path d="m3.88235294 12.0489723c.46323761 0 .8428294-.1929576 1.13878677-.5788786.29595736-.3859209.44393382-.9245448.44393382-1.61588787v-.66766357c-.21017262.29831925-.45894464.52323913-.74632353.67476637-.28737889.15152727-.59619933.22728977-.92647059.22728977-.87071514 0-1.5537659-.31252029-2.04917279-.93757016-.49540689-.62504988-.74310662-1.47501025-.74310662-2.54990663 0-1.03701456.29380834-1.89644525.88143382-2.57831784.58762549-.68187259 1.33823073-1.02280377 2.25183824-1.02280377.94363217 0 1.71353868.35040149 2.30974265 1.05121499.59620396.70081349.89430147 1.67152033.89430147 2.91214962v2.78429916c0 1.19327703-.32490484 2.14030813-.97472427 2.84112163-.64981942.7008135-1.47655748 1.0512149-2.48023897 1.0512149-.32598202 0-.66160979-.039065-1.00689338-.1171962-.34528359-.0781313-.67018843-.1882236-.97472427-.3302804l.31525736-1.4986916c.27022194.1231158.53400606.2130838.79136029.2699065s.54901798.0852337.875.0852337zm.22518382-3.48037399c.30453584 0 .57260914-.06865975.80422795-.20598131.2316188-.13732157.41605323-.32199262.55330882-.55401871v-1.20747668c0-.648726-.12009684-1.14473352-.36029412-1.48803743s-.56188524-.51495329-.96507353-.51495329c-.37745287 0-.68198413.19295758-.91360294.57887853-.2316188.38592094-.34742647.86062026-.34742647 1.42411219 0 .59190329.10508473 1.0677864.31525735 1.4276636s.51470389.5398131.91360294.5398131z"/><path d="m11.554619 12.0489723c.4813219 0 .8757325-.1929576 1.1832436-.5788786.3075112-.3859209.4612645-.9245448.4612645-1.61588787v-.66766357c-.2183775.29831925-.4768613.52323913-.7754591.67476637-.2985978.15152727-.6194742.22728977-.9626388.22728977-.9047068 0-1.61442303-.31252029-2.12916998-.93757016-.51474696-.62504988-.77211657-1.47501025-.77211657-2.54990663 0-1.03701456.30527824-1.89644525.9158439-2.57831784.61056565-.68187259 1.39047355-1.02280377 2.33974715-1.02280377.9804704 0 1.7804331.35040149 2.3999122 1.05121499.619479.70081349.9292138 1.67152033.9292138 2.91214962v2.78429916c0 1.19327703-.3375887 2.14030813-1.0127762 2.84112163-.6751876.7008135-1.5342005 1.0512149-2.5770645 1.0512149-.3387079 0-.6874382-.039065-1.0462012-.1171962-.358763-.0781313-.69635174-.1882236-1.01277628-.3302804l.32756461-1.4986916c.28077107.1231158.55485297.2130838.82225397.2699065.2674011.0568227.570451.0852337.9091589.0852337zm.2339748-3.48037399c.3164245 0 .5949631-.06865975.835624-.20598131.2406609-.13732157.4322954-.32199262.5749093-.55401871v-1.20747668c0-.648726-.1247853-1.14473352-.3743596-1.48803743s-.5838205-.51495329-1.0027488-.51495329c-.3921881 0-.7086079.19295758-.9492688.57887853-.2406609.38592094-.3609896.86062026-.3609896 1.42411219 0 .59190329.1091871 1.0677864.3275646 1.4276636s.5347973.5398131.9492689.5398131z"/></g></svg>