<svg height="40" viewBox="0 0 16 40" width="16" xmlns="http://www.w3.org/2000/svg"><path d="m12.002 7c1.932 0 3.498 1.566 3.498 3.498v1.502 9.75c0 .69-.56 1.25-1.25 1.25-.691 0-1.25-.56-1.25-1.25v-9.75h-1v11 15.25c0 .966-.784 1.75-1.75 1.75-.967 0-1.75-.784-1.75-1.75v-15.25h-1v15.25c0 .966-.784 1.75-1.75 1.75-.967 0-1.75-.784-1.75-1.75v-15.25-11h-1v9.75c0 .69-.56 1.25-1.25 1.25-.691 0-1.25-.56-1.25-1.25v-9.75-1.502c0-1.932 1.566-3.498 3.498-3.498h.002 8zm-4.0021-1c-1.657 0-3-1.343-3-3s1.343-3 3-3 3 1.343 3 3-1.343 3-3 3z" fill-rule="evenodd"/></svg>