<svg height="16" viewBox="0 0 16 16" width="16" xmlns="http://www.w3.org/2000/svg"><g fill-rule="evenodd"><g fill-opacity=".75"><path d="m8.75 5.6272v-2.302c-.228.109-.48.175-.75.175s-.522-.066-.75-.175v2.302c.238-.075.487-.127.75-.127s.512.052.75.127"/><path d="m7.25 10.3728v2.302c.228-.109.48-.175.75-.175s.522.066.75.175v-2.302c-.238.075-.487.127-.75.127s-.512-.052-.75-.127"/><path d="m6.8259 5.8055-1.61-1.61c-.085.226-.215.44-.398.622-.199.199-.435.333-.685.416l1.644 1.645c.232-.458.597-.831 1.049-1.073"/><path d="m9.1219 10.2228 1.644 1.644c.083-.25.217-.486.416-.685.183-.182.396-.312.623-.397l-1.61-1.611c-.243.452-.615.817-1.073 1.049"/><path d="m12.653 7.2903h-2.268c.068.226.115.461.115.71 0 .278-.056.54-.14.79h2.337c-.122-.238-.197-.504-.197-.79 0-.254.056-.493.153-.71"/><path d="m5.6147 7.2903h-2.268c.097.217.153.456.153.71 0 .286-.075.552-.196.79h2.336c-.084-.25-.14-.512-.14-.79 0-.249.048-.484.115-.71"/><path d="m5.8055 9.1741-1.61 1.61c.226.085.44.215.623.398.198.199.332.435.415.685l1.645-1.644c-.458-.232-.831-.597-1.073-1.049"/><path d="m10.2228 6.8781 1.644-1.644c-.25-.083-.486-.217-.685-.416-.182-.183-.312-.396-.397-.623l-1.611 1.61c.452.243.817.615 1.049 1.073"/></g><path d="m8 5.5c-1.381 0-2.5 1.119-2.5 2.5s1.119 2.5 2.5 2.5 2.5-1.119 2.5-2.5-1.119-2.5-2.5-2.5m0 1.25c.689 0 1.25.561 1.25 1.25s-.561 1.25-1.25 1.25-1.25-.561-1.25-1.25.561-1.25 1.25-1.25"/><path d="m9.75 1.75c0-.966-.784-1.75-1.75-1.75s-1.75.784-1.75 1.75.784 1.75 1.75 1.75 1.75-.784 1.75-1.75"/><path d="m9.75 14.25c0-.966-.784-1.75-1.75-1.75s-1.75.784-1.75 1.75.784 1.75 1.75 1.75 1.75-.784 1.75-1.75"/><path d="m13.6569 4.818c.683-.683.683-1.791 0-2.475-.683-.683-1.791-.683-2.475 0-.683.684-.683 1.792 0 2.475.684.683 1.792.683 2.475 0"/><path d="m4.818 13.6569c.683-.683.683-1.791 0-2.475-.683-.683-1.791-.683-2.475 0-.683.684-.683 1.792 0 2.475.684.683 1.792.683 2.475 0"/><path d="m14.25 9.75c.966 0 1.75-.784 1.75-1.75s-.784-1.75-1.75-1.75-1.75.784-1.75 1.75.784 1.75 1.75 1.75"/><path d="m1.75 9.75c.966 0 1.75-.784 1.75-1.75s-.784-1.75-1.75-1.75-1.75.784-1.75 1.75.784 1.75 1.75 1.75"/><path d="m11.182 13.6569c.683.683 1.791.683 2.475 0 .683-.683.683-1.791 0-2.475-.684-.683-1.792-.683-2.475 0-.683.684-.683 1.792 0 2.475"/><path d="m2.3431 4.818c.683.683 1.791.683 2.475 0 .683-.683.683-1.791 0-2.475-.684-.683-1.792-.683-2.475 0-.683.684-.683 1.792 0 2.475"/></g></svg>