<svg height="40" viewBox="0 0 30 40" width="30" xmlns="http://www.w3.org/2000/svg"><g fill-rule="evenodd"><path d="m26.9684 8.06666667c1.6744 0 3.0316 1.3572 3.0316 3.03160003v1.3017333 8.45c0 .598-.4853333 1.0833333-1.0833333 1.0833333-.5988667 0-1.0833334-.4853333-1.0833334-1.0833333v-8.45h-.8666666v9.5333333 13.2166667c0 .8372-.6794667 1.5166667-1.5166667 1.5166667-.8380667 0-1.5166667-.6794667-1.5166667-1.5166667v-13.2166667h-.8666666v13.2166667c0 .8372-.6794667 1.5166667-1.5166667 1.5166667-.8380667 0-1.5166667-.6794667-1.5166667-1.5166667v-13.2166667-9.5333333h-.8666666v8.45c0 .598-.4853334 1.0833333-1.0833334 1.0833333-.5988666 0-1.0833333-.4853333-1.0833333-1.0833333v-8.45-1.3017333c0-1.67440003 1.3572-3.03160003 3.0316-3.03160003h.0017333 6.9333334zm-3.4684867-.86666667c-1.4360666 0-2.6-1.16393333-2.6-2.6s1.1639334-2.6 2.6-2.6c1.4360667 0 2.6 1.16393333 2.6 2.6s-1.1639333 2.6-2.6 2.6z" fill-opacity=".75"/><path d="m9.9684 8.06666667c1.6744 0 3.0316 1.3572 3.0316 3.03160003v1.3017333 8.45c0 .598-.4853333 1.0833333-1.0833333 1.0833333-.5988667 0-1.0833334-.4853333-1.0833334-1.0833333v-8.45h-.86666663v9.5333333 13.2166667c0 .8372-.67946667 1.5166667-1.51666667 1.5166667-.83806667 0-1.51666667-.6794667-1.51666667-1.5166667v-13.2166667h-.86666666v13.2166667c0 .8372-.67946667 1.5166667-1.51666667 1.5166667-.83806667 0-1.51666667-.6794667-1.51666667-1.5166667v-13.2166667-9.5333333h-.86666666v8.45c0 .598-.48533334 1.0833333-1.08333334 1.0833333-.59886666 0-1.08333333-.4853333-1.08333333-1.0833333v-8.45-1.3017333c0-1.67440003 1.3572-3.03160003 3.0316-3.03160003h.00173333 6.93333334zm-3.46848667-.86666667c-1.43606666 0-2.6-1.16393333-2.6-2.6s1.16393334-2.6 2.6-2.6c1.43606667 0 2.6 1.16393333 2.6 2.6s-1.16393333 2.6-2.6 2.6z" fill-opacity=".75"/><path d="m21.7850162 10.9998 2.523 9.418c.179.667-.217 1.352-.884 1.531s-1.352-.217-1.531-.884l-2.521-9.41-.97.263 3.774 14.082h-3v12.25c0 .967-.784 1.75-1.75 1.75-.967 0-1.75-.783-1.75-1.75v-12.25h-1v12.25c0 .967-.784 1.75-1.75 1.75-.967 0-1.75-.783-1.75-1.75v-12.25h-2.99999998l3.77299998-14.082-.969-.263-2.52199998 9.41c-.179.667-.864 1.063-1.531.884s-1.063-.864-.884-1.531l2.524-9.418c.625-2.334 2.22599998-3.898 4.69899998-4l3.823.016c2.47.086 4.07 1.65 4.696 3.984zm-6.6095-4.9998c-1.657 0-3-1.343-3-3s1.343-3 3-3 3 1.343 3 3-1.343 3-3 3z"/></g></svg>