<?xml version="1.0" encoding="UTF-8"?>
<svg width="16px" height="16px" viewBox="0 0 16 16" version="1.1" xmlns="http://www.w3.org/2000/svg" xmlns:xlink="http://www.w3.org/1999/xlink">
    <!-- Generator: Sketch 46.2 (44496) - http://www.bohemiancoding.com/sketch -->
    <title>Pie Chart</title>
    <desc>Created with Sketch.</desc>
    <defs></defs>
    <g id="Axiom-Icons" stroke="none" stroke-width="1" fill="none" fill-rule="evenodd">
        <g id="Pie-Chart" fill="#000000">
            <path d="M3.5,8 C3.5,5.515 5.515,3.5 8,3.5 L8.001,3.5 L8.001,0 C6.529,0 5.275,0.336 4.001,1.072 C0.175,3.281 -1.136,8.173 1.073,11.999 L4.119,10.24 C3.736,9.578 3.5,8.82 3.5,8" id="Path" fill-opacity="0.3"></path>
            <path d="M8,12.5 C6.335,12.5 4.897,11.585 4.119,10.24 L1.073,11.999 C1.809,13.273 2.727,14.191 4.001,14.927 C7.827,17.136 12.719,15.825 14.928,11.999 L11.881,10.24 C11.103,11.585 9.666,12.5 8,12.5" id="Path" fill-opacity="0.75"></path>
            <path d="M8.0007,0 L8.0007,3.5 C10.4857,3.5 12.4997,5.515 12.4997,8 C12.4997,8.82 12.2647,9.578 11.8817,10.24 L14.9287,11.999 C15.6637,10.725 15.9997,9.47 15.9997,7.999 C15.9997,3.581 12.4187,0 8.0007,0" id="Path"></path>
        </g>
    </g>
</svg>