<svg height="16" viewBox="0 0 16 16" width="16" xmlns="http://www.w3.org/2000/svg"><g fill-rule="evenodd"><path d="m3.5 8c0-2.485 2.015-4.5 4.5-4.5h.001v-3.5c-1.472 0-2.726.336-4 1.072-3.826 2.209-5.137 7.101-2.928 10.927l3.046-1.759c-.383-.662-.619-1.42-.619-2.24" fill-opacity=".3"/><path d="m8 12.5c-1.665 0-3.103-.915-3.881-2.26l-3.046 1.759c.736 1.274 1.654 2.192 2.928 2.928 3.826 2.209 8.718.898 10.927-2.928l-3.047-1.759c-.778 1.345-2.215 2.26-3.881 2.26" fill-opacity=".75"/><path d="m8.0007 0v3.5c2.485 0 4.499 2.015 4.499 4.5 0 .82-.235 1.578-.618 2.24l3.047 1.759c.735-1.274 1.071-2.529 1.071-4 0-4.418-3.581-7.999-7.999-7.999"/></g></svg>