<svg height="16" viewBox="0 0 16 16" width="16" xmlns="http://www.w3.org/2000/svg"><g><path d="m8 14.5c3.5898509 0 6.5-2.9101491 6.5-6.5 0-3.58985087-2.9101491-6.5-6.5-6.5-3.58985087 0-6.5 2.91014913-6.5 6.5 0 3.5898509 2.91014913 6.5 6.5 6.5zm0 1.5c-4.418278 0-8-3.581722-8-8s3.581722-8 8-8 8 3.581722 8 8-3.581722 8-8 8z"/><path d="m8 11.5c1.93299662 0 3.5-1.56700338 3.5-3.5s-1.56700338-3.5-3.5-3.5-3.5 1.56700338-3.5 3.5 1.56700338 3.5 3.5 3.5zm0 1.5c-2.76142375 0-5-2.2385763-5-5 0-2.76142375 2.23857625-5 5-5 2.7614237 0 5 2.23857625 5 5 0 2.7614237-2.2385763 5-5 5z" fill-opacity=".75"/><path d="m8 10c-1.1045695 0-2-.8954305-2-2s.8954305-2 2-2 2 .8954305 2 2-.8954305 2-2 2z" fill-opacity=".3"/></g></svg>