<svg height="38" viewBox="0 0 54 38" width="54" xmlns="http://www.w3.org/2000/svg"><g fill="#3f3f3f" fill-rule="evenodd" transform="translate(.18062 .0625)"><path d="m25.8193805 18.0740132c7.455375 0 13.5 6.6216611 13.5 14.7878289v3.2817715h-27v-3.2817715c0-8.1661678 6.044625-14.7878289 13.5-14.7878289z" fill-opacity=".75"/><path d="m9.8193805 23.4857189c5.4227529 0 9.8193805 4.6385248 9.8193805 10.3589884v2.2989063h-19.638761v-2.2989063c0-5.7204636 4.39662762-10.3589884 9.8193805-10.3589884z" fill-opacity=".5"/><path d="m42.8193805 23.4857189c5.4227529 0 9.8193805 4.6385248 9.8193805 10.3589884v2.2989063h-19.638761v-2.2989063c0-5.7204636 4.3966276-10.3589884 9.8193805-10.3589884z" fill-opacity=".5"/><path d="m25.8193805 0c4.19175 0 7.59375 3.31247368 7.59375 7.39391447 0 4.08144083-3.402 7.39391443-7.59375 7.39391443s-7.59375-3.3124736-7.59375-7.39391443c0-4.08144079 3.402-7.39391447 7.59375-7.39391447z" fill-opacity=".75"/><g fill-opacity=".5"><path d="m9.8193805 9.85413994c3.0489176 0 5.5234015 2.39915786 5.5234015 5.35526316s-2.4744839 5.3552632-5.5234015 5.3552632c-3.04891765 0-5.52340153-2.3991579-5.52340153-5.3552632s2.47448388-5.35526316 5.52340153-5.35526316z"/><path d="m42.8193805 9.85413994c3.0489176 0 5.5234015 2.39915786 5.5234015 5.35526316s-2.4744839 5.3552632-5.5234015 5.3552632-5.5234015-2.3991579-5.5234015-5.3552632 2.4744839-5.35526316 5.5234015-5.35526316z"/></g></g></svg>