<?xml version="1.0" encoding="UTF-8"?>
<svg width="16px" height="16px" viewBox="0 0 16 16" version="1.1" xmlns="http://www.w3.org/2000/svg" xmlns:xlink="http://www.w3.org/1999/xlink">
    <title>Topics Wheel</title>
    <g id="Topics-Wheel" stroke="none" stroke-width="1" fill="none" fill-rule="evenodd">
        <g id="Group" fill="#3F3F3F">
            <path d="M5.72634077,13.1880107 C6.39935358,13.4829909 7.14072712,13.6509025 7.9201115,13.6613956 L7.89958621,15.9944828 L7.82399548,15.9939766 C6.70564045,15.9701174 5.64378594,15.7167021 4.68366166,15.2789602 L5.72634077,13.1880107 Z M10.3844565,13.1360786 L11.3891155,15.2433821 C10.4178592,15.698758 9.34004654,15.9645896 8.20331003,15.9932442 L8.22394354,13.6574915 C8.99347854,13.6272912 9.72357563,13.4435608 10.3844565,13.1360786 Z M12.2248086,11.7681878 L14.0001244,13.283907 C13.3439531,14.0284077 12.5514364,14.6498622 11.6616295,15.1092154 L10.6558639,13.0008122 C11.2496707,12.6846757 11.7805408,12.2659124 12.2248086,11.7681878 Z M13.4892375,9.39134578 L15.7689712,9.89713491 C15.4828669,11.071865 14.9373323,12.1450088 14.1964938,13.0524401 L12.4211892,11.5359852 C12.9186954,10.9148132 13.2880683,10.1865767 13.4892375,9.39134578 Z M2.73666188,1.97399194 L4.25271508,3.74877399 C3.79878715,4.14917527 3.40951872,4.62117712 3.10257935,5.14711002 L1.0503348,4.0331099 C1.46023219,3.31638737 1.97784088,2.66918941 2.5811025,2.11357437 L2.73666188,1.97399194 Z M11.5714692,0.840792657 C12.5655627,1.33810947 13.4415971,2.03644246 14.1462897,2.88250903 L12.3451961,4.36698548 C11.8648984,3.79254625 11.2728699,3.31474161 10.6025233,2.96698417 L11.5714692,0.840792657 Z M8.03972414,0.000551724138 L8.01951634,2.33395149 L7.9979151,2.33391117 C7.45450052,2.33391117 6.92895978,2.41043819 6.43148199,2.55330313 L5.6904514,0.352082178 L5.40273217,0.448981671 L6.14247647,2.64480682 C5.53704213,2.85462559 4.9782375,3.16425801 4.48574945,3.5540172 L2.96914963,1.77839448 C4.34297185,0.666213393 6.09264224,-7.99360578e-15 7.9979151,-7.99360578e-15 L8.03972414,0.000551724138 Z M8.34360844,0.0073364842 C9.39324692,0.0519737287 10.3905167,0.29891483 11.2974233,0.710165442 L10.3295455,2.83456086 C9.71189688,2.55520849 9.03519098,2.38342441 8.32332155,2.3431024 L8.34360844,0.0073364842 Z" id="Combined-Shape" fill-opacity="0.75"></path>
            <path d="M10.8187308,8.79904275 L13.4892799,9.39117835 C12.8684583,11.8456306 10.6452952,13.661919 7.9979151,13.661919 C7.19002517,13.661919 6.42164094,13.492775 5.72624344,13.187968 L6.9491694,10.7363758 C7.27480814,10.8611619 7.6283769,10.9295352 7.9979151,10.9295352 C9.33924664,10.9295352 10.4701793,10.0287103 10.8187308,8.79904275 Z M2.95677354,5.41308447 L5.35987346,6.71766243 C5.17179611,7.10448894 5.06629498,7.53888147 5.06629498,7.9979151 C5.06629498,9.13963689 5.71895749,10.1289212 6.67154233,10.6130278 L5.45161466,13.0586666 C3.60233135,12.1263762 2.33391117,10.2102733 2.33391117,7.9979151 C2.33391117,7.06673161 2.55862137,6.18803199 2.95677354,5.41308447 Z M12.5338464,4.60526281 C13.2422833,5.55091263 13.661919,6.72540828 13.661919,7.9979151 C13.661919,8.37321416 13.6254178,8.7399879 13.5557718,9.09487992 L10.8862181,8.50282603 C10.914693,8.33879544 10.9295352,8.17008857 10.9295352,7.9979151 C10.9295352,7.38542437 10.7417043,6.8168039 10.4205018,6.34651307 L12.5338464,4.60526281 Z M8.01887669,2.33381691 L7.99515255,5.06595484 L7.87707394,5.06874025 C6.87558218,5.109345 6.00354312,5.65236553 5.50621307,6.45254552 L3.1024119,5.14739696 C4.0554724,3.51413153 5.8024781,2.40090209 7.81430677,2.33683086 L8.01887669,2.33381691 Z M8.32311162,2.34309052 C9.93750942,2.43447441 11.3710752,3.20197278 12.345131,4.36690754 L10.2364029,6.10478724 C9.7595627,5.54152457 9.07395606,5.16063626 8.29903128,5.08157057 L8.32311162,2.34309052 Z" id="Combined-Shape" fill-opacity="0.3"></path>
            <path d="M15.9927287,8.12743099 L15.9958302,7.9979151 C15.9958302,8.5468574 15.9405267,9.08288288 15.8351874,9.6007239 L13.5557138,9.09517539 C13.6159945,8.7880928 13.6514588,8.47211313 13.6599323,8.14941096 L15.9927287,8.12743099 Z M15.8262685,6.35187584 C15.9060759,6.73335319 15.9587027,7.12481771 15.9820307,7.52415109 L15.994,7.82509343 L13.6595862,7.84496552 C13.6511025,7.51962799 13.6154525,7.20396708 13.555034,6.89719716 L15.8262685,6.35187584 Z M15.206282,4.52868953 C15.4397108,5.0128226 15.625803,5.52406941 15.7585534,6.05642452 L13.4882986,6.60077811 C13.4007946,6.2558575 13.281642,5.92355867 13.1341131,5.60715384 L15.206282,4.52868953 Z M14.3361598,3.11943099 C14.6112321,3.47628227 14.8568414,3.85701288 15.0693455,4.2579807 L12.9985863,5.33578953 C12.8620702,5.07988518 12.7064854,4.83569155 12.5337287,4.60510562 L14.3361598,3.11943099 Z" id="Combined-Shape"></path>
            <path d="M3.93817151,11.9475303 C4.3753911,12.396864 4.88656856,12.7738674 5.45204831,13.0588852 L4.41001287,15.1478415 C3.5756288,14.7283192 2.82478856,14.1670385 2.1891072,13.4956145 L3.93817151,11.9475303 Z M2.70466105,10.0177492 C2.94551134,10.6485595 3.295882,11.2252634 3.73252138,11.7246093 L1.98459509,13.2712741 C1.34243805,12.5395948 0.831692972,11.6897256 0.489225119,10.7585319 L2.70466105,10.0177492 Z M0.0207357842,7.41753725 L2.34493243,7.64167464 C2.33762118,7.75948244 2.33391117,7.87826551 2.33391117,7.9979151 C2.33391117,8.60244598 2.42861973,9.18485649 2.60400877,9.73111856 L0.389999848,10.4719446 C0.136833643,9.69289468 -1.02140518e-14,8.8613845 -1.02140518e-14,7.9979151 C-1.02140518e-14,7.86780111 0.00310704144,7.73841279 0.0092509775,7.60982032 L0.0207357842,7.41753725 Z M0.904829023,4.29913176 L2.95663252,5.41335897 C2.65390971,6.00264583 2.45147533,6.65191911 2.37187024,7.33863796 L0.0481668759,7.11512124 C0.158701166,6.10843225 0.456062662,5.15796164 0.904829023,4.29913176 Z" id="Combined-Shape"></path>
        </g>
    </g>
</svg>
