<svg height="16" viewBox="0 0 16 16" width="16" xmlns="http://www.w3.org/2000/svg"><g fill-rule="evenodd"><path d="m5.72634077 13.1880107c.67301281.2949802 1.41438635.4628918 2.19377073.4733849l-.02052529 2.3330872-.07559073-.0005062c-1.11835503-.0238592-2.18020954-.2772745-3.14033382-.7150164zm4.65811573-.0519321 1.004659 2.1073035c-.9712563.4553759-2.04906896.7212075-3.18580547.7498621l.02063351-2.3357527c.769535-.0302003 1.49963209-.2139307 2.16051296-.5214129zm1.8403521-1.3678908 1.7753158 1.5157192c-.6561713.7445007-1.448688 1.3659552-2.3384949 1.8253084l-1.0057656-2.1084032c.5938068-.3161365 1.1246769-.7348998 1.5689447-1.2326244zm1.2644289-2.37684202 2.2797337.50578913c-.2861043 1.17473009-.8316389 2.24787389-1.5724774 3.15530519l-1.7753046-1.5164549c.4975062-.621172.8668791-1.3494085 1.0680483-2.14463942zm-10.75257562-7.41735384 1.5160532 1.77478205c-.45392793.40040128-.84319636.87240313-1.15013573 1.39833603l-2.05224455-1.11400012c.40989739-.71672253.92750608-1.36392049 1.5307677-1.91953553zm8.83480732-1.13319928c.9940935.49731681 1.8701279 1.1956498 2.5748205 2.04171637l-1.8010936 1.48447645c-.4802977-.57443923-1.0723262-1.05224387-1.7426728-1.40000131zm-3.53174506-.84024094-.0202078 2.33339977-.02160124-.00004032c-.54341458 0-1.06895532.07652702-1.56643311.21939196l-.74103059-2.20122095-.28771923.09689949.7397443 2.19582515c-.60543434.20981877-1.16423897.51945119-1.65672702.90921038l-1.51659982-1.77562272c1.37382222-1.11218109 3.12349261-1.77839448 5.02876547-1.77839448zm.3038843.00678476c1.04963848.04463725 2.04690826.29157835 2.95381486.70282896l-.9678778 2.12439542c-.61764862-.27935237-1.29435452-.45113645-2.00622395-.49145846z" fill-opacity=".75"/><path d="m10.8187308 8.79904275 2.6705491.5921356c-.6208216 2.45445225-2.8439847 4.27074065-5.4913648 4.27074065-.80788993 0-1.57627416-.169144-2.27167166-.473951l1.22292596-2.4515922c.32563874.1247861.6792075.1931594 1.0487457.1931594 1.34133154 0 2.4722642-.9008249 2.8208157-2.13049245zm-7.86195726-3.38595828 2.40309992 1.30457796c-.18807735.38682651-.29357848.82121904-.29357848 1.28025267 0 1.14172179.65266251 2.1310061 1.60524735 2.6151127l-1.21992767 2.4456388c-1.84928331-.9322904-3.11770349-2.8483933-3.11770349-5.0607515 0-.93118349.2247102-1.80988311.62286237-2.58483063zm9.57707286-.80782166c.7084369.94564982 1.1280726 2.12014547 1.1280726 3.39265229 0 .37529906-.0365012.7420728-.1061472 1.09696482l-2.6695537-.59205389c.0284749-.16403059.0433171-.33273746.0433171-.50491093 0-.61249073-.1878309-1.1811112-.5090334-1.65140203zm-4.51496971-2.2714459-.02372414 2.73213793-.11807861.00278541c-1.00149176.04060475-1.87353082.58362528-2.37086087 1.38380527l-2.40380117-1.30514856c.9530605-1.63326543 2.7000662-2.74649487 4.71189487-2.8105661zm.30423493.00927361c1.6143978.09138389 3.04796358.85888226 4.02201938 2.02381702l-2.1087281 1.7378797c-.4768402-.56326267-1.16244684-.94415098-1.93737162-1.02321667z" fill-opacity=".3"/><path d="m15.9927287 8.12743099.0031015-.12951589c0 .5489423-.0553035 1.08496778-.1606428 1.6028088l-2.2794736-.50554851c.0602807-.30708259.095745-.62306226.1042185-.94576443zm-.1664602-1.77555515c.0798074.38147735.1324342.77294187.1557622 1.17227525l.0119693.30094234-2.3344138.01987209c-.0084837-.32533753-.0441337-.64099844-.1045522-.94776836zm-.6199865-1.82318631c.2334288.48413307.419521.99537988.5522714 1.52773499l-2.2702548.54435359c-.087504-.34492061-.2066566-.67721944-.3541855-.99362427zm-.8701222-1.40925854c.2750723.35685128.5206816.73758189.7331857 1.13854971l-2.0707592 1.07780883c-.1365161-.25590435-.2921009-.50009798-.4648576-.73068391z"/><path d="m3.93817151 11.9475303c.43721959.4493337.94839705.8263371 1.5138768 1.1113549l-1.04203544 2.0889563c-.83438407-.4195223-1.58522431-.980803-2.22090567-1.652227zm-1.23351046-1.9297811c.24085029.6308103.59122095 1.2075142 1.02786033 1.7068601l-1.74792629 1.5466648c-.64215704-.7316793-1.15290212-1.5815485-1.49536997-2.5127422zm-2.68392527-2.60021195 2.32419665.22413739c-.00731125.1178078-.01102126.23659087-.01102126.35624046 0 .60453088.09470856 1.18694139.2700976 1.73320346l-2.21400892.74082604c-.25316621-.77904992-.38999985-1.6105601-.38999985-2.4740295 0-.13011399.00310704-.25950231.00925098-.38809478zm.88409324-3.11840549 2.0518035 1.11422721c-.30272281.58928686-.50515719 1.23856014-.58476228 1.92527899l-2.32370336-.22351672c.11053429-1.00668899.40789578-1.9571596.85666214-2.81598948z"/></g></svg>