<svg height="16" viewBox="0 0 16 16" width="16" xmlns="http://www.w3.org/2000/svg"><g fill="none" fill-rule="evenodd"><path d="m11.2896 6.6221h-.014l-3.865 3.879h-.014c-.056.069-.14.112-.225.154-.085.043-.197.057-.267.057-.113 0-.182-.014-.281-.057-.098-.042-.169-.085-.24-.154l-1.671-1.687c-.155-.126-.211-.323-.211-.505-.015-.184.083-.352.196-.507.169-.126.324-.211.52-.211.197 0 .352.085.506.211l1.167 1.18 3.387-3.373c.112-.154.323-.211.506-.211.169 0 .366.057.492.211.154.127.211.324.225.492 0 .183-.099.367-.211.521m3.316.268c-.266-.422-.603-.747-1.054-.957.043-.07.071-.155.085-.225l.043-.239.042-.239c0-.07 0-.155.013-.238-.013-.731-.295-1.392-.758-1.884-.464-.492-1.082-.788-1.799-.788-.156 0-.309.014-.45.043s-.309.07-.435.126c-.226-.435-.52-.815-.914-1.081-.408-.267-.871-.408-1.391-.408-.493 0-.971.141-1.35.408-.394.266-.745.646-.928 1.081-.154-.056-.281-.097-.435-.126-.17-.029-.296-.043-.464-.043-.689 0-1.349.296-1.8.788-.449.492-.745 1.153-.73 1.884-.015.083-.015.168 0 .238.014.084.014.168.028.239.014.085.028.17.056.239l.056.225c-.407.21-.787.535-1.026.957-.238.42-.407.912-.394 1.432-.013.506.128.97.352 1.363.225.409.576.746.928.97.014.029.014.057 0 .084-.015.029-.015.058 0 .085v.085c-.015.027-.015.056 0 .083-.015.746.281 1.406.73 1.884.451.478 1.111.787 1.8.787.168 0 .294-.027.464-.057.154-.027.281-.055.435-.112.183.449.534.816.928 1.082.379.268.857.422 1.35.422.52 0 .983-.154 1.391-.422.394-.266.688-.633.914-1.082.126.057.294.085.435.112.141.03.294.057.45.057.717 0 1.335-.309 1.799-.787.463-.478.745-1.138.758-1.884-.013-.027-.013-.056 0-.083 0-.029 0-.057-.013-.085-.015-.027-.015-.056 0-.085 0-.027-.015-.055-.028-.084.408-.224.717-.561.955-.97.225-.393.338-.857.351-1.363-.013-.52-.126-1.012-.394-1.432" fill="#000"/><g fill="#fff"><path d="m14.9999 8.3226c-.014-.521-.126-1.012-.394-1.433-.266-.422-.603-.746-1.054-.957.043-.069.071-.154.085-.225l.042-.239.042-.238c0-.07 0-.155.014-.238-.014-.732-.295-1.393-.759-1.884-.463-.492-1.081-.788-1.799-.788-.155 0-.309.013-.449.043-.141.028-.309.069-.435.126-.227-.436-.52-.816-.915-1.081-.407-.268-.871-.409-1.391-.409-.492 0-.97.141-1.349.409-.394.265-.745.645-.928 1.081-.154-.057-.282-.098-.436-.126-.169-.03-.295-.043-.463-.043-.689 0-1.35.296-1.8.788-.449.491-.745 1.152-.73 1.884-.015.083-.015.168 0 .238.014.085.014.168.028.238.014.085.027.169.055.239l.057.225c-.408.211-.788.535-1.026.957-.239.421-.408.912-.394 1.433-.014.506.127.969.352 1.363.225.408.576.745.928.97.014.029.014.056 0 .084-.015.028-.015.057 0 .085v.085c-.015.027-.015.055 0 .083-.015.746.281 1.406.73 1.883.45.479 1.111.788 1.8.788.168 0 .294-.028.463-.057.154-.027.282-.056.436-.112.183.449.534.815.928 1.082.379.267.857.421 1.349.421.52 0 .984-.154 1.391-.421.395-.267.688-.633.915-1.082.126.056.294.085.435.112.14.029.294.057.449.057.718 0 1.336-.309 1.799-.788.464-.477.745-1.137.759-1.883-.014-.028-.014-.056 0-.083 0-.03 0-.058-.014-.085-.014-.028-.014-.057 0-.085 0-.028-.014-.055-.028-.084.408-.225.717-.562.956-.97.225-.394.337-.857.351-1.363zm-1.305 5.249c-.671.692-1.552 1.092-2.518 1.092-.144 0-.276-.012-.419-.035-.234.305-.509.566-.831.784-.583.382-1.237.585-1.94.585-.692 0-1.374-.214-1.91-.593-.325-.22-.613-.481-.847-.776-.018.003-.034.005-.05.008-.125.018-.242.027-.369.027-.953 0-1.879-.414-2.528-1.102-.611-.648-.974-1.497-1.001-2.408-.321-.28-.599-.612-.798-.973-.327-.574-.501-1.217-.482-1.832-.019-.678.174-1.336.522-1.952.199-.351.465-.659.778-.918-.006-.064-.007-.076-.006-.074-.029-.157-.034-.319-.016-.479.004-.93.369-1.81.993-2.493.644-.703 1.574-1.112 2.538-1.112.151 0 .283.009.429.027.233-.292.513-.549.821-.757.548-.387 1.227-.591 1.926-.591.709 0 1.364.194 1.952.58.309.209.577.466.81.767.139-.017.283-.026.428-.026.978 0 1.864.397 2.527 1.101.643.683 1.012 1.586 1.031 2.551l-.013.184c0-.003-.001.016-.001.074l-.015.172-.013.077c.291.242.542.534.758.874.358.564.53 1.217.549 1.996-.019.675-.176 1.295-.482 1.831-.222.379-.48.698-.783.961-.056.94-.421 1.793-1.04 2.43z"/><path d="m11.2896 6.6221c.112-.154.211-.338.211-.521-.014-.168-.071-.365-.225-.492-.126-.154-.323-.211-.492-.211-.183 0-.394.057-.506.211l-3.387 3.373-1.167-1.18c-.154-.126-.309-.211-.506-.211-.196 0-.351.085-.52.211-.113.155-.211.323-.196.507 0 .182.056.379.211.505l1.671 1.687c.071.069.142.112.24.154.099.043.168.057.281.057.07 0 .182-.014.267-.057.085-.042.169-.085.225-.154h.014c-.014 0-.014 0 0 0l3.865-3.879z"/></g></g></svg>