<svg height="16" viewBox="0 0 16 16" width="16" xmlns="http://www.w3.org/2000/svg"><g fill-rule="evenodd"><path d="m12.75 4.5c-.122 0-.24.023-.359.037-.443-2.019-2.241-3.537-4.391-3.537-2.14 0-3.947 1.519-4.393 3.535-.119-.013-.236-.035-.357-.035-1.792 0-3.25 1.458-3.25 3.25s1.458 3.25 3.25 3.25h1.75c.414 0 .75-.336.75-.75s-.336-.75-.75-.75h-1.75c-.965 0-1.75-.785-1.75-1.75s.785-1.75 1.75-1.75c.467 0 .906.182 1.237.513.293.293.768.293 1.061 0s.293-.768 0-1.061c-.155-.155-.322-.291-.5-.41.224-1.433 1.462-2.542 2.952-2.542 1.654 0 3 1.346 3 3 0 .36-.063.713-.187 1.047-.145.389.053.82.441.965.087.032.175.047.262.047.304 0 .59-.187.703-.489.124-.336.192-.685.234-1.04.098-.016.196-.03.297-.03.965 0 1.75.785 1.75 1.75s-.785 1.75-1.75 1.75h-.001-1.749c-.414 0-.75.336-.75.75s.336.75.75.75h1.749.001c1.792 0 3.25-1.458 3.25-3.25s-1.458-3.25-3.25-3.25"/><g fill-opacity=".75"><path d="m7.6418 9.5398c-.324.08-.625.261-.842.548-.498.662-.365 1.603.297 2.101s1.603.365 2.101-.297c.183-.244.279-.525.297-.809l.001.002v-.012c.001-.008 0-.016 0-.025l.004-2.048z"/><path d="m3.8933 12.5397c-.324.08-.626.261-.842.548-.498.662-.365 1.603.297 2.101s1.602.365 2.1-.297c.184-.244.28-.525.298-.808l.001.001v-.011-.025l.004-2.049z"/></g></g></svg>