<svg height="16" viewBox="0 0 16 16" width="16" xmlns="http://www.w3.org/2000/svg"><g fill-rule="evenodd"><path d="m6.6617 11.6401c1.408 1.268 3.61 1.074 4.95-.266l2.97-2.97c1.632-1.632 1.827-3.834.558-5.242-1.352-1.502-3.668-1.548-5.079-.137l-.097.097c-.293.293-.293.767 0 1.06.293.293.768.293 1.061 0l.017-.017c.705-.704 1.839-.879 2.649-.299 1.031.739 1.117 2.19.259 3.048l-3.456 3.456c-.705.705-1.839.88-2.649.299-1.031-.739-1.117-2.19-.259-3.048l.033-.032c.293-.293.293-.768 0-1.061-.293-.293-.768-.293-1.061 0l-.033.033c-1.411 1.411-1.365 3.726.137 5.079" fill-opacity=".75"/><path d="m9.305 4.6026c-1.408-1.268-3.61-1.074-4.95.266l-2.97 2.97c-1.632 1.632-1.827 3.834-.558 5.242 1.352 1.502 3.668 1.548 5.079.137l.097-.097c.293-.293.293-.767 0-1.06-.293-.293-.768-.293-1.061 0l-.017.017c-.705.704-1.839.879-2.649.299-1.031-.739-1.117-2.19-.259-3.048l3.456-3.456c.705-.705 1.839-.88 2.649-.299 1.031.739 1.117 2.19.259 3.048l-.033.032c-.293.293-.293.768 0 1.061.293.293.768.293 1.061 0l.033-.033c1.411-1.411 1.365-3.726-.137-5.079"/></g></svg>