<svg height="16" viewBox="0 0 16 16" width="16" xmlns="http://www.w3.org/2000/svg"><path d="m5.77758226 8.57138037c.35786086 1.24013338.5640404 1.97655563.61853862 2.20926663.10430151.4453744.19284848.8789869.26069184 1.2909322.10949091.6648293.16119606 1.2472117.14104774 1.7331145-.02834832.6836562-.191768 1.1992881-.60185887 1.5180757-.49109109.3817538-1.05835867.3866919-1.561898.0828328-.31102705-.1876882-.5684673-.4598946-.87118605-.8631925l-.00620163-.0082546-.006733.0078877c-.21120498.24233-.52113416.4002765-.93272408.4475018l-.0203241.0022332c-.51932976.0565807-1.01940486-.2408112-1.35117117-.7161554-.31952816-.4578099-.46546719-1.0522135-.3846495-1.6718158.18994471-1.4562428 1.5289184-2.78267209 4.02778527-3.76241183zm5.87452824.77404169c.6940146-.00116272 1.2956233.04202576 1.786532.14156026.6936221.14063578 1.1894907.38949523 1.4397182.85827588l.0079817.0150782c.2788697.5335053.1952657 1.0796948-.1713726 1.5183352-.221802.2653607-.51468.4701698-.9241551.6876469l-.0540748.0284444-.0453307.0231569c.2093919.2511115.3159383.5812269.2954482 1.0030555l-.0011515.0215279c-.0322952.5207608-.4093167.9633838-.9331798 1.2107116-.5049715.2384086-1.1153811.2828903-1.7127023.0995947-1.40386687-.4307944-2.48750334-1.9728086-3.03573928-4.6008041l-.15102255-.72393391c.88338905-.10949554 1.38965829-.17017413 1.51880773-.18203576l.09028924-.00814101c.64265866-.05687223 1.28549366-.09141551 1.88995156-.09247266zm-2.00860667-9.13029428c.52375697-.322312 1.08305417-.27088833 1.54855817.07695643.2896566.2164439.5176698.51282183.773035.93984392l.0164413.02787401.0099408-.00926332c.2337825-.21621282.5564009-.33996803.973194-.34403314l.0212741-.00010342c.5219377 0 .9866196.34969335 1.2653113.85791234.2684575.48955608.3500358 1.09613651.2036911 1.70346718-.3441433 1.42819456-1.8169283 2.60355887-4.4061851 3.30923746l-.71326474.19439387-.14137975-.72563581c-.10076563-.59509211-.16403394-.9857919-.18980494-1.17209937-.07661742-.55389381-.13427068-1.09823892-.16521206-1.61170708-.04132139-.6857229-.03314312-1.28237586.03740089-1.77317378.09951618-.69236683.31785908-1.19727492.76699993-1.47366929zm-7.87918923.57689589c.48955608-.26845751 1.09613651-.35003583 1.70346718-.20369109 1.42819456.34414327 2.60355887 1.81692834 3.30923746 4.4061851l.19439387.71326475c-1.07884932.19501879-1.71142771.30541369-1.89773518.33118469-.55389381.07661742-1.09823892.13427068-1.61170708.16521206-.6857229.04132139-1.28237586.03314312-1.77317378-.03740089-.69236683-.09951618-1.19727492-.31785908-1.47366929-.76699993-.322312-.523757-.27088833-1.08305414.07695643-1.54855822.2164439-.28965657.51282183-.51766977.93984392-.77303496l.02882433-.0170261-.01059563-.01131723c-.21594047-.23350742-.33958959-.55538756-.34365124-.97127881l-.00010333-.02122806c0-.52193768.34969335-.98661964.85791234-1.26531131z" fill="#ea8" fill-rule="evenodd"/></svg>