<svg height="16" viewBox="0 0 16 16" width="16" xmlns="http://www.w3.org/2000/svg"><path d="m7.9883 6c-1.097 0-1.988.893-1.988 1.989 0 .967.747 2.011 1.955 2.011 1.034 0 1.247-.225 1.299-.639.051-.414.213-2.085.306-2.926-.356-.196-.926-.435-1.572-.435m.012 9c-3.86 0-7-3.141-7-7s3.14-7 7-7c3.859 0 7 2.915 7 6.499 0 1.882-.73 3.353-2.001 4.035-.933.5-2.002.484-2.79-.039-.1-.066-.193-.139-.279-.217-.443.285-1.071.472-1.975.472-2.043 0-3.705-1.688-3.705-3.761 0-2.061 1.676-3.739 3.738-3.739 1.717 0 3.007 1.025 3.062 1.069l.382.309s-.36 3.274-.432 3.87c-.073.596.766.713 1.171.494.685-.368 1.079-1.276 1.079-2.493 0-2.618-2.356-4.749-5.25-4.749-2.895 0-5.25 2.355-5.25 5.25s2.355 5.25 5.25 5.25c1.028 0 1.966-.292 2.787-.867l1.004 1.433c-1.12.786-2.397 1.184-3.791 1.184" fill-rule="evenodd"/></svg>