<svg height="16" viewBox="0 0 16 16" width="16" xmlns="http://www.w3.org/2000/svg"><path d="m9.5 12.5c-1.122 0-2.09-.626-2.604-1.54 2.164-.192 3.872-1.9 4.064-4.064.914.514 1.54 1.482 1.54 2.604 0 1.654-1.346 3-3 3m0-6c0 1.654-1.346 3-3 3 0-1.654 1.346-3 3-3m-6 0c0-1.654 1.346-3 3-3 1.122 0 2.09.626 2.604 1.54-2.164.192-3.872 1.9-4.064 4.064-.914-.514-1.54-1.482-1.54-2.604m7.29-1.29c-.558-1.852-2.256-3.21-4.29-3.21-2.485 0-4.5 2.015-4.5 4.5 0 2.034 1.358 3.732 3.21 4.29.558 1.852 2.256 3.21 4.29 3.21 2.485 0 4.5-2.015 4.5-4.5 0-2.034-1.358-3.732-3.21-4.29" fill-rule="evenodd"/></svg>