<?xml version="1.0" encoding="UTF-8"?>
<svg width="16px" height="16px" viewBox="0 0 16 16" version="1.1" xmlns="http://www.w3.org/2000/svg" xmlns:xlink="http://www.w3.org/1999/xlink">
    <g id="Icon/Blog" stroke="none" stroke-width="1" fill="#000000" fill-rule="evenodd">
        <path d="M3.5,14 C4.32842712,14 5,13.3284271 5,12.5 C5,11.6715729 4.32842712,11 3.5,11 C2.67157288,11 2,11.6715729 2,12.5 C2,13.3284271 2.67157288,14 3.5,14 Z M2,2 L2,4.18251928 C7.42159383,4.18251928 11.8174807,8.57840617 11.8174807,14 L14,14 C14,7.37532134 8.62467866,2 2,2 Z M2,6 L2,8.28686869 C5.15151515,8.28686869 7.71313131,10.8484848 7.71313131,14 L10,14 C10,9.57979798 6.42020202,6 2,6 Z" id="Shape"></path>
    </g>
</svg>
