<svg height="16" viewBox="0 0 16 16" width="16" xmlns="http://www.w3.org/2000/svg"><g fill="none" fill-rule="evenodd" transform="translate(1)"><path d="m0 4.85934812v4.20491034l4.77760769 2.31782074 4.88597308-5.2875035-3.20344231-6.00350345c-.10330384.03583449-.20399615.08215173-.30048846.13911725l-5.31927308 3.14063448c-.52001923.30703448-.84037692.87445517-.84037692 1.48852414" fill="#57b7dd"/><path d="m4.77761577 11.3820847 5.76067693 2.7947586 2.6142846-1.5435862-3.48901538-6.53867588z" fill="#f99132"/><path d="m12.5261069 2.99676605-4.68574613-2.76656552c-.4235-.25006896-.92701539-.29633103-1.38023846-.13911724l3.20344231 6.00350345z" fill="#a98bbc"/><path d="m13.1525665 12.6332709.0070808-.0041655c.5200192-.3070345.84035-.8744552.84035-1.4884966v-6.28126896c0-.61404138-.3203308-1.18148965-.84035-1.48852414l-.6335538-.37404138-2.86251542 3.09782069z" fill="#ff6d56"/><path d="m0 9.06425019v2.07635861c0 .6140414.32035769 1.1814621.84037692 1.4884966l1.80185385 1.063862 2.13537692-2.3108965z" fill="#8ac539"/><path d="m2.64224154 13.6929674 3.51741923 2.0767724c.51999231.3070069 1.16068077.3070069 1.6807 0l2.69790773-1.5929103-5.76065004-2.7947586z" fill="#ffbe0a"/></g></svg>