<svg xmlns="http://www.w3.org/2000/svg" width="16" height="16" viewBox="0 0 16 16">
  <g fill="#000000" fill-rule="evenodd">
    <polygon points="2 5 2 14 3 14 4 14 11 14 11 12 4 12 4 5"/>
    <path d="M14,9 L14,11 L12,11 L12,10 L13,10 L13,9 L14,9 Z M6,9 L6,10 L7,10 L7,11 L5,11 L5,9 L6,9 Z M11,10 L11,11 L8,11 L8,10 L11,10 Z M6,5 L6,8 L5,8 L5,5 L6,5 Z M14,5 L14,8 L13,8 L13,5 L14,5 Z M7,2 L7,3 L6,3 L6,4 L5,4 L5,2 L7,2 Z M14,2 L14,4 L13,4 L13,3 L12,3 L12,2 L14,2 Z M11,2 L11,3 L8,3 L8,2 L11,2 Z" transform="matrix(1 0 0 -1 0 13)"/>
  </g>
</svg>
