<svg height="16" viewBox="0 0 16 16" width="16" xmlns="http://www.w3.org/2000/svg"><path d="m12.2575 5.3125c.175.055.366.008.495-.122l1.56-1.559c.091.286.153.586.153.903 0 1.657-1.343 3-3 3-.316 0-.616-.063-.902-.154l-3.204 3.204c.078.268.133.546.133.839 0 1.658-1.342 3-3 3-.316 0-.616-.062-.902-.153l1.566-1.566c.125-.126.174-.31.126-.481l-.257-.927c-.045-.16-.168-.287-.327-.337l-.998-.313c-.174-.056-.366-.009-.495.121l-1.559 1.559c-.091-.286-.154-.586-.154-.903 0-1.657 1.343-3 3-3 .34 0 .661.07.966.173l3.16-3.159c-.09-.287-.153-.586-.153-.903 0-1.657 1.343-3 3-3 .316 0 .616.062.902.153l-1.566 1.567c-.126.125-.174.309-.126.48l.258.927c.045.161.168.288.326.338z" fill-rule="evenodd"/></svg>