<svg height="16" viewBox="0 0 16 16" width="16" xmlns="http://www.w3.org/2000/svg"><g fill="none"><path d="m15.1111111 0h-14.22222221c-.49091978 0-.88888889.39796911-.88888889.88888889v14.22222221c0 .4909198.39796911.8888889.88888889.8888889h7.65777778v-6.18666667h-2.07777778v-2.42222222h2.07777778v-1.77777778c0-2.06666666 1.26222222-3.19333333 3.11111113-3.19333333.6220113-.00181779 1.2436639.03008085 1.8622222.09555556v2.15111111h-1.2755556c-1.0022222 0-1.1977777.47777777-1.1977777 1.17777777v1.54222223h2.3977777l-.3111111 2.42222222h-2.0866666v6.19111111h4.0644444c.4909198 0 .8888889-.3979691.8888889-.8888889v-14.22222221c0-.49091978-.3979691-.88888889-.8888889-.88888889z" fill="#4267b2"/><path d="m11.0466667 16v-6.18666667h2.0866666l.3111111-2.42222222h-2.3977777v-1.54222222c0-.7.1955555-1.17777778 1.1977777-1.17777778h1.2711112v-2.16c-.6185584-.0654747-1.240211-.09737335-1.8622223-.09555555-1.84444441 0-3.11111108 1.12666666-3.11111108 3.19333333v1.77777778h-2.07333333v2.42222222h2.07777778v6.19111111z" fill="#fff"/></g></svg>