<svg height="16" viewBox="0 0 16 16" width="16" xmlns="http://www.w3.org/2000/svg"><path d="m15.1111111 0h-14.22222221c-.49091978 0-.88888889.39796911-.88888889.88888889v14.22222221c0 .4909198.39796911.8888889.88888889.8888889h7.65777778v-6.18666667h-2.07777778v-2.42222222h2.07777778v-1.77777778c0-2.06666666 1.26222222-3.19333333 3.11111113-3.19333333.6220113-.00181779 1.2436639.03008085 1.8622222.09555556v2.15111111h-1.2755556c-1.0022222 0-1.1977777.47777777-1.1977777 1.17777777v1.54222223h2.3977777l-.3111111 2.42222222h-2.0866666v6.19111111h4.0644444c.4909198 0 .8888889-.3979691.8888889-.8888889v-14.22222221c0-.49091978-.3979691-.88888889-.8888889-.88888889z"/></svg>