<?xml version="1.0" encoding="UTF-8"?>
<svg width="16px" height="16px" viewBox="0 0 16 16" version="1.1" xmlns="http://www.w3.org/2000/svg" xmlns:xlink="http://www.w3.org/1999/xlink">
    <!-- Generator: Sketch 51.3 (57544) - http://www.bohemiancoding.com/sketch -->
    <title>format-underline</title>
    <g id="format-underline" stroke="none" stroke-width="1" fill="none" fill-rule="evenodd">
        <g transform="translate(4.000000, 3.000000)" fill="#000000">
            <path d="M8,0 L8,6.49728997 C8,7.5767895 7.64277538,8.4304395 6.92831541,9.05826558 C6.21385545,9.68609167 5.23776007,10 4,10 C2.78135591,10 1.81362366,9.695125 1.09677419,9.08536585 C0.379924731,8.47560671 0.0143369892,7.63776504 0,6.57181572 L0,0 L2.15053763,0 L2.15053763,6.51084011 C2.15053763,7.15673313 2.31421581,7.62759563 2.64157706,7.92344173 C2.96893832,8.21928784 3.42174143,8.36720867 4,8.36720867 C5.20908609,8.36720867 5.82317792,7.76649201 5.84229391,6.56504065 L5.84229391,0 L8,0 Z M0,11.5 L8,11.5 L8,13 L0,13 L0,11.5 Z"></path>
        </g>
    </g>
</svg>
