<svg height="16" viewBox="0 0 16 16" width="16" xmlns="http://www.w3.org/2000/svg"><path d="m6.40243902 7.93956044h-3.56368563l-.67750678 2.06043956h-2.16124661l3.67208672-10h1.88346884l3.69241192 10h-2.16124661zm-3.01490514-1.75392358 1.22628726-3.69241193 1.2398374 3.69241193zm10.49167632 3.67886178c-.0903347-.17615264-.1558263-.39521097-.1964769-.65718157-.4742572.52845793-1.0907822.79268293-1.8495935.79268293-.7181608 0-1.3132316-.20776667-1.7852304-.62330623-.47199874-.41553957-.70799457-.9394729-.70799457-1.57181572 0-.77687832.2879375-1.37307832.86382117-1.78861789.5758836-.41553956 1.4080794-.62556456 2.4966124-.6300813h.901084v-.4200542c0-.33875508-.0869458-.60975508-.2608401-.81300813-.1738942-.20325305-.4482817-.30487805-.8231707-.30487805-.3297216 0-.5883008.07904167-.7757453.23712737-.1874444.15808571-.2811653.37488571-.2811653.65040651h-1.95799455c0-.42457304.13098334-.81752304.39295393-1.17886179.26197062-.36133875.63233722-.64475959 1.11111112-.850271.4787738-.20551142 1.0162572-.30826559 1.6124661-.30826559.9033469 0 1.6203677.2269625 2.151084.68089431s.7960705 1.09191098.7960705 1.91395664v3.17750678c.0045167.6955771.1016251 1.22176876.2913279 1.57859078v.11517615zm-1.6192412-1.36178861c.289071 0 .5555544-.0643625.799458-.19308943.2439037-.12872693.4245703-.30148943.5420054-.51829269v-1.2601626h-.7317073c-.9801313 0-1.5018063.33875-1.5650406 1.01626016l-.0067751.11517616c0 .24390365.0858167.44489532.2574526.60298103.1716359.1580857.4065026.23712737.704607.23712737z" fill-rule="evenodd" transform="translate(0 3)"/></svg>