<svg height="16" viewBox="0 0 16 16" width="16" xmlns="http://www.w3.org/2000/svg"><path d="m0 10v-10h3.77079482c1.30622958 0 2.29697753.23236947 2.97227357.69711539.67529605.46474591 1.012939 1.14582884 1.012939 2.04326923 0 .48992918-.13555009.92147249-.40665434 1.29464285-.27110425.37317037-.64817996.64674822-1.13123845.82074176.55206684.12820577.98705941.38690282 1.30499076.7760989.31793135.38919609.47689464.8653818.47689464 1.42857143 0 .96154327-.33024932 1.68955797-.99075786 2.18406593-.66050854.49450797-1.60196554.74633696-2.82439926.75549451zm2.2181146-4.3543956v2.69917582h1.90018485c.52249183 0 .93037438-.1156124 1.22365988-.34684066.29328551-.23122826.43992607-.5505932.43992607-.9581044 0-.91575549-.51016126-1.38049443-1.53049908-1.39423076zm0-1.45604396h1.64140481c1.11892118-.01831511 1.67837338-.43268826 1.67837338-1.24313187 0-.45329897-.14171146-.77953197-.42513863-.97870879s-.73074248-.29876374-1.34195934-.29876374h-1.55268022z" fill-rule="evenodd" transform="translate(4 3)"/></svg>