<svg height="16" viewBox="0 0 16 16" width="16" xmlns="http://www.w3.org/2000/svg"><path d="m12.3365106 7c-.0406134-.94477912-.1583092-1.8373494-.3365106-2.65863454.3754662-.09839357.7277248-.2128514 1.0509739-.34136546.5072524.8684739.8429341 1.89156627.9490261 3zm-.3365106 4.6586345c.1782014-.8212851.2958972-1.71385538.3365106-2.6586345h1.6634894c-.106092 1.1084337-.4417737 2.1315261-.9490261 3-.3232491-.1285141-.6755077-.2429719-1.0509739-.3413655zm-.600388 1.3413655c.2114452.045.4122212.091.600388.141-.3094083.268-.6440349.506-1 .709.1445199-.264.2764306-.551.399612-.85zm-6.79922403 0c.12318138.299.25509215.586.39961203.85-.35499515-.203-.68962173-.441-1-.709.18816683-.05.38991271-.096.60038797-.141zm-.93772738-4c.04061334.94477912.159138 1.8373494.33733941 2.6586345-.37546622.0983936-.72855367.2128514-1.05180274.3413655-.50642353-.8684739-.8429341-1.8915663-.94819726-3zm.33733941-4.65863454c-.17820141.82128514-.29672607 1.71385542-.33733941 2.65863454h-1.66266059c.10526316-1.10843373.44177373-2.1315261.94819726-3 .32324907.12851406.67633652.24297189 1.05180274.34136546zm.60038797-1.49136546c-.21047526-.045-.41222114-.091-.60038797-.141.31037827-.268.64500485-.506 1-.709-.14451988.264-.27643065.551-.39961203.85zm6.39961203-.85c.3559651.203.6905917.441 1 .709-.1881668.05-.3889428.096-.600388.141-.1231814-.299-.2550921-.586-.399612-.85zm-2 2v-2c.36236162.34232251.71217712.99944964 1 1.89543203-.31143911.05173363-.64501845.08585581-1 .10456797zm0 3v-1.87297634c.5770751-.01909506 1.1330698-.0622665 1.6609574-.12702366.1747914.60024907.2942468 1.27438771.3390426 2zm0 3.8729763v-1.8729763h2c-.0447958.72561229-.1642512 1.3997509-.3390426 2-.5278876-.0647572-1.0838823-.1079286-1.6609574-.1270237zm0 1.1270237c.35498155.0187225.68856089.0528634 1 .1046256-.28782288.8964757-.63763838 1.5539647-1 1.8953744zm-2 0v2c-.3620944-.3414097-.71238938-.9988987-1-1.8953744.31120944-.0517622.64454277-.0859031 1-.1046256zm0-3v1.8729763c-.57795345.0190951-1.13306983.0622665-1.66183575.1270237-.17391304-.6002491-.29336847-1.27438771-.33816425-2zm0-3.87297634v1.87297634h-2c.04479578-.72561229.16425121-1.39975093.33816425-2 .52788757.06475716 1.0838823.1079286 1.66183575.12702366zm0-1.12702366c-.35545723-.01871216-.68879056-.05283434-1-.10456797.28761062-.89598239.6379056-1.55310952 1-1.89543203zm1-4c-4.419 0-8 3.582-8 8s3.581 8 8 8c4.418 0 8-3.582 8-8s-3.582-8-8-8z" fill-rule="evenodd"/></svg>