<?xml version="1.0" encoding="UTF-8"?>
<svg width="16px" height="16px" viewBox="0 0 16 16" version="1.1" xmlns="http://www.w3.org/2000/svg" xmlns:xlink="http://www.w3.org/1999/xlink">
    <g id="Symbols/Social-Icons/Mono/Misc" stroke="none" stroke-width="1" fill="#000000" fill-rule="evenodd">
        <path d="M12.3365106,7 C12.2958972,6.05522088 12.1782014,5.1626506 12,4.34136546 C12.3754662,4.24297189 12.7277248,4.12851406 13.0509739,4 C13.5582263,4.8684739 13.893908,5.89156627 14,7 L12.3365106,7 Z M12,11.6586345 C12.1782014,10.8373494 12.2958972,9.94477912 12.3365106,9 L14,9 C13.893908,10.1084337 13.5582263,11.1315261 13.0509739,12 C12.7277248,11.8714859 12.3754662,11.7570281 12,11.6586345 L12,11.6586345 Z M11.399612,13 C11.6110572,13.045 11.8118332,13.091 12,13.141 C11.6905917,13.409 11.3559651,13.647 11,13.85 C11.1445199,13.586 11.2764306,13.299 11.399612,13 L11.399612,13 Z M4.60038797,13 C4.72356935,13.299 4.85548012,13.586 5,13.85 C4.64500485,13.647 4.31037827,13.409 4,13.141 C4.18816683,13.091 4.38991271,13.045 4.60038797,13 L4.60038797,13 Z M3.66266059,9 C3.70327393,9.94477912 3.82179859,10.8373494 4,11.6586345 C3.62453378,11.7570281 3.27144633,11.8714859 2.94819726,12 C2.44177373,11.1315261 2.10526316,10.1084337 2,9 L3.66266059,9 Z M4,4.34136546 C3.82179859,5.1626506 3.70327393,6.05522088 3.66266059,7 L2,7 C2.10526316,5.89156627 2.44177373,4.8684739 2.94819726,4 C3.27144633,4.12851406 3.62453378,4.24297189 4,4.34136546 L4,4.34136546 Z M4.60038797,2.85 C4.38991271,2.805 4.18816683,2.759 4,2.709 C4.31037827,2.441 4.64500485,2.203 5,2 C4.85548012,2.264 4.72356935,2.551 4.60038797,2.85 L4.60038797,2.85 Z M11,2 C11.3559651,2.203 11.6905917,2.441 12,2.709 C11.8118332,2.759 11.6110572,2.805 11.399612,2.85 C11.2764306,2.551 11.1445199,2.264 11,2 L11,2 Z M9,4 L9,2 C9.36236162,2.34232251 9.71217712,2.99944964 10,3.89543203 C9.68856089,3.94716566 9.35498155,3.98128784 9,4 L9,4 Z M9,7 L9,5.12702366 C9.5770751,5.1079286 10.1330698,5.06475716 10.6609574,5 C10.8357488,5.60024907 10.9552042,6.27438771 11,7 L9,7 Z M9,10.8729763 L9,9 L11,9 C10.9552042,9.72561229 10.8357488,10.3997509 10.6609574,11 C10.1330698,10.9352428 9.5770751,10.8920714 9,10.8729763 L9,10.8729763 Z M9,12 C9.35498155,12.0187225 9.68856089,12.0528634 10,12.1046256 C9.71217712,13.0011013 9.36236162,13.6585903 9,14 L9,12 Z M7,12 L7,14 C6.6379056,13.6585903 6.28761062,13.0011013 6,12.1046256 C6.31120944,12.0528634 6.64454277,12.0187225 7,12 L7,12 Z M7,9 L7,10.8729763 C6.42204655,10.8920714 5.86693017,10.9352428 5.33816425,11 C5.16425121,10.3997509 5.04479578,9.72561229 5,9 L7,9 Z M7,5.12702366 L7,7 L5,7 C5.04479578,6.27438771 5.16425121,5.60024907 5.33816425,5 C5.86605182,5.06475716 6.42204655,5.1079286 7,5.12702366 L7,5.12702366 Z M7,4 C6.64454277,3.98128784 6.31120944,3.94716566 6,3.89543203 C6.28761062,2.99944964 6.6379056,2.34232251 7,2 L7,4 Z M8,0 C3.581,0 0,3.582 0,8 C0,12.418 3.581,16 8,16 C12.418,16 16,12.418 16,8 C16,3.582 12.418,0 8,0 L8,0 Z" id="3D-Globe" ></path>
    </g>
</svg>
