<svg height="16" viewBox="0 0 16 16" width="16" xmlns="http://www.w3.org/2000/svg"><path d="m1 11h2v.1666667c0 .4602373.37309604.8333333.83333333.8333333h8.33333337c.4602373 0 .8333333-.373096.8333333-.8333333v-6.33333337c0-.46023729-.373096-.83333333-.8333333-.83333333h-8.33333337c-.46023729 0-.83333333.37309604-.83333333.83333333v.16666667h-2v-1c0-1.1045695.8954305-2 2-2h10c1.1045695 0 2 .8954305 2 2v8c0 1.1045695-.8954305 2-2 2h-10c-1.1045695 0-2-.8954305-2-2zm6-2h-6v-2h6v-2l3 3.0131956-3 2.9868044z" fill-rule="evenodd"/></svg>