<svg height="16" viewBox="0 0 16 16" width="16" xmlns="http://www.w3.org/2000/svg"><path d="m11.2983898.04814217c.8515067.03883765 1.4330552.17408667 1.9419142.37186335.5260707.20441369.9722115.47796031 1.4169867.92270379.4447435.44477523.7182901.89091598.9227355 1.41698671.197745.50885894.332994 1.09040748.3718316 1.94191421.0340663.74662443.0453754 1.04853565.0476704 2.56787695v1.46104693c-.002295 1.51932009-.0136041 1.82123119-.0476704 2.56785569-.0388376.8515067-.1740866 1.4330552-.3718316 1.9419142-.2044454.5260707-.477992.9722115-.9227355 1.4169867-.4447752.4447435-.890916.7182901-1.4169867.9227355-.508859.197745-1.0904075.332994-1.9419142.3718316-.7466245.0340663-1.0485356.0453754-2.56785569.0476704h-1.46104693c-1.5193413-.002295-1.82125252-.0136041-2.56787695-.0476704-.85150673-.0388376-1.43305527-.1740866-1.94191421-.3718316-.52607073-.2044454-.97221148-.477992-1.41698671-.9227355-.44474348-.4447752-.7182901-.890916-.92270379-1.4169867-.19777668-.508859-.3330257-1.0904075-.37186335-1.9419142-.03193182-.6998435-.0438689-1.0089563-.04712948-2.29619847v-2.00436512c.00326058-1.2872597.01519766-1.59637253.04712948-2.29621598.03883765-.85150673.17408667-1.43305527.37186335-1.94191421.20441369-.52607073.47796031-.97221148.92270379-1.41698671.44477523-.44474348.89091598-.7182901 1.41698671-.92270379.50885894-.19777668 1.09040748-.3330257 1.94191421-.37186335.69984345-.03193182 1.00895628-.0438689 2.29621598-.04712948h2.00436512c1.28724217.00326058 1.59635497.01519766 2.29619847.04712948zm-2.1261506 1.39474903-2.09480391-.0006696c-1.3142697.00278012-1.6071487.01379329-2.31012179.0458669-.7799921.03556678-1.20358605.16589361-1.48548451.27545198-.37341939.14512515-.63991616.31848143-.91984575.59844276-.27996133.27992959-.45331761.54642636-.59844276.91984575-.10955837.28189846-.2398852.70549241-.27545198 1.48548451-.02993537.65610822-.04152475.95497891-.0451973 2.06046225l-.0006696 2.09480734c.00278012 1.31425131.01379329 1.60713031.0458669 2.31010341.03556678.7799921.16589361 1.2035861.27545198 1.4854845.14512515.3734194.31851318.6399162.59844276.9198458.27992959.2799613.54642636.4533176.91984575.5984427.28189846.1095584.70549241.2398852 1.48548451.275452.77318307.0352809 1.05017897.0450788 2.73644074.0464667l.75366079.0001388c1.90093877-.0006887 2.16697417-.0097209 2.97527147-.0466055.7799921-.0355668 1.2035861-.1658936 1.4854845-.275452.3734194-.1451251.6399162-.3184814.9198458-.5984427.2799613-.2799296.4533176-.5464264.5984427-.9198458.1095584-.2818984.2398852-.7054924.275452-1.4854845.0352809-.7732704.0450788-1.0503269.0464667-2.73645144l.0001388-.75360327c-.0006887-1.90082962-.0097209-2.16689923-.0466055-2.97531829-.0355668-.7799921-.1658936-1.20358605-.275452-1.48548451-.1451251-.37341939-.3184814-.63991616-.5984427-.91984575-.2799296-.27996133-.5464264-.45331761-.9198458-.59844276-.2818984-.10955837-.7054924-.2398852-1.4854845-.27545198-.6561082-.02993537-.9549789-.04152475-2.0604473-.0451973zm-1.1107672 2.4789008c2.286272 0 4.139648 1.853376 4.139648 4.13968 0 2.286272-1.853376 4.139648-4.139648 4.139648-2.286304 0-4.13968-1.853376-4.13968-4.139648 0-2.286304 1.853376-4.13968 4.13968-4.13968zm0 1.452512c-1.484096 0-2.687168 1.203072-2.687168 2.687168 0 1.484064 1.203072 2.687136 2.687168 2.687136 1.484064 0 2.687136-1.203072 2.687136-2.687136 0-1.484096-1.203072-2.687168-2.687136-2.687168zm4.3032-2.583456c.534272 0 .967392.43312.967392.967392s-.43312.96736-.967392.96736c-.53424 0-.96736-.433088-.96736-.96736s.43312-.967392.96736-.967392z" fill-rule="evenodd"/></svg>