<svg height="16" viewBox="0 0 16 16" width="16" xmlns="http://www.w3.org/2000/svg" xmlns:xlink="http://www.w3.org/1999/xlink"><defs><path id="a" d="m8.00001588 0c-2.17268543 0-2.44512059.00920925-3.29840565.04814217-.85150673.03883765-1.43305527.17408667-1.94191421.37186335-.52607073.20441369-.97221148.47796031-1.41698671.92270379-.44474348.44477523-.7182901.89091598-.92270379 1.41698671-.19777668.50885894-.3330257 1.09040748-.37186335 1.94191421-.03893292.85328506-.04814217 1.12572022-.04814217 3.29840565 0 2.17265372.00920925 2.44508882.04814217 3.29837392.03883765.8515067.17408667 1.4330552.37186335 1.9419142.20441369.5260707.47796031.9722115.92270379 1.4169867.44477523.4447435.89091598.7182901 1.41698671.9227355.50885894.197745 1.09040748.332994 1.94191421.3718316.85328506.0389329 1.12572022.0481422 3.29840565.0481422 2.17265372 0 2.44508882-.0092093 3.29837392-.0481422.8515067-.0388376 1.4330552-.1740866 1.9419142-.3718316.5260707-.2044454.9722115-.477992 1.4169867-.9227355.4447435-.4447752.7182901-.890916.9227355-1.4169867.197745-.508859.332994-1.0904075.3718316-1.9419142.0389329-.8532851.0481422-1.1257202.0481422-3.29837392 0-2.17268543-.0092093-2.44512059-.0481422-3.29840565-.0388376-.85150673-.1740866-1.43305527-.3718316-1.94191421-.2044454-.52607073-.477992-.97221148-.9227355-1.41698671-.4447752-.44474348-.890916-.7182901-1.4169867-.92270379-.508859-.19777668-1.0904075-.3330257-1.9419142-.37186335-.8532851-.03893292-1.1257202-.04814217-3.29837392-.04814217zm0 1.44143887c2.13607072 0 2.38910292.0081613 3.23267062.04664963.7799921.03556678 1.2035861.16589361 1.4854845.27545198.3734194.14512515.6399162.31848143.9198458.59844276.2799613.27992959.4533176.54642636.5984427.91984575.1095584.28189846.2398852.70549241.275452 1.48548451.0384883.84356771.0466496 1.09659992.0466496 3.23270238 0 2.13607072-.0081613 2.38910292-.0466496 3.23267062-.0355668.7799921-.1658936 1.2035861-.275452 1.4854845-.1451251.3734194-.3184814.6399162-.5984427.9198458-.2799296.2799613-.5464264.4533176-.9198458.5984427-.2818984.1095584-.7054924.2398852-1.4854845.275452-.8434407.0384883-1.0964411.0466496-3.23267062.0466496-2.13626124 0-2.38922994-.0081613-3.23270238-.0466496-.7799921-.0355668-1.20358605-.1658936-1.48548451-.275452-.37341939-.1451251-.63991616-.3184814-.91984575-.5984427-.27992958-.2799296-.45331761-.5464264-.59844276-.9198458-.10955837-.2818984-.2398852-.7054924-.27545198-1.4854845-.03848833-.8435677-.04664963-1.0965999-.04664963-3.23267062 0-2.13610246.0081613-2.38913467.04664963-3.23270238.03556678-.7799921.16589361-1.20358605.27545198-1.48548451.14512515-.37341939.31848143-.63991616.59844276-.91984575.27992959-.27996133.54642636-.45331761.91984575-.59844276.28189846-.10955837.70549241-.2398852 1.48548451-.27545198.84356771-.03848833 1.09659992-.04664963 3.23270238-.04664963zm.06145612 9.30716913c-1.484096 0-2.687168-1.203072-2.687168-2.687136 0-1.484096 1.203072-2.687168 2.687168-2.687168 1.484064 0 2.687136 1.203072 2.687136 2.687168 0 1.484064-1.203072 2.687136-2.687136 2.687136zm0-6.826816c-2.286304 0-4.13968 1.853376-4.13968 4.13968 0 2.286272 1.853376 4.139648 4.13968 4.139648 2.286272 0 4.139648-1.853376 4.139648-4.139648 0-2.286304-1.853376-4.13968-4.139648-4.13968zm5.270592-.163552c0 .534272-.43312.96736-.967392.96736-.53424 0-.96736-.433088-.96736-.96736s.43312-.967392.96736-.967392c.534272 0 .967392.43312.967392.967392"/><radialGradient id="b" cx="25.155787%" cy="100%" gradientTransform="matrix(.7539893 -.6568867 .61452868 .70536981 -.552643 .459875)" r="131.97115%"><stop offset="0" stop-color="#fed170"/><stop offset=".132947977" stop-color="#f9a562"/><stop offset=".382270592" stop-color="#f05048"/><stop offset=".734233403" stop-color="#ce2f88"/><stop offset="1" stop-color="#ac32ae"/></radialGradient><radialGradient id="c" cx="4.815699%" cy="0%" gradientTransform="matrix(.97886074 .2045279 -.08518526 .40769256 .001018 -.009849)" r="158.036846%"><stop offset="0" stop-color="#4056ba"/><stop offset=".228975418" stop-color="#7040ba" stop-opacity=".892256"/><stop offset=".461668918" stop-color="#7040ba" stop-opacity=".47873"/><stop offset="1" stop-color="#e4644a" stop-opacity="0"/></radialGradient><path id="d" d="m0 0h16v16h-16z"/><mask id="e" fill="#fff"><use fill="#fff" fill-rule="evenodd" xlink:href="#a"/></mask></defs><g fill="none" fill-rule="evenodd"><use fill="#0a0b09" xlink:href="#a"/><g mask="url(#e)"><use fill="url(#b)" xlink:href="#d"/><use fill="url(#c)" xlink:href="#d"/></g></g></svg>
