<svg height="16" viewBox="0 0 16 16" width="16" xmlns="http://www.w3.org/2000/svg"><path d="m11.5005 9.8676c.001-.551.448-.998 1-.998.26 0 .492.106.67.268.221.238.51.362.83.362.69 0 1.25-.671 1.25-1.5 0-.828-.56-1.5-1.25-1.5-.32 0-.609.127-.83.365-.178.162-.41.268-.67.268-.553 0-1-.448-1-1v-3.133l-9.5005.0004v3.133c0 .552.447 1 1 1 .26 0 .492-.084.67-.247.221-.237.51-.386.83-.386.69 0 1.25.672 1.25 1.5 0 .829-.56 1.5-1.25 1.5-.32 0-.609-.148-.83-.385-.178-.163.0905-.2454-.1695-.2454-.552 0-1.4995.4474-1.5005.9984v3.132l9.5005-.0004z" fill-rule="evenodd"/></svg>