<svg height="16" viewBox="0 0 16 16" width="16" xmlns="http://www.w3.org/2000/svg"><path d="m9.1784061 2.26295458c-5.72498085 2.74197415-5.69693729 11.41441322-2.34262284 13.73704542l-.1443657-.104778c-.58685797-.0961136-1.15245562-.2565669-1.6892992-.4739443-2.74234147-2.8265988-2.16533968-11.26173554 4.17628774-13.15832312zm-1.19412529-2.26295458c4.43174479-.00053284 8.01571919 3.5827894 8.01571919 7.98401492 0 3.94075238-2.8335969 7.21157628-6.57791463 7.88778628-3.9871606-1.3926494-5.70978286-10.62379135.51030881-13.63975111l.22006862.15718662c.8173977.59730918 2.3578779 2.23205009 2.4207546 2.20007993.0937823-.06234182-1.35185-1.57133342-1.949179-2.13720528.7859593.34581058 2.3259066 1.22605568 2.3887834 1.1626482.0314384-.06234182-1.5399474-1.00546157-2.3573451-1.4141468.8483032.1257493 2.3887835.44012255 2.3887835.40868523.0314383-.09484481-1.4147268-.44012255-2.3264396-.6287465.0314384 0 1.7919872-.12574931 1.7919872-.18862396s-1.2889732 0-1.8234255.03143733c.2200686-.09431198 1.100343-.3772479 1.100343-.47155988 0-.09431197-1.5090419.44012255-1.7291105.47155988-1.35184999-1.13174371-2.64029039-1.57186626-3.77207179-1.66617823l.08068829.00773926c.52270775-.10810981 1.06389843-.16492589 1.61804951-.16492589zm1.0049622 2.07433062c-7.07884801 1.42206819-7.94437983 8.85068798-5.98157186 12.17676528-.60145708-.4818374-1.13254612-1.049702-1.57438802-1.6848754-1.23336111-4.0862231.72509644-10.14717116 7.55595988-10.49188988zm-8.54523322 3.38527221c1.42785477-2.75130598 4.45949643-4.58939487 8.45091811-3.66820813-5.75268925-.18862395-8.29866454 3.74050886-8.80167849 7.38670574.1119248.74788546.32672766 1.47424506.63649346 2.15901866-.46817219-1.0203364-.72974287-2.1557996-.72974287-3.35310418 0-.81320314.12236475-1.59849531.34964034-2.33842317zm4.29026587-4.71967732c1.28963062-.22347835 2.71683795-.0890193 4.25496735.76853326-2.6402904-.81737045-4.87241482-.3772479-6.50667732.69162116l.01527363-.0101836c.606361-.57444587 1.30244548-1.05507728 2.06469451-1.41833608z" fill="#a6153e"/></svg>