<svg height="16" viewBox="0 0 16 16" width="16" xmlns="http://www.w3.org/2000/svg"><path d="m12.5327939 9.05501144c.1499918-.03596344.306538-.05501144.4675061-.05501144 1.104 0 2 .896 2 2s-.896 2-2 2-2-.896-2-2c0-.3947417.1145502-.7628914.3122006-1.07299909l-2.844353-3.98209427c-.15009568.03601644-.30675736.05509336-.4678476.05509336-.27689145 0-.54069878-.05636233-.78056751-.15823249l-2.37766498 2.37766498c.10187016.23986873.15823249.50367606.15823249.78056751 0 1.104-.896 2-2 2s-2-.896-2-2 .896-2 2-2c.27699948 0 .54090463.05640632.78084825.15835175l2.3775035-2.3775035c-.10194543-.23994362-.15835175-.50384877-.15835175-.78084825 0-1.104.896-2 2-2s2 .896 2 2c0 .39461613-.11447734.76265716-.31201205 1.07270313z" fill-rule="evenodd"/></svg>