<svg height="16" viewBox="0 0 16 16" width="16" xmlns="http://www.w3.org/2000/svg"><path d="m3.74473893 1.95946483c1.15217674-1.14938888 3.04552986-1.31579295 4.25617527-.22816227 1.29146975 1.16053967 1.33102209 3.14623763.11779718 4.35652697l-.02837451.02830585c-.25193118.2513216-.66035204.2513216-.91228322 0l-.06802142-.07976759c-.18139045-.25147943-.15871665-.6041188.06802142-.83030824l.0283745-.02744809c.73773705-.73595199.66379138-1.98055144-.22269685-2.61443084-.69646504-.49835443-1.6715161-.34824767-2.27769864.25646812l-2.97158419 2.96439402c-.73773705.73595198-.66379138 1.98055144.22269684 2.61443083.69646505.49749668 1.67151611.34738993 2.27769865-.25646811l.01461717-.0145818c.25193118-.2513216.66035204-.2513216.91228322 0l.06802142.07974357c.18139045.25134047.15871665.60328506-.06802142.8294745l-.08340384.08320203c-1.21322491 1.21028932-3.20459903 1.17083272-4.36709377-.11751215-1.09112858-1.20771608-.92346106-3.09648796.47978703-4.49634069zm5.17692056-1.08030861c1.21322491-1.21028934 3.20459901-1.17083271 4.36709381.11751215 1.0911285 1.20771608.923461 3.09648796-.4797871 4.49634069l-2.5537051 2.54752611c-1.15217677 1.14938888-3.04552989 1.31579295-4.2561753.22816227-1.29146975-1.16053967-1.33102209-3.14623763-.11779718-4.35652697l.02837451-.02830585c.25193118-.2513216.66035204-.2513216.91228322 0s.25193118.65875423 0 .91007583l-.0283745.02744809c-.73773705.73595199-.66379138 1.98055144.22269685 2.61443084.69646504.49835443 1.6715161.34824767 2.27769864-.25646812l2.97158416-2.96439402c.7377371-.73595198.6637914-1.98055144-.2226968-2.61443083-.6964651-.49749668-1.6715161-.34738993-2.27769866.25646811l-.01461717.0145818c-.25193118.2513216-.66035204.2513216-.91228322 0-.25193119-.2513216-.25193119-.65789647 0-.90921807z" fill-rule="evenodd" transform="translate(1 3)"/></svg>