<?xml version="1.0" encoding="UTF-8"?>
<svg width="16px" height="16px" viewBox="0 0 16 16" version="1.1" xmlns="http://www.w3.org/2000/svg" xmlns:xlink="http://www.w3.org/1999/xlink">
    <!-- Generator: Sketch 52.5 (67469) - http://www.bohemiancoding.com/sketch -->
    <title>log</title>
    <desc>Created with Sketch.</desc>
    <g id="Page-1" stroke="none" stroke-width="1" fill="none" fill-rule="evenodd">
        <g id="log" transform="translate(1.000000, 1.000000)" fill="#000000">
            <path d="M1,0 L13,0 C13.5522847,-1.01453063e-16 14,0.44771525 14,1 L14,13 C14,13.5522847 13.5522847,14 13,14 L1,14 C0.44771525,14 6.76353751e-17,13.5522847 0,13 L0,1 C-6.76353751e-17,0.44771525 0.44771525,1.01453063e-16 1,0 Z M3,3 L3,5 L11,5 L11,3 L3,3 Z M3,6 L3,8 L11,8 L11,6 L3,6 Z M3,9 L3,11 L8,11 L8,9 L3,9 Z" id="Icon"></path>
        </g>
    </g>
</svg>
