<svg height="16" viewBox="0 0 16 16" width="16" xmlns="http://www.w3.org/2000/svg"><path d="m9.25 2h4.75v4.75h-1.5v-2.25l-5 5-1-1 2.25-2.25 2.75-2.75h-2.25zm.7485 7.001 1.366-1.365c.089.406.135.864.135 1.399v.43c0 1.072-.185 1.837-.534 2.489-.348.651-.86 1.163-1.512 1.512-.652.348-1.417.534-2.489.534h-.429c-1.072 0-1.837-.186-2.489-.534-.652-.349-1.164-.861-1.512-1.512-.349-.652-.535-1.417-.535-2.489v-.43c0-1.072.186-1.837.535-2.489.348-.651.86-1.163 1.512-1.512.652-.348 1.417-.534 2.489-.534h.429c.535 0 .993.046 1.4.136l-1.115 1.114-.251.251c-.012 0-.021-.001-.034-.001h-.429c-.801 0-1.335.118-1.782.357-.39.208-.688.506-.897.897-.238.446-.357.98-.357 1.781v.43c0 .801.119 1.335.357 1.781.209.391.507.689.897.897.447.239.981.357 1.782.357h.429c.801 0 1.335-.118 1.782-.357.39-.208.688-.506.897-.897.238-.446.356-.98.356-1.781v-.43c0-.012-.001-.021-.001-.034z" fill-rule="evenodd"/></svg>