<svg height="16" viewBox="0 0 16 16" width="16" xmlns="http://www.w3.org/2000/svg"><path d="m7.99947541.00102951c-4.41796721 0-7.99947541 3.58150819-7.99947541 7.99947541 0 3.38898358 2.10845902 6.28354098 5.08419672 7.44911478-.06990164-.6329181-.13304918-1.6037377.02780328-2.2946886.14537705-.6243278.93803279-3.97626225.93803279-3.97626225s-.23927869-.47921311-.23927869-1.18767213c0-1.11232787.64472131-1.9427541 1.44747541-1.9427541.6824918 0 1.01213115.51239345 1.01213115 1.12681968 0 .68636065-.43698361 1.71252459-.66255738 2.6634754-.18839344.7961967.39934426 1.4455082 1.18465574 1.4455082 1.42177048 0 2.51462298-1.49914754 2.51462298-3.66314754 0-1.91534426-1.37619675-3.2544918-3.34137708-3.2544918-2.27613115 0-3.61213115 1.70721311-3.61213115 3.47154098 0 .68754098.26485246 1.42478689.59534426 1.82557377.06531148.07921312.07495082.14859017.05547541.22944262-.06072131.25265577-.19567213.79599997-.22216393.90721307-.03495082.1464263-.116.1775082-.26754099.1069509-.99914754-.4650492-1.6237377-1.92577052-1.6237377-3.09901642 0-2.52340984 1.83344262-4.84085246 5.28557377-4.84085246 2.77495081 0 4.93154101 1.97744262 4.93154101 4.62013114 0 2.75691804-1.7383607 4.97567214-4.15101642 4.97567214-.81062295 0-1.57265574-.4211148-1.8335082-.9185574 0 0-.40111475 1.5273443-.49836065 1.9016394-.18065574.6948196-.66813115 1.5657705-.99422951 2.0971147.74845902.2317377 1.54386885.3567213 2.36852459.3567213 4.41803279 0 7.99954099-3.5815082 7.99954099-7.99947538 0-4.41796722-3.5815082-7.99947541-7.99954099-7.99947541" fill-rule="evenodd"/></svg>