<svg height="16" viewBox="0 0 16 16" width="16" xmlns="http://www.w3.org/2000/svg"><path d="m12.267 5.15124997-1.768 1.768-.78094201-.78094197-.63305802-.63305803 1.76800003-1.768c.39-.391.39-1.024 0-1.414-.391-.391-1.02400003-.391-1.41500003 0l-1.767 1.767-.707-.707-2.475 2.475.035.036c-1.01 1.301-1.108 3.068-.289 4.46000003l-2.575 2.575 1.414 1.414 2.575-2.575c1.392.82 3.159.721 4.46100003-.289l.035.036 2.475-2.47500003-.707-.707 1.768-1.768c.391-.39.391-1.023 0-1.414s-1.024-.391-1.414 0z" fill-rule="evenodd"/></svg>