<?xml version="1.0" encoding="UTF-8"?>
<svg width="16px" height="16px" viewBox="0 0 16 16" version="1.1" xmlns="http://www.w3.org/2000/svg" xmlns:xlink="http://www.w3.org/1999/xlink">
    <!-- Generator: sketchtool 43.2 (39069) - http://www.bohemiancoding.com/sketch -->
    <title>preview</title>
    <desc>Created with sketchtool.</desc>
    <defs></defs>
    <g id="Page-1" stroke="none" stroke-width="1" fill="none" fill-rule="evenodd">
        <g id="preview" fill="#000000">
            <path d="M9.5,8 C9.5,8.828 8.828,9.5 8,9.5 C7.172,9.5 6.5,8.828 6.5,8 C6.5,7.172 7.172,6.5 8,6.5 C8.828,6.5 9.5,7.172 9.5,8 M8,11 C6.343,11 5,9.657 5,8 C5,6.343 6.343,5 8,5 C9.657,5 11,6.343 11,8 C11,9.657 9.657,11 8,11 M8,3.5 C4.134,3.5 1,8 1,8 C1,8 4.134,12.5 8,12.5 C11.866,12.5 15,8 15,8 C15,8 11.866,3.5 8,3.5" id="Mask"></path>
        </g>
    </g>
</svg>