<svg height="16" viewBox="0 0 16 16" width="16" xmlns="http://www.w3.org/2000/svg"><path d="m6.72553503 0c3.56619037.00011117 5.01623367 3.0868446 5.01623367 6.15879302 0 .15952254-.0068089.45020131-.0088835.53445372l-.0005656.02248562.7196857 1.79621272c-.0006548.00019739-.0013096.00039475-.0019645.00059208.0018571-.00049417.0019645-.00048091.0019645-.00048091.1972076.51402944.3918585 1.04929149.5344839 1.50829395.6801107 2.1887383.4596695 3.0946262.2920318 3.1149695-.3600651.0434657-1.4014639-1.6476956-1.4014639-1.6476956 0 .9183278-.4430518 2.0994011-1.3977886 3.003874l-.1982685.1765019.1579812.0497441c.3735548.1246058.7920004.2988115 1.0733418.5065984.2888081.2132155.2527904.4306553.2006538.5183649-.2285563.3857444-3.92103079.2463428-4.98710828.126284l-.11939227.0124666c-1.19711619.1165817-4.64704091.2336922-4.867716-.1387506-.05202547-.0877096-.08815427-.3051494.20087613-.5183649.2812488-.2077869.69960177-.3819926 1.07325693-.5065984l.15660785-.0491992c-1.0915049-.9228755-1.5955994-2.2013712-1.5955994-3.1809208 0 0-1.04128757 1.6911613-1.40135274 1.6475845-.1677488-.0202322-.38819005-.926009.29203186-3.1148584.14262538-.45889129.33727624-.99426451.5344839-1.50829395l.00293522-.00005625-.00293522-.00005492.71968568-1.79621272c-.000667-.02101029-.00956024-.3745167-.00956024-.55705051 0-3.07172608 1.45015442-6.15857068 5.01634481-6.15868185z" fill-rule="evenodd" transform="translate(.99998)"/></svg>