<svg height="16" viewBox="0 0 16 16" width="16" xmlns="http://www.w3.org/2000/svg"><g fill="none" transform="translate(1)"><path d="m6.72584842 15.8118523c-1.39323766 0-2.67219715-.4663394-3.49560028-1.1627915-.41820474.1249501-.9531333.3259374-1.29063187.5752817-.28903039.2132155-.25290159.4306553-.20087612.5183649.22855634.3857444 3.92114195.2463428 4.98710827.126284zm0 0c1.39345999 0 2.67230832-.4663394 3.49582258-1.1627915.4179824.1249501.9530222.3259374 1.2906319.5752817.2888081.2132155.2527904.4306553.2006538.5183649-.2285564.3857444-3.92103079.2463428-4.98710828.126284z" fill="#faab07"/><path d="m6.7339635 7.4613196c2.30090427-.01556317 4.1449182-.46100347 4.7697797-.63175374.1489618-.04079775.2285563-.1138335.2285563-.1138335.0005558-.02101029.0094491-.37462786.0094491-.55693934 0-3.07194842-1.4500433-6.15868185-5.01623368-6.15879302-3.56619039.00011117-5.01634481 3.08695577-5.01634481 6.15868185 0 .18253381.00889325.53604022.00956024.55693934 0 0 .06480951.0683668.18342313.10149413.57694914.16052304 2.45564669.62808528 4.8148017.64420428zm6.2525056 2.5590306c-.1426254-.45900246-.3372763-.99426451-.5344839-1.50829395 0 0-.1133889-.01400686-.1708615.00255681-1.7689771.51391827-3.91324915.8415231-5.5471602.82173564h-.01700832c-1.62479548.01945397-3.75450481-.30426007-5.51759021-.8131759-.06736632-.01945397-.2003203-.01111655-.2003203-.01111655-.19720766.51402944-.39185851 1.04940266-.53448389 1.50829395-.68022192 2.1888494-.45978066 3.0946262-.29203187 3.1148584.36006517.0435768 1.40135275-1.6475845 1.40135275-1.6475845 0 1.7185081 1.55153738 4.3571332 5.10449908 4.3813673h.09426837c3.55285049-.0242341 5.10438789-2.6628592 5.10438789-4.3813673 0 0 1.0413988 1.6911613 1.4014639 1.6476956.1676377-.0203433.3880789-.9262312-.2920318-3.1149695" fill="#000"/><path d="m5.45656033 4.53822184c-.48379241.02189961-.89710587-.52914795-.92311861-1.22982433-.02623507-.7008987.34439083-1.28685224.82818324-1.30875185.48323659-.02167728.89643888.52914795.92267395 1.23004665.0264574.70100987-.34427966 1.28696341-.82773858 1.30852953m3.46091663-1.22982433c-.02590157.70056521-.43921503 1.25172394-.92300745 1.22982433-.48357008-.02167728-.85419597-.60751966-.82773858-1.30841836.02623507-.7008987.4393262-1.25172393.92267395-1.23015782.48379241.02189961.85441831.60785315.82807208 1.30875185" fill="#fff"/><path d="m6.05118478 3.31873591c.02212194.27680218-.12973018.52270035-.33861022.54949124-.20932471.02690206-.39663863-.17564154-.41887174-.45244373-.02189961-.27702451.12973018-.52292268.33827673-.54960241.2096582-.02712439.39730562.17564155.41920523.45244373m1.32909515.09260089c.04279873-.07659305.33394127-.47934579.93679197-.33271844.15841089.03857444.23166898.09526886.24712099.11750197.02278893.032905.02912537.07981685.00589177.14295888-.0458002.12517239-.14040207.12172626-.19276104.09726984-.03390549-.01578551-.45377772-.29570033-.84063378.12194859-.02667973.02856955-.07425858.03846328-.11928062.00444662-.04524438-.03423898-.06380902-.10338394-.03712929-.15140746" fill="#000"/><path d="m6.7339635 9.23563272h-.01700832c-1.1112107.01333987-2.458537-.1338433-3.76339806-.39108035-.11161019.64676109-.17897651 1.45982583-.12117043 2.42930043.14629384 2.4504219 1.60156188 3.9908428 3.84788386 4.0130759h.09115574c2.24643315-.0222331 3.70159001-1.562654 3.84810621-4.0130759.0578061-.9696969-.0096714-1.78253934-.1213928-2.4294116-1.30497221.25734822-2.652632.40464255-3.76406503.39108036" fill="#fff"/><path d="m3.56863603 9.03053231v2.41151399s1.10465193.2227757 2.21141601.0684779v-2.22431116c-.70112104-.03968609-1.45726901-.1280627-2.21141601-.25568073" fill="#eb1923"/><path d="m11.7322995 6.71573236s-2.14882982.6783321-4.998336.69756373h-.01700832c-2.84483723-.01912047-4.9908879-.69534042-4.99822483-.69756373l-.71968568 1.79621272c1.80010352.54271015 4.0309735.89243693 5.71791051.87209363h.01700832c1.68693701.0203433 3.9176958-.32938348 5.7180217-.87209363z" fill="#eb1923"/><path d="m6.77946259 6.56910501c1.65685425 0 3.10577512-.79296264 3.10577512-1.06910501s-1.44892087-.57759007-3.10577512-.57759007-3.10577512.3014477-3.10577512.57759007 1.44892087 1.06910501 3.10577512 1.06910501z" fill="#faab07"/></g></svg>