<svg height="16" viewBox="0 0 16 16" width="16" xmlns="http://www.w3.org/2000/svg"><path d="m6.625 13c0-.759.61722222-1.375 1.375-1.375s1.375.616 1.375 1.375c0 .7577778-.61722222 1.375-1.375 1.375s-1.375-.6172222-1.375-1.375zm2.375-2.75h-2v-.188c0-.62.221-1.21.616-1.753.281-.387.615-.701.91-.978l.095-.09c.627-.593.982-.963.976-1.682 0-.885-.717-1.559-1.597-1.559s-1.597.674-1.597 1.555v.445h-1.958v-.445c0-1.96 1.595-3.555 3.555-3.555 1.955 0 3.55 1.594 3.555 3.553.009 1.6-1.03 2.583-1.587 3.111l-.078.073c-.275.259-.534.503-.695.723-.157.217-.195.38-.195.602z" fill-rule="evenodd"/></svg>