<svg height="16" viewBox="0 0 16 16" width="16" xmlns="http://www.w3.org/2000/svg"><path d="m15 8c0-3.866-3.134-7-7-7s-7 3.134-7 7 3.134 7 7 7 7-3.134 7-7m1 0c0 4.418-3.582 8-8 8s-8-3.582-8-8 3.582-8 8-8 8 3.582 8 8m-10.222-1.638v.278h1.224v-.278c0-.551.448-.972.998-.972s.998.421.998.974c.004.45-.218.681-.61 1.052l-.059.056c-.185.173-.393.369-.569.611-.247.339-.385.708-.385 1.096v.02099981h1.25v-.02099981c0-.139.024-.241.122-.377.1-.137.262-.289.434-.451l.049-.046c.348-.33.997-.944.992-1.944-.003-1.225-1-2.221-2.222-2.221-1.225 0-2.222.997-2.222 2.222zm3.1220001 4.6629996c0 .4828289-.39217113.875-.875.875-.48282888 0-.875-.3921711-.875-.875s.39217112-.875.875-.875c.48282887 0 .875.3921711.875.875" fill-rule="evenodd"/></svg>