<svg height="16" viewBox="0 0 16 16" width="16" xmlns="http://www.w3.org/2000/svg"><path d="m8 0c4.41825 0 8 3.58175 8 8s-3.58175 8-8 8-8-3.58175-8-8 3.58175-8 8-8zm3.28775 3.125c-.327375 0-.60775.1905-.744125.465125l-1.93875-.412125-.05436111-.00439352c-.03616667.00190741-.07155556.01335185-.10238889.03351852-.046375.03-.078875.077375-.090375.131375l-.5935 2.79-.28424863.0138721c-1.12742445.07901252-2.13600137.43751252-2.88150137.9746279-.209625-.201125-.4935-.32525-.806875-.32525-.644375 0-1.166625.52225-1.166625 1.166625 0 .474125.28325.88125.68925 1.06375-.018.116-.027875.233625-.027875.352875 0 1.795 2.089375 3.25 4.66675 3.25 2.57725 0 4.666625-1.455 4.666625-3.25 0-.1185-.009625-.235375-.027375-.3505.408625-.1815.694-.590125.694-1.066125 0-.644375-.52225-1.166625-1.166625-1.166625-.3145 0-.599375.125-.809125.327375-.7975-.5755-1.89625-.947125-3.12-.989875l.531375-2.500375 1.736375.369125.0122248.10833717c.0697422.38931995.4076294.68541283.8171502.68541283.46025 0 .83325-.373125.83325-.833375s-.373-.833375-.83325-.833375zm-5.310875 7.56325c.08425-.08425.221-.084375.305375 0 .3585.3585 1.125375.48575 1.673125.48575s1.31475-.12725 1.673875-.485875c.0845-.08425.221125-.084125.305375.00025s.08425.221125-.00025.305375c-.53083333.5301333-1.51562444.6039133-1.90504741.6113945h-.14795174c-.38962363-.0074817-1.37437585-.0812695-1.90462585-.6115195-.08425-.08425-.08425-.221.000125-.305375zm3.810875-2.729875c.4595 0 .83325.374.83325.8335s-.37375.833375-.83325.833375-.833375-.373875-.833375-.833375.373875-.8335.833375-.8335zm-3.666375 0c.45925 0 .833.373875.833.833375 0 .459375-.37375.83325-.833.83325-.459625 0-.833625-.373875-.833625-.83325 0-.4595.374-.833375.833625-.833375z"/></svg>