<svg height="16" viewBox="0 0 16 16" width="16" xmlns="http://www.w3.org/2000/svg"><g fill="none" fill-rule="evenodd"><path d="m16 8c0 4.41825-3.58175 8-8 8s-8-3.58175-8-8 3.58175-8 8-8 8 3.58175 8 8" fill="#ff4500"/><path d="m13.286375 7.958375c0-.644375-.52225-1.166625-1.166625-1.166625-.3145 0-.599375.125-.809125.327375-.7975-.5755-1.89625-.947125-3.12-.989875l.531375-2.500375 1.736375.369125c.021125.441375.382625.79375.829375.79375.46025 0 .83325-.373125.83325-.833375s-.373-.833375-.83325-.833375c-.327375 0-.60775.1905-.744125.465125l-1.93875-.412125c-.054-.01175-.1105-.001125-.15675.029125-.046375.03-.078875.077375-.090375.131375l-.5935 2.79c-1.24175.034375-2.358125.406625-3.16575.9885-.209625-.201125-.4935-.32525-.806875-.32525-.644375 0-1.166625.52225-1.166625 1.166625 0 .474125.28325.88125.68925 1.06375-.018.116-.027875.233625-.027875.352875 0 1.795 2.089375 3.25 4.66675 3.25 2.57725 0 4.666625-1.455 4.666625-3.25 0-.1185-.009625-.235375-.027375-.3505.408625-.1815.694-.590125.694-1.066125z" fill="#fff"/><path d="m9.934375 10.99375c-.56875.568-1.658625.612125-1.979.612125-.320625 0-1.4105-.044125-1.978625-.61225-.08425-.08425-.08425-.221.000125-.305375.08425-.08425.221-.084375.305375 0 .3585.3585 1.125375.48575 1.673125.48575s1.31475-.12725 1.673875-.485875c.0845-.08425.221125-.084125.305375.00025s.08425.221125-.00025.305375zm-.146625-1.3685c-.4595 0-.833375-.373875-.833375-.833375s.373875-.8335.833375-.8335.83325.374.83325.8335-.37375.833375-.83325.833375zm-4.5-.8335c0-.4595.374-.833375.833625-.833375.45925 0 .833.373875.833.833375 0 .459375-.37375.83325-.833.83325-.459625 0-.833625-.373875-.833625-.83325z" fill="#ff4500"/></g></svg>