<?xml version="1.0" encoding="UTF-8"?>
<svg width="16px" height="16px" viewBox="0 0 16 16" version="1.1" xmlns="http://www.w3.org/2000/svg" xmlns:xlink="http://www.w3.org/1999/xlink">
    <g id="Icon/Review" stroke="none" stroke-width="1" fill="none" fill-rule="evenodd">
        <g id="Symbols---Icon---Annotate-Icon" transform="translate(1.000000, 1.000000)" fill="#000000">
            <path d="M11.4647056,0 C12.86491,0 14,1.04516745 14,2.33029032 L14,8.16970968 C14,9.45669349 12.8543212,10.5 11.4647056,10.5 L10.8181818,10.5 L7,14 L7,10.5 L2.53529438,10.5 C1.13508996,10.5 0,9.45483255 0,8.16970968 L0,2.33029032 C0,1.04330651 1.14567876,0 2.53529438,0 L11.4647056,0 Z M7.5,1 L6.625,3.625 L4,3.674 L6.02766667,5.34758333 L5.16608333,8 L7.5,6.41683333 L9.83333333,8 L8.97233333,5.34758333 L10.9994167,3.674 L8.37441667,3.625 L7.5,1 Z" id="Shape"></path>
        </g>
    </g>
</svg>