<svg height="16" viewBox="0 0 16 16" width="16" xmlns="http://www.w3.org/2000/svg"><path d="m6.75 9.5c-1.519 0-2.75-1.231-2.75-2.75s1.231-2.75 2.75-2.75 2.75 1.231 2.75 2.75-1.231 2.75-2.75 2.75zm6.75-2v-1.5l-1.977-.658c-.1-.342-.234-.665-.401-.972l.932-1.862-1.062-1.062-1.862.932c-.307-.167-.63-.301-.972-.401l-.658-1.977h-1.5l-.658 1.977c-.342.1-.665.234-.972.401l-1.862-.932-1.062 1.062.932 1.862c-.167.307-.301.63-.401.972l-1.977.658v1.5l1.977.658c.1.342.234.665.401.972l-.932 1.862 1.062 1.062 1.862-.932c.307.167.63.301.972.401l.658 1.977h1.5l.658-1.977c.342-.1.665-.234.972-.401l1.862.932 1.062-1.062-.932-1.862c.167-.307.301-.63.401-.972z" fill-rule="evenodd" transform="translate(1.25 1.25)"/></svg>