<svg height="16" viewBox="0 0 16 16" width="16" xmlns="http://www.w3.org/2000/svg"><path d="m8.04087292 4.40445138-2.91406375 1.94270917c-.32082781-.21907906-.70879217-.34716055-1.12680917-.34716055-1.105 0-2 .895-2 2s.895 2 2 2c.41821009 0 .80633976-.12819984 1.12725371-.3474642l2.91372757 1.9424851c-.02686875.1307775-.04098128.2662226-.04098128.4049791 0 1.105.895 2 2 2s2-.895 2-2-.895-2-2-2c-.41821619 0-.8063511.1282036-1.12726776.3474738l-2.91362443-1.94292852c.02681085-.13064321.04089219-.26594224.04089219-.40454528 0-.13875648-.01411253-.27420164-.04098128-.40497915l2.91372757-1.94248505c.32091395.21926436.70904362.3474642 1.12725371.3474642 1.105 0 2-.895 2-2s-.895-2-2-2-2 .895-2 2c0 .13856983.01407459.27383725.04087292.40445138z" fill-rule="evenodd"/></svg>