<svg height="16" viewBox="0 0 16 16" width="16" xmlns="http://www.w3.org/2000/svg"><path d="m7.468 5.419.98188522 1.32531292.09460138.11305771c.20113902.21343427.471239.34944357.76247869.38394767l.14716008.0086817h1.54587463v-1.25l3 2-3 2v-1.25h-1.54587463l-.18577998-.006271c-.73410574-.0496379-1.41798732-.3917854-1.89785044-.9489992l-.1256979-.1572414-.71079705-.9584884zm3.532-5.419 3 2-3 2v-1.25h-1.54587463c-.34645086 0-.67497658.14362277-.90963877.39262937l-.09460138.11305771-3.24766078 4.38180132c-.48163399.6498291-1.22270572 1.0520902-2.02354835 1.1062406l-.18577998.006271h-2.99289611v-1.5h2.99289611c.34645086 0 .67497658-.1436228.90963878-.39262937l.09460137-.11305771 3.24766079-4.38180134c.48163399-.6498291 1.22270571-1.05209016 2.02354834-1.10624057l.18577998-.00627101h1.54587463zm-8.00710389 1.25.18577998.00627101c.73410575.04963787 1.41798733.39178539 1.89785045.94899914l.1256979.15724143.70977556.95748842-.934 1.26-.98086374-1.32431292-.09460137-.11305771c-.20113903-.21343423-.47123901-.3494436-.76247869-.38394762l-.14716009-.00868175h-2.99289611v-1.5z" fill-rule="evenodd" transform="translate(1 3)"/></svg>