<?xml version="1.0" encoding="UTF-8"?>
<svg width="16px" height="16px" viewBox="0 0 16 16" version="1.1" xmlns="http://www.w3.org/2000/svg" xmlns:xlink="http://www.w3.org/1999/xlink">
    <title>Icon/Shuffle</title>
    <g id="Icon/Shuffle" stroke="none" stroke-width="1" fill="none" fill-rule="evenodd">
        <g id="Shuffle" transform="translate(1.000000, 3.000000)" fill="#000000">
            <path d="M7.468,5.419 L8.44988522,6.74431292 L8.5444866,6.85737063 C8.74562562,7.0708049 9.0157256,7.2068142 9.30696529,7.2413183 L9.45412537,7.25 L11,7.25 L11,6 L14,8 L11,10 L11,8.75 L9.45412537,8.75 L9.26834539,8.743729 C8.53423965,8.6940911 7.85035807,8.3519436 7.37049495,7.7947298 L7.24479705,7.6374884 L6.534,6.679 L7.468,5.419 Z M11,0 L14,2 L11,4 L11,2.75 L9.45412537,2.75 C9.10767451,2.75 8.77914879,2.89362277 8.5444866,3.14262937 L8.44988522,3.25568708 L5.20222444,7.6374884 C4.72059045,8.2873175 3.97951872,8.6895786 3.17867609,8.743729 L2.99289611,8.75 L0,8.75 L0,7.25 L2.99289611,7.25 C3.33934697,7.25 3.66787269,7.1063772 3.90253489,6.85737063 L3.99713626,6.74431292 L7.24479705,2.36251158 C7.72643104,1.71268248 8.46750276,1.31042142 9.26834539,1.25627101 L9.45412537,1.25 L11,1.25 L11,0 Z M2.99289611,1.25 L3.17867609,1.25627101 C3.91278184,1.30590888 4.59666342,1.6480564 5.07652654,2.20527015 L5.20222444,2.36251158 L5.912,3.32 L4.978,4.58 L3.99713626,3.25568708 L3.90253489,3.14262937 C3.70139586,2.92919514 3.43129588,2.79318577 3.1400562,2.75868175 L2.99289611,2.75 L0,2.75 L0,1.25 L2.99289611,1.25 Z" id="Combined-Shape-Copy-2"></path>
        </g>
    </g>
</svg>