<svg height="16" viewBox="0 0 16 16" width="16" xmlns="http://www.w3.org/2000/svg"><g fill="none" fill-rule="evenodd" transform="translate(-.000036 2.000028)"><path d="m6.10578338 11.8257527c1.47437949.0007384 2.97353846-.5142975 3.99450252-1.4401641 1.4310565-1.29780515 1.2854154-3.04016413-.34133329-4.06752823-1.04287179-.65862564-2.20053333-.87097436-3.40586666-.79228718-1.53403077.10002051-2.94925128.53636923-4.04332308 1.69657436-1.11581538 1.18317949-.96557949 2.72278974.35897436 3.67253335.96574359.6924308 2.0643282.9512205 3.43704615.9308718m1.58588718-7.6498872c.20644103-.048.39835898-.0704.57337436-.13702564.71942564-.27388718 1.44968205-.4896 2.23031798-.4254359 1.0377025.08525128 1.4752.71991795 1.1974564 1.71913846-.0291282.10502564-.0584205.21062564-.0982975.31171282-.096.2432-.0150974.3713641.2301539.46285128.3172923.11831795.6418872.24459488.9224205.42953847.9848615.64918974 1.2618667 1.64012307.7698872 2.71614359-.4926359 1.07741542-1.3394872 1.83007182-2.3704616 2.34642052-3.05025637 1.5277949-6.11052303 1.5208205-9.13887175-.075241-.3676718-.1938052-.70104615-.4780308-1.00077949-.7710359-1.01784615-.99487183-1.25965128-2.2217026-.74510769-3.50022568 1.01046154-2.51085128 2.83848205-4.26002051 5.33234872-5.29887179.32927179-.13718974.71704615-.17706667 1.07913846-.18330256.69177436-.01189744 1.13682051.41288205 1.15388718 1.10802051.00984615.40073846-.08024615.80393846-.13546667 1.29731282" fill="#d52b2c"/><path d="m10.9428706 1.14017319c-.334359.02921026-.5688616-.11265641-.6171077-.45202051-.0488205-.34330257.1612307-.56041026.4707282-.61677949 2.3279589-.42387692 4.5335795 1.08053333 4.8541538 3.44278974.0729436.53792821-.0067282 1.10744616-.0864 1.65210257-.0678564.4641641-.3425641.64057436-.6951384.56377436-.3332923-.07269744-.4496411-.35331282-.3442052-.82986667.3776-1.70633846-.5059282-3.25005128-2.1272615-3.70108718-.2606769-.07253333-1.2379898-.07778461-1.4547692-.05891282z" fill="#e79214"/><path d="m13.5573034 4.21141011c-.0162462.09107693-.0009846.32361026-.1020718.48196923-.0998564.1564718-.3173744.33066667-.4832.33058465-.2429539-.00024618-.398359-.2124308-.3705436-.49206157.0107487-.10847179.0294564-.21612308.0378256-.32467692.0519385-.67675898-.4994461-1.2062359-1.1790769-1.13403077-.3481436.03700513-.6360615-.13390769-.6316308-.40918974.0052513-.32853334.2157949-.46293334.5328411-.49608206 1.2018051-.12578461 2.1866666.73485129 2.1958564 2.04348718" fill="#e79214"/><path d="m6.58699795 9.02190986c.20301421 0 .36758975-.16457553.36758975-.36758974s-.16457554-.36758974-.36758975-.36758974-.36758974.16457553-.36758974.36758974.16457553.36758974.36758974.36758974zm.69470338-1.97983718c1.18432821.54473846 1.56102564 1.80594872.84373334 2.89550769-.55351795.84094363-1.38018462 1.19269743-2.16631795 1.22978463-1.36205129-.0027898-2.2300718-.6505026-2.43692308-1.69042053-.11651282-.5859282.08246154-1.09973333.42412308-1.5651282.73001025-.99446154 2.22309743-1.38133334 3.33538461-.86974359zm-2.03038359 1.57000205c-.46403248 0-.84020513.37617265-.84020513.84020513s.37617265.84020514.84020513.84020514.84020513-.37617266.84020513-.84020514-.37617265-.84020513-.84020513-.84020513z" fill="#040000"/></g></svg>