<svg height="16" viewBox="0 0 16 16" width="16" xmlns="http://www.w3.org/2000/svg"><path d="m6.67321436 1.77056c.69177436-.01189744 1.13682051.41288205 1.15388718 1.10802051.00984615.40073846-.08024616.80393846-.13546667 1.29731282.20644103-.048.39835898-.0704.57337436-.13702564.71942564-.27388718 1.44968205-.4896 2.23031797-.4254359 1.0377025.08525129 1.4752.71991795 1.1974564 1.71913847-.0291282.10502564-.0584205.21062564-.0982974.31171282-.096.2432-.0150975.3713641.2301538.46285128.3172923.11831795.6418872.24459487.9224205.42953846.9848616.64918974 1.2618667 1.64012308.7698872 2.71614359-.4926359 1.07741539-1.3394872 1.83007179-2.3704615 2.34642049-3.05025646 1.5277949-6.11052312 1.5208205-9.13887184-.075241-.3676718-.1938051-.70104615-.4780308-1.00077949-.7710359-1.01784615-.99487179-1.25965128-2.22170256-.74510769-3.50022564 1.01046154-2.51085128 2.83848205-4.26002051 5.33234872-5.2988718.32927179-.13718974.71704615-.17706666 1.07913846-.18330256zm-.3201641 3.75524103c-1.53403077.10002051-2.94925129.53636923-4.04332308 1.69657435-1.11581539 1.18317949-.96557949 2.72278975.35897436 3.67253332.96574359.6924308 2.0643282.9512205 3.43704615.9308718 1.47437949.0007385 2.97353846-.5142974 3.99450261-1.4401641 1.4310564-1.29780512 1.2854153-3.04016409-.34133338-4.06752819-1.04287179-.65862565-2.20053333-.87097436-3.40586666-.79228718zm.92861538 1.51629948c1.18432821.54473846 1.56102564 1.80594872.84373333 2.8955077-.55351794.84094359-1.38018461 1.19269739-2.16631794 1.22978459-1.36205129-.0027897-2.2300718-.6505025-2.43692308-1.69042049-.11651282-.58592821.08246154-1.09973334.42412308-1.56512821.73001025-.99446154 2.22309743-1.38133333 3.33538461-.86974359zm-2.03038359 1.57000205c-.46403248 0-.84020513.37617265-.84020513.84020513s.37617265.84020511.84020513.84020511.84020513-.37617263.84020513-.84020511-.37617265-.84020513-.84020513-.84020513zm1.33568021-.32534435c-.20301421 0-.36758974.16457554-.36758974.36758975 0 .2030142.16457553.36758974.36758974.36758974s.36758975-.16457554.36758975-.36758974c0-.20301421-.16457554-.36758975-.36758975-.36758975zm9.06364694-4.77256744c.0729436.5379282-.0067282 1.10744615-.0864 1.65210256-.0678564.46416411-.3425641.64057436-.6951384.56377436-.3332923-.07269743-.4496411-.35331282-.3442052-.82986666.3776-1.70633847-.5059282-3.25005129-2.1272615-3.70108718-.2606769-.07253334-1.2379897-.07778462-1.4547692-.05891282-.334359.02921025-.5688616-.11265641-.6171077-.45202052-.0488205-.34330256.1612307-.56041025.4707282-.61677948 2.327959-.42387693 4.5335795 1.08053333 4.8541538 3.44278974zm-2.0933415.69724718c-.0162462.09107692-.0009846.32361026-.1020718.48196923-.0998564.15647179-.3173744.33066667-.4832.33058464-.2429538-.00024618-.398359-.21243079-.3705436-.49206156.0107487-.1084718.0294564-.21612308.0378256-.32467693.0519385-.67675897-.4994461-1.20623589-1.1790769-1.13403077-.3481436.03700513-.6360615-.13390769-.6316307-.40918974.0052512-.32853333.2157948-.46293333.532841-.49608205 1.2018051-.12578462 2.1866666.73485128 2.1958564 2.04348718z" fill-rule="evenodd" transform="translate(0 2)"/></svg>