<svg height="16" viewBox="0 0 16 16" width="16" xmlns="http://www.w3.org/2000/svg"><path d="m7 5.5c2.209 0 4 2.015 4 4.5v.9986572h-8v-.9986572c0-2.485 1.791-4.5 4-4.5zm-4.61049277 1.53288983c-.36459155.74015067-.58892788 1.57687227-.63427927 2.46497987l-.00854121.3353608-.00068675 1.1616593-1.746.0005936v-.9954834c0-1.4791667.99944196-2.70854592 2.3142339-2.9550041zm9.22932057.0173659c1.2447416.247005 2.2006667 1.37632917 2.2814376 2.75960127l.0055346.190143v.9954834l-1.6528-.0005936.0003132-1.1616593-.0053695-.2660359c-.0360571-.8915449-.2524279-1.7327878-.6102785-2.47842221zm-.1938278-4.05025573c.8694 0 1.575.672 1.575 1.5s-.7056 1.5-1.575 1.5-1.575-.672-1.575-1.5.7056-1.5 1.575-1.5zm-8.85 0c.8694 0 1.575.672 1.575 1.5s-.7056 1.5-1.575 1.5-1.575-.672-1.575-1.5.7056-1.5 1.575-1.5zm4.425-3c1.242 0 2.25 1.008 2.25 2.25s-1.008 2.25-2.25 2.25-2.25-1.008-2.25-2.25 1.008-2.25 2.25-2.25z" fill-rule="evenodd" transform="translate(1 1.5)"/></svg>