<?xml version="1.0" encoding="UTF-8"?>
<svg width="16px" height="16px" viewBox="0 0 16 16" version="1.1" xmlns="http://www.w3.org/2000/svg" xmlns:xlink="http://www.w3.org/1999/xlink">
    <title>Social Panel</title>
    <g id="Icon/Social-Panel" stroke="none" stroke-width="1" fill="none" fill-rule="evenodd">
        <g id="Social-Panel" transform="translate(1.000000, 1.500000)" fill="#000000">
            <path d="M7,5.5 C9.209,5.5 11,7.515 11,10 L11,10.9986572 L3,10.9986572 L3,10 C3,7.515 4.791,5.5 7,5.5 Z M2.38950723,7.03288983 C2.02491568,7.7730405 1.80057935,8.6097621 1.75522796,9.4978697 L1.74668675,9.8332305 L1.746,10.9948898 L0,10.9954834 L0,10 C0,8.5208333 0.99944196,7.29145408 2.3142339,7.0449959 L2.38950723,7.03288983 Z M11.6188278,7.05025573 C12.8635694,7.29726073 13.8194945,8.4265849 13.9002654,9.809857 L13.9058,10 L13.9058,10.9954834 L12.253,10.9948898 L12.2533132,9.8332305 L12.2479437,9.5671946 C12.2118866,8.6756497 11.9955158,7.8344068 11.6376652,7.08877239 L11.6188278,7.05025573 Z M11.425,3 C12.2944,3 13,3.672 13,4.5 C13,5.328 12.2944,6 11.425,6 C10.5556,6 9.85,5.328 9.85,4.5 C9.85,3.672 10.5556,3 11.425,3 Z M2.575,3 C3.4444,3 4.15,3.672 4.15,4.5 C4.15,5.328 3.4444,6 2.575,6 C1.7056,6 1,5.328 1,4.5 C1,3.672 1.7056,3 2.575,3 Z M7,0 C8.242,0 9.25,1.008 9.25,2.25 C9.25,3.492 8.242,4.5 7,4.5 C5.758,4.5 4.75,3.492 4.75,2.25 C4.75,1.008 5.758,0 7,0 Z" id="Shape"></path>
        </g>
    </g>
</svg>