<?xml version="1.0" encoding="UTF-8"?>
<svg width="16px" height="16px" viewBox="0 0 16 16" version="1.1" xmlns="http://www.w3.org/2000/svg" xmlns:xlink="http://www.w3.org/1999/xlink">
    <g id="Icon/Speech" stroke="none" stroke-width="1" fill="none" fill-rule="evenodd">
        <g id="speech" transform="translate(2.000000, 3.000000)" fill="#3F3F3F">
            <path d="M9.50798298,0 C10.6081436,0 11.5,0.895857811 11.5,1.9973917 L11.5,7.0026083 C11.5,8.10573727 10.5998238,9 9.50798298,9 L9,9 L6,12 L6,9 L2.49201702,9 C1.3918564,9 0.5,8.10414219 0.5,7.0026083 L0.5,1.9973917 C0.5,0.894262725 1.40017617,0 2.49201702,0 L9.50798298,0 Z M9,5 L3,5 L3,6 L9,6 L9,5 Z M9,3 L3,3 L3,4 L9,4 L9,3 Z" id="Shape"></path>
        </g>
    </g>
</svg>
