<svg height="16" viewBox="0 0 16 16" width="16" xmlns="http://www.w3.org/2000/svg"><path d="m12.0003 8c0 2.209-1.791 4-4 4s-4-1.791-4-4 1.791-4 4-4 4 1.791 4 4zm-4.6253-4.5v-2.5h1.25v2.5zm-1.0837.29-1.083.625-1.25-2.165 1.083-.625zm-1.8759 1.419-.625 1.082-2.165-1.25.625-1.082zm-3.4154 3.416v-1.25h2.5v1.25zm2.7904 1.084.625 1.082-2.165 1.25-.625-1.082zm1.4179 1.876 1.083.625-1.25 2.165-1.083-.625zm2.1667 3.415v-2.5h1.25v2.5zm2.3333-2.79 1.083-.625 1.25 2.165-1.083.625zm1.876-1.419.625-1.082 2.165 1.25-.625 1.082zm.9157-2.166v-1.25h2.5v1.25zm-.2907-2.334-.625-1.082 2.165-1.25.625 1.082zm-1.418-1.876-1.083-.625 1.25-2.165 1.083.625z" fill-rule="evenodd"/></svg>