<svg height="16" viewBox="0 0 16 16" width="16" xmlns="http://www.w3.org/2000/svg"><path d="m6.50082556 5.50117947c0 .27610851-.11205113.5262068-.29313376.70727796-.18108262.18107116-.43019629.2921148-.70632229.2921148-.55325245 0-1.0004565-.44717574-1.0004565-1.00039316 0-.27610851.11105067-.5252064.2921333-.70627756.18108262-.18107116.43119675-.2931152.70732274-.2931152.552252 0 1.00045651.44817614 1.00045651 1.00039316m-3.00136951-3.00117947c-.276126 0-.52624012.11204403-.70732275.29311519-.18108263.18107117-.2921333.43016906-.2921333.70627757v4.20465244c0 .36414311 0 .76229958.37517119 1.13744702.37617164.37614782 5.43314431 5.43440218 5.43314431 5.43440218.39117849.3901534 1.02446746.3901534 1.41564595 0l2.27603855-2.2758944 2.2750381-2.27589443c.3911785-.39015333.3911785-1.02440259 0-1.41455592l-5.43314432-5.43440222c-.37617165-.37514743-.77335288-.37514743-1.1385195-.37514743z" fill-rule="evenodd"/></svg>