<svg height="16" viewBox="0 0 16 16" width="16" xmlns="http://www.w3.org/2000/svg"><path d="m0 11.5259735c.25714286.029709.51885714.0457062.78285714.0457062 1.53828572 0 2.95428572-.5256219 4.07657143-1.4054672-1.43657143-.0262811-2.648-.97468574-3.06628571-2.27959916.20114285.03885031.40685714.05941813.61828571.05941813.29942857 0 .69257143-.03999297.968-.11540828-1.50171428-.30166125-2.53028571-1.62714248-2.53028571-3.21771996 0 .20453546.84571428.35193812 1.384.36907796-.88114286-.58846796-1.512-1.59286279-1.512-2.73209106 0-.60103718.136-1.16550936.41828571-1.64999561 1.61942857 1.98593654 4.02514286 3.29313528 6.75314286 3.42911137-.056-.23995781-.09142857-.49019953-.09142857-.74729718 0-1.81225279 1.46742857-3.28170871 3.28000004-3.28170871.944 0 1.7954285.39764437 2.3942857 1.03638921.7474285-.14740266 1.4491428-.4204975 2.0834285-.79757406-.2457142.76672234-.7657142 1.4100378-1.4434285 1.81682342.664-.07998594 1.296-.255955 1.8845714-.51762328-.44.65817-.9965714 1.23635405-1.6377143 1.69912983.0068572.14054671.0091429.28223609.0091429.42506812 0 4.33638041-3.3017143 9.33778676-9.3394286 9.33778676-1.85371429 0-3.57942857-.5439044-5.032-1.4740265z" fill="#1da1f2" fill-rule="evenodd" transform="translate(0 2)"/></svg>