<svg height="16" viewBox="0 0 16 16" width="16" xmlns="http://www.w3.org/2000/svg"><g fill="none" fill-rule="evenodd"><path d="m0 7.66666667c0-3.6141 0-5.42115334 1.12275667-6.54391 1.12275666-1.12275667 2.92981-1.12275667 6.54391-1.12275667h.66666666c3.61409997 0 5.42116667 0 6.54389997 1.12275667 1.1227667 1.12275666 1.1227667 2.92981 1.1227667 6.54391v.66666666c0 3.61409997 0 5.42116667-1.1227667 6.54389997-1.1227333 1.1227667-2.9298 1.1227667-6.54389997 1.1227667h-.66666666c-3.6141 0-5.42115334 0-6.54391-1.1227667-1.12275667-1.1227333-1.12275667-2.9298-1.12275667-6.54389997z" fill="#2787f5" fill-rule="nonzero"/><path d="m4.33363333 5h-1.16693333c-.33341333 0-.4001.15693333-.4001.32993333 0 .30903334.39562 1.84166667 1.84206667 3.8687.9643 1.38429997 2.3229 2.13469997 3.5592 2.13469997.74176666 0 .83353333-.1666666.83353333-.4537333v-1.04626667c0-.33333333.07026667-.39986666.30513333-.39986666.1731 0 .4698.08653333 1.16213337.75396663.7912333.7910334.9216666 1.1459 1.3667 1.1459h1.1669333c.3334333 0 .5001333-.1666666.4039667-.4955666-.1052334-.3278-.483-.8034334-.9842667-1.36720003-.272-.32136667-.6799667-.66743334-.8036-.8405-.1730667-.22246667-.1236333-.32136667 0-.5191 0 0 1.4217333-2.00233334 1.5701-2.6821.0741667-.24723334 0-.42886667-.3529-.42886667h-1.1669333c-.2967 0-.4335.15693333-.5077.32993333 0 0-.5934 1.44613334-1.4340667 2.3855-.272.2719-.39563333.35843334-.544.35843334-.07416667 0-.18153333-.08653334-.18153333-.3337v-2.3113c0-.29666667-.0861-.42886667-.3334-.42886667h-1.83376667c-.1854 0-.29693333.13766667-.29693333.26816667 0 .2812.42033333.34606666.46366666 1.1371v1.71806666c0 .37666667-.06806666.44496667-.2164.44496667-.3956 0-1.3579-1.4526-1.92863333-3.11473333-.11183333-.32306667-.22403333-.45356667-.52226667-.45356667z" fill="#fff"/></g></svg>