<?xml version="1.0" encoding="UTF-8"?>
<svg width="16px" height="16px" viewBox="0 0 16 16" version="1.1" xmlns="http://www.w3.org/2000/svg" xmlns:xlink="http://www.w3.org/1999/xlink">
    <g id="Symbols/Social-Icons/Colour/YouTube" stroke="none" stroke-width="1" fill="none" fill-rule="evenodd">
        <g id="Symbols---Social-Icons---Colour---YouTube" transform="translate(0.000000, 2.000000)">
            <path d="M15.6656364,1.76027273 C15.4816364,1.06736364 14.9395455,0.521727273 14.2510909,0.336545455 C13.0033636,-8.8817842e-15 8,-8.8817842e-15 8,-8.8817842e-15 C8,-8.8817842e-15 2.99663636,-8.8817842e-15 1.74890909,0.336545455 C1.06054545,0.521727273 0.518363636,1.06736364 0.334363636,1.76027273 C0,3.01609091 0,5.63636364 0,5.63636364 C0,5.63636364 0,8.25654545 0.334363636,9.51254545 C0.518363636,10.2053636 1.06054545,10.751 1.74890909,10.9362727 C2.99663636,11.2727273 8,11.2727273 8,11.2727273 C8,11.2727273 13.0033636,11.2727273 14.2510909,10.9362727 C14.9395455,10.751 15.4816364,10.2053636 15.6656364,9.51254545 C16,8.25654545 16,5.63636364 16,5.63636364 C16,5.63636364 16,3.01609091 15.6656364,1.76027273" id="Fill-1" fill="#DE0000"></path>
            <polyline id="Fill-4" fill="#FFFFFE" points="6.36363636 8.01536364 10.5454545 5.63645455 6.36363636 3.25736364 6.36363636 8.01536364"></polyline>
        </g>
    </g>
</svg>
