<svg height="16" viewBox="0 0 16 16" width="16" xmlns="http://www.w3.org/2000/svg"><g fill="none" fill-rule="evenodd" transform="translate(0 2)"><path d="m15.6656364 1.76027273c-.184-.69290909-.7260909-1.23854546-1.4145455-1.42372727-1.2477273-.33654546-6.2510909-.33654546-6.2510909-.33654546s-5.00336364 0-6.25109091.33654546c-.68836364.18518181-1.23054545.73081818-1.41454545 1.42372727-.33436364 1.25581818-.33436364 3.87609091-.33436364 3.87609091s0 2.62018181.33436364 3.87618181c.184.69281815.72618181 1.23845455 1.41454545 1.42372725 1.24772727.3364546 6.25109091.3364546 6.25109091.3364546s5.0033636 0 6.2510909-.3364546c.6884546-.1852727 1.2305455-.7309091 1.4145455-1.42372725.3343636-1.256.3343636-3.87618181.3343636-3.87618181s0-2.62027273-.3343636-3.87609091" fill="#de0000"/><path d="m6.36363636 8.01536364 4.18181814-2.37890909-4.18181814-2.37909091z" fill="#fffffe"/></g></svg>