<svg height="16" viewBox="0 0 16 16" width="16" xmlns="http://www.w3.org/2000/svg"><path d="m8.18297551.00050237c.91159725.00389333 4.96298549.03795997 6.06811539.33604309.6884546.18518181 1.2305455.73081818 1.4145455 1.42372727.2972121 1.11628283.3302357 3.3106532.3339049 3.78450979v.18315937c-.0036692.47384262-.0366928 2.66815912-.3339049 3.78460356-.184.69281815-.7260909 1.23845455-1.4145455 1.42372725-1.2477273.3364546-6.2510909.3364546-6.2510909.3364546l-.01204884-.0000079c-.27079183-.0002668-5.02696415-.0096051-6.23904207-.3364467-.68836364-.1852727-1.23054545-.7309091-1.41454545-1.42372725-.33436364-1.256-.33436364-3.87618181-.33436364-3.87618181l.00001699-.01058057c.00044167-.18164203.01236685-2.65620395.33434665-3.86551034.184-.69290909.72618181-1.23854546 1.41454545-1.42372727 1.10512987-.29808312 5.15651815-.33214976 6.0681154-.33604309zm-1.81933915 3.25686127v4.758l4.18181814-2.37890909z" fill-rule="evenodd" transform="translate(0 2)"/></svg>