<svg xmlns="http://www.w3.org/2000/svg" height="512" width="512" viewBox="0 0 512 512">
  <g fill-rule="evenodd" stroke-width="1pt" fill="#2b2b2b">
    <path fill="#415269" d="M.004 0h512v512h-512z"></path>
    <path d="M0 .002l241.878 230.776h49.615L54.837.111-.001 0z" fill="#f8f8f8"></path>
    <path d="M273.368 230.766L36.548-.002 18.119.28 255.93 230.77h17.438z" fill="#c93a3a"></path>
    <path d="M291.497.002L49.62 230.778H.004L236.66.111 291.497 0z" fill="#f8f8f8"></path>
    <path d="M273.316.003L36.59 230.77l-18.423.01L255.884.002h17.432z" fill="#c93a3a"></path>
    <path fill="#f8f8f8" d="M122.426.003h46.638v230.772h-46.638z"></path>
    <path fill="#f8f8f8" d="M.004 92.311h291.481v46.154H.005z"></path>
    <path fill="#c93a3a" d="M132.633.003h26.234v230.772h-26.234z"></path>
    <path fill="#c93a3a" d="M.004 103.854h291.481v23.077H.005z"></path>
    <g>
      <path fill="#f8f8f8" d="M400.008 199.324l-19.577-14.469-20.296 13.424 7.642-23.186-18.972-15.257 24.295.139 8.567-22.854 7.384 23.27 24.26 1.134-19.728 14.243z"></path>
      <path fill="#c93a3a" d="M392.157 187.61l-11.58-8.375-11.837 8.007 4.35-13.66-11.237-8.844 14.273-.067 4.893-13.472 4.469 13.62 14.254.516-11.494 8.485z"></path>
      <path fill="#f8f8f8" d="M324.878 324.042L305.3 309.573l-20.297 13.424 7.643-23.186-18.973-15.257 24.296.139 8.566-22.854 7.385 23.271 24.26 1.133-19.728 14.243z"></path>
      <path fill="#c93a3a" d="M317.026 312.328l-11.58-8.375-11.836 8.007 4.35-13.66-11.238-8.843 14.274-.068 4.892-13.472 4.47 13.62 14.254.516-11.494 8.485z"></path>
      <g>
        <path fill="#f8f8f8" d="M478.633 311.75l-19.576-14.469-20.297 13.424 7.642-23.186-18.972-15.256 24.295.138 8.567-22.853 7.384 23.27 24.26 1.133-19.727 14.244z"></path>
        <path fill="#c93a3a" d="M470.782 300.036l-11.58-8.375-11.836 8.007 4.35-13.66-11.238-8.843 14.274-.067 4.892-13.472 4.469 13.619 14.254.516-11.494 8.486z"></path>
      </g>
      <g>
        <path fill="#f8f8f8" d="M398.261 489.168l-19.577-14.47-20.296 13.424 7.642-23.185-18.973-15.257 24.296.138 8.566-22.853 7.385 23.27 24.26 1.134-19.728 14.243z"></path>
        <path fill="#c93a3a" d="M390.41 477.454l-11.581-8.375-11.836 8.007 4.35-13.66-11.238-8.844 14.274-.067 4.893-13.472 4.468 13.62 14.255.516-11.494 8.485z"></path>
      </g>
    </g>
  </g>
</svg>