<?xml version="1.0" encoding="UTF-8" standalone="no"?>
<svg width="1000px" height="547px" viewBox="0 0 1000 547" version="1.1" xmlns="http://www.w3.org/2000/svg" xmlns:xlink="http://www.w3.org/1999/xlink" xmlns:sketch="http://www.bohemiancoding.com/sketch/ns">
    <!-- Generator: Sketch 3.5.2 (25235) - http://www.bohemiancoding.com/sketch -->
    <title>Browser</title>
    <desc>Created with Sketch.</desc>
    <defs></defs>
    <g id="Page-1" stroke="none" stroke-width="1" fill="none" fill-rule="evenodd" sketch:type="MSPage">
        <g id="Browser" sketch:type="MSArtboardGroup">
            <rect id="background" fill="#F9F9F9" sketch:type="MSShapeGroup" x="0" y="55" width="1000" height="497"></rect>
            <g sketch:type="MSLayerGroup">
                <path d="M7.00502018,0 C3.13625436,0 0,3.13457535 0,6.99369875 L0,55 L1000,55 L1000,6.99369875 C1000,3.13118559 996.859244,0 992.99498,0 L7.00502018,0 Z" id="background" fill="#D4D4D4" sketch:type="MSShapeGroup"></path>
                <circle id="object" fill="#E96E4C" sketch:type="MSShapeGroup" cx="25.5" cy="27.5" r="7.5"></circle>
                <path d="M48.5,35 C52.6421356,35 56,31.6421356 56,27.5 C56,23.3578644 52.6421356,20 48.5,20 C44.3578644,20 41,23.3578644 41,27.5 C41,31.6421356 44.3578644,35 48.5,35 Z" id="object" fill="#E6AA34" sketch:type="MSShapeGroup"></path>
                <circle id="object" fill="#85C33D" sketch:type="MSShapeGroup" cx="71.5" cy="27.5" r="7.5"></circle>
                <rect id="search" opacity="0.85" fill="#FFFFFF" sketch:type="MSShapeGroup" x="97" y="14" width="889" height="27"></rect>
            </g>
            <rect id="Rectangle-4" fill="#FFFFFF" sketch:type="MSShapeGroup" x="0" y="54.9114934" width="191" height="496.763878"></rect>
            <rect id="Rectangle-5" fill="#EFEFEF" sketch:type="MSShapeGroup" x="190" y="425" width="810" height="126"></rect>
            <path d="M190.5,54.4557467 L190.5,551.219625" id="Line" stroke="#EFEFEF" stroke-linecap="square" sketch:type="MSShapeGroup"></path>
            <rect id="Rectangle-6" fill="#F8F8F8" sketch:type="MSShapeGroup" x="297" y="425" width="87" height="106"></rect>
            <g id="Group" sketch:type="MSLayerGroup" transform="translate(308.000000, 439.000000)">
                <ellipse id="Oval" fill="#FF8F00" sketch:type="MSShapeGroup" cx="44.7528736" cy="23.4" rx="4.7816092" ry="4.8"></ellipse>
                <ellipse id="Oval" fill="#F46B00" sketch:type="MSShapeGroup" cx="30.9310345" cy="26.025" rx="7.32183908" ry="7.35"></ellipse>
                <ellipse id="Oval" fill="#FF586F" sketch:type="MSShapeGroup" cx="42.9597701" cy="35.625" rx="6.12643678" ry="6.15"></ellipse>
                <ellipse id="Oval" fill="#8EA53C" sketch:type="MSShapeGroup" cx="59.0977011" cy="29.4" rx="3.95977011" ry="3.975"></ellipse>
                <ellipse id="Oval" fill="#F6BE00" sketch:type="MSShapeGroup" cx="23.3850575" cy="40.2" rx="3.43678161" ry="3.45"></ellipse>
                <ellipse id="Oval" fill="#F6BE00" sketch:type="MSShapeGroup" cx="37.8793103" cy="15.75" rx="3.13793103" ry="3.15"></ellipse>
                <ellipse id="Oval" fill="#9C7CB6" sketch:type="MSShapeGroup" cx="18.2298851" cy="1.95" rx="1.86781609" ry="1.875"></ellipse>
                <ellipse id="Oval" fill="#969C9E" sketch:type="MSShapeGroup" cx="1.7183908" cy="47.325" rx="1.7183908" ry="1.725"></ellipse>
                <ellipse id="Oval" fill="#008EB4" sketch:type="MSShapeGroup" cx="36.1609195" cy="53.475" rx="2.46551724" ry="2.475"></ellipse>
                <ellipse id="Oval" fill="#5FC3E6" sketch:type="MSShapeGroup" cx="15.6896552" cy="26.775" rx="2.46551724" ry="2.475"></ellipse>
                <ellipse id="Oval" fill="#F46B00" sketch:type="MSShapeGroup" cx="32.5747126" cy="37.05" rx="2.24137931" ry="2.25"></ellipse>
                <ellipse id="Oval" fill="#5FC3E6" sketch:type="MSShapeGroup" cx="55.137931" cy="9.75" rx="2.54022989" ry="2.55"></ellipse>
                <ellipse id="Oval" fill="#FF8F00" sketch:type="MSShapeGroup" cx="55.137931" cy="43.875" rx="2.01724138" ry="2.025"></ellipse>
                <g transform="translate(0.747126, 67.500000)" id="Shape" fill="#707070" sketch:type="MSShapeGroup">
                    <path d="M3.06321839,2.7 L3.06321839,2.7 C2.54022989,2.7 2.01724138,2.85 1.49425287,3.225 L1.49425287,0.3 L0.298850575,0.3 L0.298850575,7.125 C0.298850575,8.85 1.41954023,10.05 2.98850575,10.05 L2.98850575,10.05 L2.98850575,10.05 C3.88505747,10.05 4.63218391,9.675 5.15517241,9 C5.67816092,8.325 5.90229885,7.5 5.90229885,6.375 C5.90229885,5.25 5.67816092,4.425 5.15517241,3.825 C4.70689655,3.075 3.95977011,2.7 3.06321839,2.7 L3.06321839,2.7 Z M4.7816092,6.3 C4.7816092,7.125 4.63218391,7.725 4.33333333,8.175 C4.03448276,8.55 3.66091954,8.775 3.06321839,8.775 C2.01724138,8.775 1.56896552,7.875 1.56896552,7.05 L1.56896552,5.325 C1.56896552,4.5 2.46551724,3.9 3.06321839,3.9 C3.66091954,3.9 4.03448276,4.125 4.33333333,4.5 C4.63218391,4.95 4.7816092,5.55 4.7816092,6.3 L4.7816092,6.3 Z"></path>
                    <path d="M20.6206897,2.7 C18.9770115,2.7 17.9310345,3.75 17.9310345,5.55 L17.9310345,9.825 L19.1264368,9.825 L19.1264368,5.55 C19.1264368,4.05 20.1724138,3.9 20.6206897,3.9 C21.0689655,3.9 22.1149425,4.05 22.1149425,5.55 L22.1149425,9.825 L23.3103448,9.825 L23.3103448,5.55 C23.2356322,3.825 22.2643678,2.7 20.6206897,2.7 L20.6206897,2.7 Z"></path>
                    <path d="M10.3103448,3.975 C10.1609195,3.9 10.0114943,3.9 9.86206897,3.9 C9.4137931,3.9 8.36781609,4.05 8.36781609,5.55 L8.36781609,9.825 L7.17241379,9.825 L7.17241379,5.55 C7.17241379,3.75 8.14367816,2.7 9.86206897,2.7 C10.1609195,2.7 10.3850575,2.7 10.6091954,2.775 L10.3103448,3.975 L10.3103448,3.975 Z"></path>
                    <path d="M28.9137931,0.225 L28.9137931,3.15 C28.4655172,2.85 27.9425287,2.7 27.4195402,2.625 L27.4195402,2.625 C26.5229885,2.625 25.7758621,3 25.2528736,3.675 C24.7298851,4.35 24.5057471,5.175 24.5057471,6.225 C24.5057471,7.35 24.7298851,8.25 25.2528736,8.85 C25.7758621,9.525 26.5229885,9.825 27.4195402,9.9 L27.4195402,9.9 L27.4195402,9.9 C28.9885057,9.9 30.1091954,8.7 30.1091954,6.975 L30.1091954,0.15 L28.9137931,0.225 L28.9137931,0.225 Z M28.9137931,5.325 L28.9137931,7.05 C28.9137931,7.875 28.4655172,8.775 27.4195402,8.775 C26.8218391,8.775 26.4482759,8.55 26.1494253,8.175 C25.8505747,7.725 25.7011494,7.125 25.7011494,6.3 C25.7011494,5.475 25.8505747,4.95 26.1494253,4.5 C26.4482759,4.125 26.8218391,3.9 27.4195402,3.9 L27.4195402,3.9 C28.0172414,3.9 28.9137931,4.5 28.9137931,5.325 L28.9137931,5.325 Z"></path>
                    <path d="M54.5402299,3.9 C54.9885057,3.9 55.362069,4.05 55.6609195,4.275 C55.8850575,4.5 56.0344828,4.8 56.1091954,5.175 L57.2298851,5.1 C57.2298851,4.275 56.9310345,3.75 56.408046,3.3 C55.8850575,2.85 55.2126437,2.625 54.5402299,2.625 C53.6436782,2.625 52.8965517,3 52.3735632,3.675 C51.8505747,4.35 51.6264368,5.175 51.6264368,6.3 C51.6264368,7.425 51.8505747,8.25 52.3735632,8.925 C52.8965517,9.6 53.6436782,9.975 54.5402299,9.975 C55.2873563,9.975 55.9597701,9.75 56.408046,9.3 C56.9310345,8.85 57.1551724,8.325 57.2298851,7.5 L56.1091954,7.425 C56.1091954,7.875 55.9597701,8.175 55.6609195,8.4 C55.362069,8.625 54.9885057,8.775 54.5402299,8.775 C53.9425287,8.775 53.5689655,8.55 53.2701149,8.175 C52.9712644,7.725 52.8218391,7.125 52.8218391,6.3 C52.8218391,5.475 52.9712644,4.875 53.2701149,4.425 C53.5689655,4.125 53.9425287,3.9 54.5402299,3.9 L54.5402299,3.9 Z"></path>
                    <path d="M61.4137931,2.7 C60.816092,2.7 60.3678161,2.85 59.9195402,3.15 C59.8448276,3.15 59.8448276,3.225 59.7701149,3.3 L59.7701149,0.3 L58.5747126,0.3 L58.5747126,9.9 L59.7701149,9.9 L59.7701149,5.625 C59.7701149,4.725 60.3678161,3.9 61.3390805,3.9 C62.2356322,3.9 62.7586207,4.65 62.7586207,5.55 L62.7586207,9.825 L63.954023,9.825 L63.954023,5.625 C63.8793103,3.15 62.1609195,2.7 61.4137931,2.7 L61.4137931,2.7 Z"></path>
                    <path d="M50.5804598,8.7 C50.2816092,8.925 49.9827586,8.85 49.683908,8.7 C49.4597701,8.55 49.3103448,8.325 49.3103448,7.875 L49.3103448,4.05 L50.5804598,4.05 L50.5804598,2.85 L49.3103448,2.85 L49.3103448,1.5 L48.1149425,1.5 L48.1149425,2.925 L47.3678161,2.925 L47.3678161,4.125 L48.1149425,4.125 L48.1149425,7.95 C48.1149425,8.925 48.5632184,9.6 49.1609195,9.9 C49.8333333,10.2 50.6551724,10.125 51.2528736,9.675 L50.5804598,8.7 L50.5804598,8.7 Z"></path>
                    <path d="M46.2471264,5.1 C46.2471264,4.35 46.0229885,3.75 45.5,3.3 C45.0517241,2.925 44.3793103,2.7 43.6321839,2.7 C42.8850575,2.7 42.2873563,2.925 41.7643678,3.3 C41.316092,3.675 41.091954,4.125 41.0172414,4.65 L42.137931,4.725 C42.137931,4.5 42.2873563,4.35 42.4367816,4.125 C42.6609195,3.9 43.0344828,3.825 43.4827586,3.825 C43.9310345,3.825 44.3045977,3.9 44.6034483,4.125 C44.8275862,4.35 44.9770115,4.575 44.9770115,4.95 L44.9770115,5.4 L43.6321839,5.4 C42.8850575,5.4 42.137931,5.4 41.5402299,5.85 C41.0172414,6.225 40.7183908,6.825 40.7183908,7.575 C40.7183908,8.925 41.7643678,9.75 43.408046,9.75 C44.0057471,9.75 44.7528736,9.6 45.2758621,9.225 L45.3505747,9.675 L46.2471264,9.675 L46.2471264,7.125 L46.2471264,7.125 L46.2471264,5.1 L46.2471264,5.1 Z M45.0517241,7.35 C45.0517241,8.4 44.1551724,8.775 43.408046,8.775 C42.9597701,8.775 41.9137931,8.7 41.9137931,7.8 C41.9137931,7.575 41.9885057,7.2 42.2873563,6.975 C42.5862069,6.75 43.1091954,6.75 43.7068966,6.75 L44.9770115,6.75 L44.9770115,6.825 L44.9770115,6.825 L44.9770115,6.825 L44.9770115,7.35 L45.0517241,7.35 Z"></path>
                    <path d="M16.5862069,5.1 C16.5862069,4.35 16.362069,3.75 15.8390805,3.3 C15.3908046,2.925 14.7183908,2.7 13.9712644,2.7 C13.2241379,2.7 12.6264368,2.925 12.1034483,3.3 C11.6551724,3.675 11.4310345,4.125 11.3563218,4.65 L12.4770115,4.725 C12.4770115,4.5 12.6264368,4.35 12.7758621,4.125 C13,3.9 13.3735632,3.825 13.8218391,3.825 C14.2701149,3.825 14.6436782,3.9 14.9425287,4.125 C15.1666667,4.35 15.316092,4.575 15.316092,4.95 L15.316092,5.4 L13.9712644,5.4 C13.2241379,5.4 12.4770115,5.4 11.8793103,5.85 C11.3563218,6.225 11.0574713,6.825 11.0574713,7.575 C11.0574713,8.925 12.1034483,9.75 13.7471264,9.75 C14.3448276,9.75 15.091954,9.6 15.6149425,9.225 L15.6896552,9.675 L16.5862069,9.675 L16.5862069,7.125 L16.5862069,7.125 L16.5862069,5.1 L16.5862069,5.1 Z M15.4655172,7.35 C15.4655172,8.4 14.5689655,8.775 13.8218391,8.775 C13.3735632,8.775 12.3275862,8.7 12.3275862,7.8 C12.3275862,7.575 12.4022989,7.2 12.7011494,6.975 C13,6.75 13.5229885,6.75 14.1206897,6.75 L15.3908046,6.75 L15.3908046,6.825 L15.3908046,6.825 L15.3908046,6.825 L15.3908046,7.35 L15.4655172,7.35 Z"></path>
                    <path d="M39.2241379,2.85 L37.8045977,7.95 L36.3103448,2.85 L35.1896552,2.85 L33.7701149,7.95 L32.2758621,2.85 L31.1551724,2.85 L33.1724138,9.9 L34.2931034,9.9 L35.7873563,4.8 L37.2068966,9.9 L38.3275862,9.9 L40.3448276,2.85 L39.2241379,2.85 Z"></path>
                </g>
            </g>
            <rect id="Rectangle-7" stroke="#F0F0F0" fill="#FFFFFF" sketch:type="MSShapeGroup" x="297" y="90" width="585" height="289"></rect>
            <rect id="Rectangle-8" fill="#F3F3F3" sketch:type="MSShapeGroup" x="325" y="124" width="294" height="12"></rect>
            <rect id="Rectangle-8-Copy-11" fill="#F3F3F3" sketch:type="MSShapeGroup" x="30" y="164" width="131" height="12"></rect>
            <rect id="Rectangle-8-Copy-15" fill="#F3F3F3" sketch:type="MSShapeGroup" x="30" y="243" width="131" height="12"></rect>
            <rect id="Rectangle-8-Copy-10" fill="#F3F3F3" sketch:type="MSShapeGroup" x="30" y="81" width="131" height="55"></rect>
            <rect id="Rectangle-8-Copy" fill="#F3F3F3" sketch:type="MSShapeGroup" x="325" y="144" width="175" height="12"></rect>
            <rect id="Rectangle-8-Copy-12" fill="#F3F3F3" sketch:type="MSShapeGroup" x="30" y="184" width="77.9761905" height="12"></rect>
            <rect id="Rectangle-8-Copy-16" fill="#F3F3F3" sketch:type="MSShapeGroup" x="30" y="263" width="77.9761905" height="12"></rect>
            <rect id="Rectangle-8-Copy-2" fill="#F3F3F3" sketch:type="MSShapeGroup" x="325" y="164" width="209" height="12"></rect>
            <rect id="Rectangle-8-Copy-13" fill="#F3F3F3" sketch:type="MSShapeGroup" x="30" y="204" width="93.1258503" height="12"></rect>
            <rect id="Rectangle-8-Copy-17" fill="#F3F3F3" sketch:type="MSShapeGroup" x="30" y="283" width="93.1258503" height="12"></rect>
            <rect id="Rectangle-8-Copy-3" fill="#F3F3F3" sketch:type="MSShapeGroup" x="325" y="184" width="141" height="12"></rect>
            <rect id="Rectangle-8-Copy-14" fill="#F3F3F3" sketch:type="MSShapeGroup" x="30" y="224" width="62.8265306" height="12"></rect>
            <rect id="Rectangle-8-Copy-18" fill="#F3F3F3" sketch:type="MSShapeGroup" x="30" y="303" width="62.8265306" height="12"></rect>
            <rect id="Rectangle-8-Copy-4" fill="#F3F3F3" sketch:type="MSShapeGroup" x="325" y="235" width="164" height="12"></rect>
            <rect id="Rectangle-8-Copy-5" fill="#F3F3F3" sketch:type="MSShapeGroup" x="325" y="255" width="253" height="12"></rect>
            <rect id="Rectangle-8-Copy-6" fill="#F3F3F3" sketch:type="MSShapeGroup" x="325" y="275" width="75" height="12"></rect>
            <rect id="Rectangle-8-Copy-7" fill="#F3F3F3" sketch:type="MSShapeGroup" x="325" y="294" width="111" height="12"></rect>
            <rect id="Rectangle-8-Copy-8" fill="#F3F3F3" sketch:type="MSShapeGroup" x="325" y="315" width="95" height="12"></rect>
            <rect id="Rectangle-8-Copy-9" fill="#F3F3F3" sketch:type="MSShapeGroup" x="325" y="334" width="185" height="12"></rect>
        </g>
    </g>
</svg>