<svg xmlns="http://www.w3.org/2000/svg" height="512" width="512" viewBox="0 0 512 512">
  <defs fill="#2b2b2b">
    <clipPath id="a">
      <path fill="#67818f" d="M60.84 337h175v175h-175z"></path>
    </clipPath>
  </defs>
  <g clip-path="url(#a)" fill-rule="evenodd" transform="translate(-178 -985.97) scale(2.9257)" fill="#2b2b2b">
    <path d="M0 337l146.56 87.5L0 512zm293.12 0l-146.56 87.5L293.12 512z" fill="#52a84c"></path>
    <path d="M0 337l146.56 87.5L293.12 337zm0 175l146.56-87.5L293.12 512z" fill="#c93a3a"></path>
    <path d="M293.12 337h-27.31L0 495.7v16.305h27.31l265.81-158.7z" fill="#f8f8f8"></path>
    <path d="M197.168 424.496c0 27.948-22.656 50.604-50.604 50.604S95.96 452.444 95.96 424.496s22.656-50.604 50.604-50.604 50.604 22.656 50.604 50.604z" fill="#f8f8f8"></path>
    <path d="M0 337v16.305l265.81 158.7h27.31V495.7L27.31 337z" fill="#f8f8f8"></path>
    <path stroke="#52a84c" stroke-width="1pt" fill="#c93a3a" d="M156.523 405.41l-6.58.11-3.4 5.62-3.39-5.63-6.57-.14 3.18-5.75-3.16-5.768 6.57-.113 3.41-5.626 3.39 5.638 6.57.14-3.19 5.748zm-22.043 38.16l-6.58.11-3.4 5.62-3.39-5.63-6.57-.14 3.18-5.75-3.16-5.768 6.57-.113 3.41-5.626 3.39 5.638 6.57.14-3.19 5.748zm44.627 0l-6.58.11-3.4 5.62-3.39-5.63-6.57-.14 3.18-5.75-3.16-5.768 6.57-.113 3.41-5.626 3.39 5.638 6.57.14-3.19 5.748z"></path>
  </g>
</svg>