<svg xmlns="http://www.w3.org/2000/svg" height="512" width="512" viewBox="0 0 512 512">
  <defs fill="#2b2b2b">
    <clipPath id="a">
      <path fill-opacity=".67" d="M0 0h416.25v416.25H0z"></path>
    </clipPath>
  </defs>
  <g clip-path="url(#a)" fill-rule="evenodd" transform="matrix(1.23 0 0 1.23 0 0)" fill="#2b2b2b">
    <path fill="#f0ec1d" d="M0 0h625v104.06H0z"></path>
    <path fill="#f8f8f8" d="M0 104.06h625v104.06H0z"></path>
    <path fill="#c93a3a" d="M0 208.12h625v104.06H0z"></path>
    <path fill="#515594" d="M0 312.19h625v104.06H0z"></path>
    <path d="M0 0v416.238l310.45-207.533L0 0z" fill="#248564"></path>
    <path d="M127.81 114.98c-69.183-3.51-100.7 51.6-100.63 94.2-.159 50.38 47.582 91.93 91.71 89.43-23.794-11.26-52.85-42.82-53.117-89.64-.244-42.423 23.977-79.31 62.038-93.99z" fill="#f8f8f8"></path>
    <path fill="#f8f8f8" d="M126.77 160.21l-9.75-7.63-11.82 3.72 4.24-11.64-7.18-10.09 12.38.43 7.37-9.95 3.41 11.91 11.75 3.94-10.28 6.93zM126.563 202.537l-9.75-7.63-11.82 3.72 4.24-11.64-7.18-10.09 12.38.43 7.37-9.95 3.41 11.91 11.75 3.94-10.28 6.93zM126.77 245.279l-9.75-7.63-11.82 3.72 4.24-11.64-7.18-10.09 12.38.43 7.37-9.95 3.41 11.91 11.75 3.94-10.28 6.93zM126.563 288.44l-9.75-7.63-11.82 3.72 4.24-11.64-7.18-10.09 12.38.43 7.37-9.95 3.41 11.91 11.75 3.94-10.28 6.93z"></path>
  </g>
</svg>