<svg xmlns="http://www.w3.org/2000/svg" height="512" width="512" viewBox="0 0 512 512">
  <defs fill="#2b2b2b">
    <clipPath id="a">
      <path fill-opacity=".67" d="M0 0h512v512H0z"></path>
    </clipPath>
  </defs>
  <g fill-rule="evenodd" clip-path="url(#a)" fill="#2b2b2b">
    <path fill="#f8f8f8" d="M-26.003-24.954h592.45v595.94h-592.45z"></path>
    <path fill="#c93a3a" d="M255.34-20.417h312.09v275.22H255.34z"></path>
    <path fill="#515594" d="M-54.446 254.81h309.82v316.17h-309.82zM178.98 181.59l-46.477-29.211-46.249 29.498 17.201-47.936-46.164-29.6 57.113-.413 17.715-47.79 18.094 47.68 57.113.063-45.927 29.88 17.581 47.83z"></path>
    <path d="M435.24 449.04l-46.477-29.211-46.249 29.498 17.201-47.936-46.164-29.6 57.113-.413 17.715-47.79 18.094 47.68 57.113.063-45.927 29.88 17.581 47.83z" fill="#c93a3a"></path>
  </g>
</svg>