<svg xmlns="http://www.w3.org/2000/svg" height="512" width="512" viewBox="0 0 512 512">
  <defs fill="#2b2b2b">
    <clipPath id="a">
      <path fill-opacity=".67" d="M70.133 0h499.61v499.61H70.133z"></path>
    </clipPath>
  </defs>
  <g transform="translate(-71.873) scale(1.0248)" clip-path="url(#a)" fill="#2b2b2b">
    <g fill-rule="evenodd" stroke-width="1pt">
      <path d="M.001 397.908V101.846l220.373 147.955L0 397.918z"></path>
      <path d="M150.371 499.667l247.41-166.512h351.66v166.512h-599.07z" fill="#2e6dbf"></path>
      <path d="M134.465.007L749.422.02v166.54H397.76S137.762-1.64 134.465.007z" fill="#c93a3a"></path>
      <path d="M.001 62.47v39.352l220.373 147.955L0 397.894v39.35l277.564-187.467L.001 62.47z" fill="#f0c905"></path>
      <path d="M.001 62.47V.007H92.6l294.03 198.943h362.79v101.737H386.63L92.598 499.6H0v-62.356l277.564-187.468L.001 62.47z" fill="#248564"></path>
      <path d="M92.599.007h57.762l247.41 166.54h351.66v32.403h-362.79L92.61.007zM92.599 499.667h57.762l247.41-166.512h351.66v-32.402h-362.79L92.61 499.667z" fill="#f8f8f8"></path>
    </g>
  </g>
</svg>