<svg xmlns="http://www.w3.org/2000/svg" height="512" width="512" viewBox="0 0 512 512">
  <defs fill="#2b2b2b">
    <clipPath id="a">
      <path fill-opacity=".67" d="M92.213 7.828h593.6v485.5h-593.6z"></path>
    </clipPath>
  </defs>
  <g fill-rule="evenodd" clip-path="url(#a)" transform="matrix(.86254 0 0 1.0546 -79.537 -8.255)" fill="#2b2b2b">
    <path stroke="#2b2b2b" stroke-width="1.063" fill="#f8f8f8" d="M991.81 492.88H4.18V8.38h987.63z"></path>
    <path fill="#515594" d="M991.81 405.21H4.18v87.672h987.63z"></path>
    <path fill="#c93a3a" d="M991.81 384.9H4.18V116.35h987.63z"></path>
    <path fill="#515594" d="M991.81 8.374H4.18v87.672h987.63z"></path>
    <path d="M473.088 250.648c0 60.167-61.572 108.94-137.523 108.94-75.953 0-137.523-48.775-137.523-108.94 0-60.167 61.572-108.94 137.523-108.94 75.953 0 137.523 48.774 137.523 108.94z" fill="#f8f8f8"></path>
    <path fill="#c93a3a" d="M402.854 326.75l-66.077-38.59-67.132 39.129 26.38-62.896-66.148-38.516 82.374-.274 26.242-62.933 24.535 62.724 82.376-.385-67.213 39.046z"></path>
  </g>
</svg>