<svg xmlns="http://www.w3.org/2000/svg" height="512" width="512" viewBox="0 0 512 512">
  <path fill="#c93a3a" d="M0 0h512v512H0z"></path>
  <path fill="#2e6dbf" d="M170.667 0h170.667v512H170.667z"></path>
  <circle cx="85.627" cy="215.251" r="27.996" fill="#f0c905"></circle>
  <circle cx="85.627" cy="202.526" r="30.541" fill="#c93a3a"></circle>
  <path d="M72.919 169.458c0 7.018 5.69 12.707 12.708 12.707s12.707-5.69 12.707-12.707c0-5.084-3.177-5.719-3.177-7.625 0-1.906 1.907-4.448-1.906-7.625 1.906 3.177-1.27 3.813-1.27 6.99 0 3.176 1.27 3.176 1.27 5.718a2.542 2.542 0 0 1-5.083 0c0-2.542 2.542-5.083 2.542-8.895 0-3.813-.636-5.083-2.542-8.26-1.906-3.177-5.083-5.719-2.541-8.26-3.813 1.27-1.907 6.353-1.907 9.53 0 3.177-2.541 5.083-2.541 8.896 0 3.812 1.906 4.447 1.906 6.989a2.542 2.542 0 0 1-5.083 0c0-2.542 1.27-2.542 1.27-5.718 0-3.177-3.176-3.813-1.27-6.99-3.812 3.177-1.906 5.719-1.906 7.625 0 1.906-3.177 2.541-3.177 7.625z" fill="#f0c905" fill-rule="evenodd"></path>
  <circle cx="85.627" cy="207.616" r="20.36" fill="#f0c905"></circle>
  <path d="M29.635 248.337v122.162h25.45V248.337zm86.532 0v122.162h25.45V248.337zm-55.991 20.36v10.18h50.901v-10.18zm0 71.262v10.18h50.901v-10.18zm0-91.622h50.901l-25.45 15.27zm0 106.892h50.901l-25.45 15.27z" fill="#f0c905"></path>
  <circle cx="85.627" cy="309.418" r="26.978" fill="#f0c905" stroke="#c93a3a" stroke-width="3.054"></circle>
  <path d="M85.627 282.44a13.489 13.489 0 0 1 0 26.978 13.489 13.489 0 1 0 0 26.978" fill="none" stroke="#c93a3a" stroke-width="3.054"></path>
  <circle r="5.09" cy="295.929" cx="85.627" fill="#c93a3a"></circle>
  <circle r="5.09" cy="322.907" cx="85.627" fill="#c93a3a"></circle>
</svg>