<svg xmlns="http://www.w3.org/2000/svg" xmlns:xlink="http://www.w3.org/1999/xlink" height="512" width="512" viewBox="0 0 512 512">
  <path fill="#248564" d="M0 0h512v512H0z"></path>
  <circle cx="256" cy="192" r="165.333" fill="#ffbe0a"></circle>
  <path d="M174.32 11.963A160 160 0 0 0 96 149.333a160 160 0 0 0 160 160 160 160 0 0 0 160-160 160 160 0 0 0-78.328-137.37H174.32z" fill="#248564"></path>
  <g id="b" transform="translate(256 149.333) scale(5.33333)" fill="#2b2b2b">
    <path id="a" d="M0-12L-3.708-.587l5.706 1.854" fill="#ffbe0a"></path>
    <use height="100%" width="100%" xlink:href="#a" transform="scale(-1 1)"></use>
  </g>
  <use height="100%" width="100%" xlink:href="#b" transform="rotate(72 256 149.333)" fill="#2b2b2b"></use>
  <use height="100%" width="100%" xlink:href="#b" transform="rotate(144 256 149.333)" fill="#2b2b2b"></use>
  <use height="100%" width="100%" xlink:href="#b" transform="rotate(-144 256 149.333)" fill="#2b2b2b"></use>
  <use height="100%" width="100%" xlink:href="#b" transform="rotate(-72 256 149.333)" fill="#2b2b2b"></use>
</svg>