<svg xmlns="http://www.w3.org/2000/svg" xmlns:xlink="http://www.w3.org/1999/xlink" height="512" width="512" viewBox="0 0 512 512">
  <path fill="#52a84c" d="M0 341.333h512V512H0z"></path>
  <path fill="#19a1b0" d="M0 0h512v170.667H0z"></path>
  <path fill="#c93a3a" d="M0 163.84h512v184.32H0z"></path>
  <path fill="#f8f8f8" d="M0 174.08h512v163.84H0z"></path>
  <circle cx="143.36" cy="81.92" r="61.44" fill="#f8f8f8"></circle>
  <circle cx="163.84" cy="81.92" r="61.44" fill="#19a1b0"></circle>
  <g transform="translate(278.528 131.072) scale(2.048)" fill="#f8f8f8">
    <g id="e">
      <g id="d">
        <g id="c">
          <g id="b">
            <path id="a" d="M0-6L-1.854-.294 1 .633"></path>
            <use height="100%" width="100%" xlink:href="#a" transform="scale(-1 1)"></use>
          </g>
          <use height="100%" width="100%" xlink:href="#b" transform="rotate(72)"></use>
        </g>
        <use height="100%" width="100%" xlink:href="#b" transform="rotate(-72)"></use>
        <use height="100%" width="100%" xlink:href="#c" transform="rotate(144)"></use>
      </g>
      <use height="100%" width="100%" xlink:href="#d" y="-24"></use>
      <use height="100%" width="100%" xlink:href="#d" y="-48"></use>
    </g>
    <use height="100%" width="100%" xlink:href="#e" x="24"></use>
    <use height="100%" width="100%" xlink:href="#e" x="48"></use>
    <use height="100%" width="100%" xlink:href="#d" x="-48"></use>
    <use height="100%" width="100%" xlink:href="#d" x="-24"></use>
    <use height="100%" width="100%" xlink:href="#d" x="-24" y="-24"></use>
  </g>
</svg>